<!-- Generated by IcoMoon.io -->
<svg version="1.1" xmlns="http://www.w3.org/2000/svg" width="32" height="32" viewBox="0 0 32 32">
<title>access-oblong-square</title>
<path d="M25.597 5.047h-19.306c-3.419 0-6.217 2.798-6.217 6.217v9.528c0 3.419 2.798 6.217 6.217 6.217h19.306c3.419 0 6.217-2.798 6.217-6.217v-9.528c0-3.419-2.798-6.217-6.217-6.217zM15.304 22.763c-3.028 0-5.483-0.644-5.483-1.438 0-0.724 2.042-1.323 4.698-1.423-0.011-0.020-0.024-0.040-0.034-0.061l-2.624-5.564c-0.187-0.395-0.238-0.848-0.238-1.287 0-2.035 1.646-3.681 3.681-3.681s3.681 1.646 3.681 3.681c0 0.438-0.050 0.891-0.238 1.287l-2.616 5.564c-0.010 0.022-0.023 0.041-0.035 0.061 2.653 0.101 4.691 0.699 4.691 1.423 0 0.794-2.455 1.438-5.483 1.438z"></path>
<path d="M17.144 12.991c0-1.014-0.826-1.84-1.84-1.84-1.013 0-1.84 0.827-1.84 1.84s0.827 1.84 1.84 1.84c1.014 0 1.84-0.827 1.84-1.84z"></path>
</svg>
