<!-- Generated by IcoMoon.io -->
<svg version="1.1" xmlns="http://www.w3.org/2000/svg" width="32" height="32" viewBox="0 0 32 32">
<title>access</title>
<path d="M17.487 24.881c0.027-0.047 0.057-0.092 0.081-0.142l6.054-12.873c0.432-0.914 0.549-1.962 0.549-2.977 0-4.708-3.809-8.517-8.517-8.517-4.707 0-8.516 3.809-8.516 8.517 0 1.014 0.116 2.062 0.549 2.977l6.071 12.873c0.022 0.050 0.051 0.094 0.078 0.141-6.145 0.231-10.868 1.617-10.868 3.292 0 1.837 5.68 3.326 12.686 3.326s12.686-1.489 12.686-3.326c0-1.674-4.716-3.058-10.854-3.291zM11.397 8.89c0-2.344 1.913-4.258 4.257-4.258 2.345 0 4.258 1.913 4.258 4.258 0 2.344-1.913 4.257-4.258 4.257-2.344 0-4.257-1.913-4.257-4.257z"></path>
</svg>
