<!-- Generated by IcoMoon.io -->
<svg version="1.1" xmlns="http://www.w3.org/2000/svg" width="32" height="32" viewBox="0 0 32 32">
<title>access-square</title>
<path d="M25.597 0.139h-19.306c-3.419 0-6.217 2.798-6.217 6.217v19.159c0 3.419 2.798 6.217 6.217 6.217h19.306c3.419 0 6.217-2.798 6.217-6.217v-19.159c0-3.419-2.798-6.217-6.217-6.217zM15.944 26.488c-4.751 0-8.602-1.010-8.602-2.256 0-1.136 3.203-2.075 7.369-2.232-0.018-0.032-0.038-0.062-0.053-0.096l-4.117-8.729c-0.294-0.62-0.373-1.331-0.373-2.018 0-3.192 2.583-5.775 5.775-5.775 3.193 0 5.775 2.583 5.775 5.775 0 0.688-0.079 1.399-0.372 2.018l-4.106 8.729c-0.016 0.034-0.036 0.064-0.055 0.096 4.162 0.158 7.359 1.097 7.359 2.232 0 1.246-3.851 2.256-8.602 2.256z"></path>
<path d="M18.831 11.158c0-1.59-1.297-2.887-2.887-2.887-1.589 0-2.887 1.297-2.887 2.887s1.297 2.887 2.887 2.887c1.59 0 2.887-1.297 2.887-2.887z"></path>
</svg>
