<!-- Generated by IcoMoon.io -->
<svg version="1.1" xmlns="http://www.w3.org/2000/svg" width="32" height="32" viewBox="0 0 32 32">
<title>amazon-logo</title>
<path d="M27.18 26.088c-3.033 2.238-7.423 3.427-11.207 3.427-5.303 0-10.077-1.957-13.688-5.222-0.281-0.254-0.032-0.605 0.308-0.405 3.898 2.271 8.72 3.633 13.699 3.633 3.357 0 7.050-0.697 10.45-2.141 0.508-0.216 0.941 0.341 0.438 0.708z"></path>
<path d="M28.44 24.65c-0.389-0.497-2.563-0.238-3.541-0.119-0.297 0.032-0.341-0.222-0.076-0.411 1.735-1.216 4.579-0.865 4.909-0.459 0.335 0.411-0.087 3.26-1.714 4.622-0.249 0.211-0.487 0.097-0.378-0.178 0.373-0.914 1.189-2.957 0.8-3.455z"></path>
<path d="M21.282 22.639l0.005 0.005c0.67-0.589 1.876-1.643 2.557-2.211 0.27-0.216 0.222-0.578 0.011-0.881-0.611-0.843-1.26-1.53-1.26-3.087v-5.19c0-2.2 0.151-4.217-1.465-5.731-1.276-1.222-3.395-1.654-5.017-1.654-3.168 0-6.704 1.184-7.444 5.098-0.081 0.416 0.227 0.638 0.497 0.697l3.227 0.351c0.303-0.016 0.519-0.314 0.578-0.616 0.276-1.346 1.406-2 2.676-2 0.687 0 1.465 0.249 1.871 0.865 0.465 0.687 0.405 1.622 0.405 2.417v0.432c-1.93 0.216-4.455 0.357-6.26 1.152-2.087 0.903-3.552 2.741-3.552 5.444 0 3.46 2.179 5.19 4.984 5.19 2.368 0 3.66-0.557 5.487-2.427 0.605 0.876 0.8 1.303 1.908 2.222 0.254 0.135 0.568 0.124 0.789-0.076zM17.925 14.519c0 1.297 0.032 2.379-0.622 3.53-0.53 0.941-1.368 1.514-2.303 1.514-1.276 0-2.022-0.973-2.022-2.411 0-2.838 2.546-3.352 4.952-3.352v0.719z"></path>
</svg>
