<!-- Generated by IcoMoon.io -->
<svg version="1.1" xmlns="http://www.w3.org/2000/svg" width="32" height="32" viewBox="0 0 32 32">
<title>amp-logo</title>
<path d="M15.16 30.936c-3.695-0.236-7.066-1.716-9.643-4.233-2.242-2.19-3.726-4.951-4.274-7.953-0.193-1.057-0.229-1.498-0.228-2.764 0.001-1.312 0.055-1.888 0.285-3.016 0.743-3.652 2.904-6.954 5.986-9.144 2.816-2.001 6.271-2.973 9.73-2.735 4.716 0.324 8.91 2.763 11.535 6.709 1.299 1.953 2.088 4.155 2.383 6.653 0.066 0.561 0.066 2.545 0 3.106-0.427 3.611-1.914 6.665-4.454 9.146-1.079 1.054-2.215 1.87-3.586 2.578-1.655 0.854-3.375 1.374-5.236 1.582-0.533 0.060-2.026 0.103-2.498 0.073zM18.019 19.762c2.3-3.813 3.198-5.332 3.211-5.436 0.021-0.162-0.080-0.346-0.267-0.485-0.105-0.078-0.149-0.080-1.973-0.091-1.432-0.008-1.866-0.022-1.866-0.057 0-0.053 1.094-6.52 1.125-6.652l0.020-0.086h-1.128l-3.137 5.212c-1.725 2.866-3.164 5.281-3.197 5.366-0.115 0.295 0.047 0.607 0.361 0.695 0.088 0.024 0.817 0.040 1.918 0.040l1.776 0-0.545 3.288c-0.3 1.808-0.554 3.336-0.565 3.394l-0.020 0.105h1.094l3.192-5.292z"></path>
</svg>
