<!-- Generated by IcoMoon.io -->
<svg version="1.1" xmlns="http://www.w3.org/2000/svg" width="32" height="32" viewBox="0 0 32 32">
<title>amp-logo2</title>
<path d="M15.066 30.923c-0.341-0.014-0.619-0.041-0.619-0.059 0-0.060 0.477-1.057 1.615-3.375 0.608-1.239 1.35-2.759 1.651-3.378 0.753-1.554 1.845-3.792 3.68-7.544 0.858-1.755 1.557-3.255 1.553-3.334s-0.052-0.171-0.106-0.205c-0.054-0.034-1.292-0.062-2.753-0.063l-2.655-0.001 0.040-0.206c0.022-0.114 0.508-2.698 1.078-5.743 0.774-4.127 1.064-5.536 1.141-5.536 0.273-0 2.087 0.677 2.929 1.093 4.63 2.292 7.659 6.63 8.273 11.85 0.121 1.032 0.048 3.079-0.15 4.179-0.558 3.101-2.006 5.832-4.278 8.063-2.562 2.516-5.816 3.979-9.434 4.24-0.576 0.042-1.114 0.069-1.197 0.061s-0.429-0.026-0.77-0.040zM11.777 30.341c-1.423-0.421-2.737-1.032-3.938-1.83-1.861-1.237-3.093-2.46-4.304-4.273-2.188-3.275-2.979-7.334-2.189-11.235 0.806-3.982 3.313-7.566 6.81-9.738 1.826-1.134 4.122-1.929 6.232-2.159 0.789-0.086 2.49-0.094 3.108-0.016l0.384 0.049-0.423 0.863c-0.232 0.475-0.825 1.691-1.318 2.702s-1.315 2.701-1.828 3.753c-0.513 1.053-1.162 2.387-1.441 2.965s-0.845 1.743-1.258 2.59c-2.136 4.382-2.351 4.846-2.33 5.028l0.022 0.189 2.721 0.020c1.497 0.011 2.721 0.038 2.721 0.060 0 0.062-2.029 10.858-2.076 11.050-0.052 0.208-0.134 0.207-0.894-0.018z"></path>
</svg>
