<?xml version="1.0" encoding="utf-8"?>
<!-- Generator: Adobe Illustrator 28.3.0, SVG Export Plug-In . SVG Version: 6.00 Build 0)  -->
<svg version="1.1" id="レイヤー_1" xmlns="http://www.w3.org/2000/svg" xmlns:xlink="http://www.w3.org/1999/xlink" x="0px"
	 y="0px" viewBox="0 0 27 32" style="enable-background:new 0 0 27 32;" xml:space="preserve">
<path d="M22.6,16c0-0.3-0.1-0.6-0.3-0.8l-8-8c-0.2-0.2-0.5-0.3-0.8-0.3S12.9,7,12.7,7.2l-1.6,1.6c-0.2,0.2-0.3,0.5-0.3,0.8
	s0.1,0.6,0.3,0.8l3.3,3.3H5.6c-0.6,0-1.1,0.5-1.1,1.1v2.3c0,0.6,0.5,1.1,1.1,1.1h8.8l-3.3,3.3c-0.2,0.2-0.3,0.5-0.3,0.8
	s0.1,0.6,0.3,0.8l1.6,1.6c0.2,0.2,0.5,0.3,0.8,0.3s0.6-0.1,0.8-0.3l8-8C22.5,16.6,22.6,16.3,22.6,16L22.6,16z M27,16
	c0,7.5-6,13.5-13.5,13.5S0,23.5,0,16S6,2.5,13.5,2.5S27,8.5,27,16z"/>
</svg>
