<!-- Generated by IcoMoon.io -->
<svg version="1.1" xmlns="http://www.w3.org/2000/svg" width="32" height="32" viewBox="0 0 32 32">
<title>calltell</title>
<path d="M21.502 20.247c-2.269 2.688-5.208 4.16-5.208 4.16s-1.315-1.438-1.874-2.235c-1.409-1.711-2.746-0.896-2.746-0.896l-5.018 2.633c-1.458 0.648-0.908 1.763-0.908 1.763s1.096 3.459 1.562 4.826 1.261 1.412 1.557 1.382c2.601-0.006 7.709-1.978 9.504-2.795s5.36-3.839 7.117-5.726c3.205-3.439 4.661-8.207 4.661-8.207 0.51-1.905 1.609-7.27 1.185-9.837-0.020-0.297-0.195-1.073-1.621-1.305-1.426-0.234-5.019-0.743-5.019-0.743s-1.19-0.358-1.589 1.187l-1.765 5.385c0 0-0.582 1.455 1.338 2.56 0.878 0.419 2.513 1.478 2.513 1.478s-0.981 3.158-3.69 6.368z"></path>
<path d="M15.413 0.421c0.189-0.050 0.39-0.020 0.555 0.083 0.026 0.016 0.051 0.034 0.075 0.053 0.126 0.103 0.213 0.246 0.246 0.407 0.090 0.44 0.134 0.612 0.18 0.795 0.048 0.189 0.097 0.385 0.194 0.856 0.076 0.37-0.15 0.734-0.515 0.831-5.734 1.507-10.857 7.649-11.187 13.413-0.022 0.377-0.334 0.671-0.711 0.67-0.454-0.001-0.592 0.002-0.737 0.007-0.149 0.004-0.304 0.008-0.779 0.007-0.164-0.001-0.322-0.058-0.447-0.161-0.024-0.019-0.047-0.040-0.067-0.063-0.134-0.142-0.203-0.333-0.192-0.528 0.218-3.818 1.613-7.4 4.034-10.36 2.419-2.96 5.654-5.038 9.351-6.010z"></path>
<path d="M15.627 6.967c0.189-0.050 0.389-0.019 0.555 0.083 0.027 0.016 0.051 0.034 0.076 0.053 0.125 0.103 0.213 0.246 0.246 0.407 0.053 0.259 0.079 0.36 0.106 0.467 0.030 0.117 0.060 0.238 0.119 0.526 0.077 0.37-0.15 0.734-0.515 0.831-3.338 0.877-6.32 4.451-6.512 7.803-0.021 0.377-0.334 0.671-0.711 0.67-0.269-0.001-0.35 0.001-0.434 0.003-0.092 0.003-0.187 0.005-0.477 0.004-0.164-0.001-0.322-0.058-0.448-0.161-0.023-0.019-0.046-0.040-0.067-0.063-0.134-0.142-0.203-0.333-0.193-0.528 0.136-2.354 0.995-4.563 2.488-6.389s3.487-3.107 5.767-3.706z"></path>
<path d="M16.973 11.367c0.026 0.017 0.052 0.035 0.075 0.054 0.126 0.103 0.213 0.246 0.247 0.407 0.027 0.13 0.039 0.179 0.053 0.235 0.016 0.063 0.034 0.134 0.067 0.296 0.076 0.37-0.151 0.734-0.515 0.83-1.658 0.435-3.139 2.208-3.234 3.869-0.022 0.377-0.334 0.671-0.712 0.67-0.139-0-0.179 0.001-0.222 0.002-0.052 0.001-0.105 0.002-0.265 0.002-0.164-0.001-0.322-0.058-0.447-0.16-0.023-0.019-0.046-0.041-0.067-0.063-0.134-0.142-0.203-0.333-0.192-0.528 0.155-2.715 2.027-5.005 4.658-5.696 0.189-0.050 0.39-0.020 0.555 0.083z"></path>
</svg>
