<!-- Generated by IcoMoon.io -->
<svg version="1.1" xmlns="http://www.w3.org/2000/svg" width="32" height="32" viewBox="0 0 32 32">
<title>calltell-oblong-square</title>
<path d="M25.966 5.047h-19.306c-3.419 0-6.217 2.798-6.217 6.217v9.528c0 3.419 2.798 6.217 6.217 6.217h19.306c3.419 0 6.217-2.798 6.217-6.217v-9.528c-0-3.419-2.798-6.217-6.217-6.217zM16.072 14.529c0.054 0.045 0.093 0.106 0.107 0.176 0.011 0.056 0.017 0.078 0.023 0.102 0.007 0.027 0.015 0.058 0.029 0.128 0.033 0.16-0.065 0.318-0.224 0.36-0.718 0.189-1.36 0.957-1.401 1.677-0.009 0.163-0.145 0.291-0.309 0.29-0.060 0-0.078 0-0.096 0.001-0.023 0-0.046 0.001-0.115 0.001-0.071-0-0.139-0.025-0.194-0.070-0.010-0.008-0.021-0.017-0.030-0.027-0.058-0.062-0.088-0.145-0.083-0.229 0.067-1.177 0.878-2.169 2.019-2.469 0.081-0.022 0.169-0.008 0.24 0.036 0.011 0.008 0.023 0.016 0.033 0.024zM15.711 13.624c-1.447 0.38-2.739 1.929-2.822 3.382-0.009 0.163-0.145 0.291-0.309 0.29-0.116-0-0.152 0-0.188 0.002-0.040 0.001-0.081 0.002-0.207 0.001-0.071 0-0.139-0.025-0.194-0.070-0.009-0.008-0.019-0.017-0.029-0.027-0.058-0.062-0.088-0.144-0.083-0.229 0.059-1.020 0.431-1.978 1.078-2.769s1.512-1.347 2.5-1.606c0.081-0.022 0.168-0.008 0.24 0.036 0.011 0.007 0.022 0.015 0.033 0.023 0.054 0.045 0.093 0.106 0.107 0.176 0.023 0.112 0.034 0.156 0.046 0.202 0.013 0.051 0.026 0.103 0.052 0.228 0.033 0.161-0.065 0.319-0.224 0.36zM10.526 17.176c-0.197-0-0.256 0.001-0.319 0.003-0.065 0.002-0.132 0.004-0.338 0.003-0.071-0-0.139-0.025-0.194-0.070-0.010-0.008-0.020-0.017-0.029-0.027-0.058-0.062-0.088-0.144-0.083-0.229 0.094-1.655 0.699-3.207 1.749-4.49s2.45-2.183 4.053-2.605c0.081-0.022 0.169-0.009 0.241 0.036 0.011 0.007 0.022 0.015 0.032 0.023 0.055 0.045 0.093 0.107 0.107 0.176 0.039 0.191 0.058 0.265 0.078 0.345 0.021 0.082 0.042 0.167 0.084 0.371 0.033 0.16-0.065 0.318-0.224 0.36-2.485 0.653-4.705 3.315-4.849 5.813-0.009 0.163-0.144 0.291-0.308 0.29zM21.75 16.147c0 0-0.631 2.066-2.021 3.557-0.761 0.817-2.306 2.127-3.085 2.481s-2.992 1.209-4.119 1.211c-0.128 0.013-0.473-0.007-0.674-0.599s-0.677-2.092-0.677-2.092-0.239-0.483 0.393-0.764l2.175-1.141c0 0 0.58-0.353 1.191 0.388 0.242 0.346 0.812 0.969 0.812 0.969s1.274-0.638 2.257-1.803c1.174-1.391 1.599-2.76 1.599-2.76s-0.709-0.459-1.089-0.64c-0.832-0.479-0.58-1.11-0.58-1.11l0.765-2.334c0.174-0.67 0.689-0.514 0.689-0.514s1.558 0.221 2.175 0.322c0.618 0.1 0.694 0.437 0.703 0.565 0.184 1.112-0.293 3.438-0.514 4.263z"></path>
</svg>
