<!-- Generated by IcoMoon.io -->
<svg version="1.1" xmlns="http://www.w3.org/2000/svg" width="32" height="32" viewBox="0 0 32 32">
<title>calltell-square</title>
<path d="M25.618 0.201h-19.306c-3.419 0-6.217 2.798-6.217 6.217v19.159c0 3.419 2.798 6.217 6.217 6.217h19.306c3.419 0 6.217-2.798 6.217-6.217v-19.159c0-3.419-2.798-6.217-6.217-6.217zM15.513 12.981c0.087 0.072 0.149 0.171 0.172 0.283 0.019 0.091 0.027 0.125 0.037 0.164 0.011 0.043 0.024 0.094 0.047 0.206 0.053 0.258-0.105 0.512-0.359 0.579-1.156 0.303-2.188 1.539-2.254 2.697-0.015 0.263-0.233 0.468-0.496 0.467-0.097-0-0.125 0.001-0.155 0.001-0.036 0.001-0.073 0.002-0.184 0.001-0.114-0.001-0.224-0.041-0.312-0.112-0.016-0.013-0.032-0.028-0.047-0.043-0.093-0.099-0.141-0.232-0.134-0.368 0.109-1.893 1.413-3.489 3.247-3.971 0.131-0.035 0.271-0.014 0.387 0.058 0.018 0.011 0.036 0.024 0.052 0.037zM14.931 11.526c-2.327 0.611-4.406 3.103-4.54 5.44-0.014 0.263-0.233 0.468-0.496 0.467-0.187-0.001-0.243 0.001-0.303 0.002-0.064 0.002-0.131 0.004-0.332 0.003-0.114-0-0.224-0.040-0.312-0.112-0.016-0.013-0.032-0.028-0.047-0.043-0.093-0.099-0.142-0.232-0.134-0.368 0.095-1.641 0.694-3.181 1.735-4.454s2.431-2.166 4.021-2.584c0.132-0.035 0.271-0.014 0.387 0.058 0.019 0.011 0.036 0.023 0.053 0.037 0.087 0.072 0.149 0.171 0.171 0.283 0.037 0.181 0.055 0.251 0.074 0.326 0.021 0.081 0.041 0.166 0.083 0.367 0.054 0.258-0.104 0.512-0.359 0.579zM6.591 17.239c-0.316-0.001-0.413 0.002-0.514 0.005-0.104 0.003-0.212 0.006-0.543 0.005-0.114-0.001-0.224-0.041-0.312-0.112-0.017-0.013-0.032-0.028-0.047-0.044-0.094-0.099-0.142-0.232-0.134-0.368 0.152-2.661 1.125-5.159 2.813-7.222 1.687-2.064 3.942-3.512 6.52-4.19 0.132-0.035 0.272-0.014 0.387 0.058 0.018 0.011 0.036 0.024 0.052 0.037 0.088 0.072 0.149 0.172 0.172 0.283 0.063 0.307 0.094 0.427 0.125 0.554 0.033 0.132 0.068 0.269 0.135 0.597 0.053 0.258-0.105 0.512-0.36 0.579-3.997 1.050-7.569 5.333-7.799 9.351-0.014 0.263-0.232 0.467-0.495 0.467zM24.646 15.584c0 0-1.016 3.323-3.25 5.721-1.225 1.315-3.709 3.421-4.961 3.992s-4.813 1.945-6.626 1.949c-0.207 0.021-0.761-0.010-1.085-0.964s-1.089-3.365-1.089-3.365-0.384-0.777 0.633-1.229l3.499-1.836c0 0 0.933-0.568 1.915 0.625 0.389 0.556 1.306 1.558 1.306 1.558s2.049-1.026 3.631-2.9c1.888-2.238 2.572-4.439 2.572-4.439s-1.14-0.738-1.752-1.030c-1.339-0.771-0.933-1.785-0.933-1.785l1.231-3.754c0.279-1.077 1.108-0.827 1.108-0.827s2.505 0.355 3.499 0.518c0.994 0.161 1.116 0.703 1.13 0.91 0.296 1.789-0.471 5.53-0.826 6.858z"></path>
</svg>
