<?xml version="1.0" encoding="UTF-8"?>
<svg id="_レイヤー_1" data-name="レイヤー_1" xmlns="http://www.w3.org/2000/svg" version="1.1" viewBox="0 0 32 32">
  <!-- Generator: Adobe Illustrator 29.1.0, SVG Export Plug-In . SVG Version: 2.1.0 Build 142)  -->
  <path d="M29.1,2.3H2.9c-1.6,0-2.9,1.3-2.9,2.9v21.7c0,1.6,1.3,2.9,2.9,2.9h26.3c1.6,0,2.9-1.3,2.9-2.9V5.1c0-1.6-1.3-2.9-2.9-2.9ZM25.5,12.2l-11,11h0c-.4.4-1.2.4-1.6,0l-6.4-6.4c-.4-.4-.4-1.2,0-1.6l1.8-1.8c.4-.4,1.2-.4,1.6,0l3.8,3.8,8.3-8.3c.4-.4,1.2-.4,1.6,0l1.8,1.8c.4.4.4,1.2,0,1.6Z"/>
</svg>