<?xml version="1.0" encoding="UTF-8"?>
<svg id="_レイヤー_1" data-name="レイヤー_1" xmlns="http://www.w3.org/2000/svg" version="1.1" viewBox="0 0 32 32">
  <!-- Generator: Adobe Illustrator 29.1.0, SVG Export Plug-In . SVG Version: 2.1.0 Build 142)  -->
  <path d="M29.1,2.3H2.9c-1.6,0-2.9,1.3-2.9,2.9v21.7c0,1.6,1.3,2.9,2.9,2.9h26.3c1.6,0,2.9-1.3,2.9-2.9V5.1c0-1.6-1.3-2.9-2.9-2.9ZM27.4,25.1H4.6V6.9h22.9v18.3Z"/>
  <path d="M13.3,22.2c.4.4,1,.4,1.4,0h0l9.5-9.5c.4-.4.4-1,0-1.4l-1.6-1.6c-.4-.4-1-.4-1.4,0l-7.2,7.2-3.3-3.3c-.4-.4-1-.4-1.4,0l-1.6,1.6c-.4.4-.4,1,0,1.4l5.5,5.5Z"/>
</svg>