<!-- Generated by IcoMoon.io -->
<svg version="1.1" xmlns="http://www.w3.org/2000/svg" width="32" height="32" viewBox="0 0 32 32">
<title>codepen-logo</title>
<path d="M28.651 11.801l-13.067-8.711c-0.313-0.209-0.722-0.209-1.035 0l-13.067 8.711c-0.26 0.173-0.416 0.464-0.416 0.777v8.711c0 0.312 0.156 0.604 0.416 0.777l13.067 8.711c0.157 0.105 0.337 0.157 0.518 0.157s0.361-0.052 0.518-0.157l13.067-8.711c0.26-0.173 0.416-0.465 0.416-0.777v-8.711c0-0.312-0.156-0.603-0.416-0.777zM15.067 20.167l-4.851-3.234 4.851-3.234 4.851 3.234-4.851 3.234zM16 12.078v-6.468l10.451 6.967-4.851 3.234-5.6-3.733zM14.133 12.078l-5.6 3.733-4.851-3.234 10.451-6.967v6.468zM6.851 16.933l-3.917 2.612v-5.223l3.917 2.612zM8.533 18.055l5.6 3.733v6.468l-10.451-6.967 4.851-3.234zM16 21.788l5.6-3.733 4.851 3.234-10.451 6.967v-6.468zM23.283 16.933l3.917-2.612v5.223l-3.917-2.612z"></path>
</svg>
