<!-- Generated by IcoMoon.io -->
<svg version="1.1" xmlns="http://www.w3.org/2000/svg" width="32" height="32" viewBox="0 0 32 32">
<title>desktop-o-m</title>
<path d="M28.862 2.347h-25.451c-1.723 0-3.126 1.402-3.126 3.126v17.397c0 1.723 1.402 3.125 3.126 3.125h8.781v0.303c-0.801 0.225-1.738 0.823-1.738 2.085 0 0.363 0.137 1.547 1.896 1.547h7.575c1.76 0 1.896-1.183 1.896-1.547 0-1.262-0.937-1.859-1.738-2.085v-0.303h8.781c1.723 0 3.126-1.402 3.126-3.125v-17.397c-0-1.724-1.402-3.126-3.126-3.126zM30.653 22.87c0 0.987-0.804 1.791-1.791 1.791h-9.448c-0.369 0-0.667 0.299-0.667 0.667v1.526c0 0.353 0.274 0.644 0.626 0.666 0.046 0.003 1.112 0.078 1.112 0.863 0 0.075 0 0.213-0.562 0.213h-7.575c-0.562 0-0.562-0.138-0.562-0.213 0-0.76 1.002-0.855 1.112-0.863 0.352-0.022 0.626-0.313 0.626-0.666v-1.526c0-0.368-0.299-0.667-0.667-0.667h-9.448c-0.988 0-1.791-0.804-1.791-1.791v-17.397c0-0.988 0.803-1.791 1.791-1.791h25.451c0.987 0 1.791 0.803 1.791 1.791v17.397z"></path>
<path d="M28.32 5.387h-24.615c-0.369 0-0.667 0.298-0.667 0.667v12.129c0 0.369 0.299 0.667 0.667 0.667h24.615c0.368 0 0.667-0.298 0.667-0.667v-12.129c0-0.369-0.299-0.667-0.667-0.667zM27.653 17.516h-23.281v-10.795h23.281v10.795z"></path>
</svg>
