<!-- Generated by IcoMoon.io -->
<svg version="1.1" xmlns="http://www.w3.org/2000/svg" width="32" height="32" viewBox="0 0 32 32">
<title>desktop-square</title>
<path d="M6.145 18.417h19.594v-10.069h-19.594z"></path>
<path d="M25.711 0.343h-19.306c-3.419 0-6.217 2.798-6.217 6.217v19.159c0 3.42 2.798 6.217 6.217 6.217h19.306c3.419 0 6.217-2.798 6.217-6.217v-19.159c-0-3.419-2.798-6.217-6.217-6.217zM28.083 21.47c0 1.071-0.877 1.947-1.947 1.947h-7.483v1.209c0 0 1.377 0.084 1.377 1.211 0 0.535-0.438 0.696-0.974 0.696h-5.999c-0.535 0-0.974-0.161-0.974-0.696 0-1.127 1.377-1.211 1.377-1.211v-1.209h-7.482c-1.071 0-1.947-0.876-1.947-1.947v-13.778c0-1.070 0.876-1.946 1.947-1.946h20.157c1.071 0 1.947 0.877 1.947 1.946v13.778z"></path>
</svg>
