<!-- Generated by IcoMoon.io -->
<svg version="1.1" xmlns="http://www.w3.org/2000/svg" width="32" height="32" viewBox="0 0 32 32">
<title>desktop</title>
<path d="M29.327 2.453h-26.541c-1.41 0-2.563 1.154-2.563 2.563v18.141c0 1.41 1.154 2.563 2.563 2.563h9.852v1.591c0 0-1.813 0.111-1.813 1.595 0 0.705 0.577 0.917 1.282 0.917h7.899c0.705 0 1.282-0.212 1.282-0.917 0-1.485-1.813-1.595-1.813-1.595v-1.591h9.852c1.41 0 2.563-1.153 2.563-2.563v-18.141c0-1.41-1.153-2.563-2.563-2.563zM2.299 19.138v-14.383h27.254v14.383h-27.254z"></path>
</svg>
