<!-- Generated by IcoMoon.io -->
<svg version="1.1" xmlns="http://www.w3.org/2000/svg" width="32" height="32" viewBox="0 0 32 32">
<title>desktop-o-b</title>
<path d="M28.57 2.191h-24.87c-1.864 0-3.38 1.516-3.38 3.38v16.999c0 1.863 1.517 3.379 3.38 3.379h7.689c-0.616 0.373-1.134 1.296-1.134 2.301 0 0.888 0.573 1.837 2.179 1.837h7.401c1.606 0 2.179-0.949 2.179-1.837 0-1.005-0.518-1.929-1.134-2.301h7.689c1.864 0 3.38-1.516 3.38-3.38v-16.999c0-1.864-1.516-3.38-3.38-3.38zM29.995 22.569c0 0.785-0.639 1.424-1.424 1.424h-9.232c-0.54 0-0.978 0.438-0.978 0.978v1.491c0 0.51 0.401 0.935 0.91 0.975 0.072 0.006 0.636 0.355 0.763 0.685-0.050 0.006-0.115 0.010-0.197 0.010h-7.402c-0.084 0-0.15-0.005-0.201-0.011 0.121-0.328 0.694-0.678 0.758-0.683 0.516-0.032 0.918-0.459 0.918-0.976v-1.491c0-0.54-0.438-0.978-0.978-0.978h-9.232c-0.785 0-1.424-0.639-1.424-1.424v-16.999c0-0.785 0.639-1.424 1.424-1.424h24.87c0.785 0 1.424 0.639 1.424 1.424v16.999z"></path>
<path d="M26.809 5.928h-21.588c-0.54 0-0.978 0.438-0.978 0.978v10.638c0 0.54 0.438 0.978 0.978 0.978h21.588c0.54 0 0.978-0.438 0.978-0.978v-10.638c0-0.54-0.438-0.978-0.978-0.978zM25.831 16.566h-19.632v-8.682h19.632v8.682z"></path>
</svg>
