<!-- Generated by IcoMoon.io -->
<svg version="1.1" xmlns="http://www.w3.org/2000/svg" width="32" height="32" viewBox="0 0 32 32">
<title>desktop-o-l</title>
<path d="M29.095 2.391h-26.001c-1.573 0-2.852 1.279-2.852 2.852v17.773c0 1.573 1.28 2.853 2.852 2.853h9.311v0.919c-0.746 0.141-1.776 0.645-1.776 1.862 0 0.463 0.207 1.239 1.596 1.239h7.738c1.389 0 1.597-0.776 1.597-1.239 0-1.217-1.030-1.721-1.776-1.862v-0.919h9.311c1.573 0 2.852-1.28 2.852-2.853v-17.773c-0-1.573-1.28-2.852-2.853-2.852zM31.266 23.015c0 1.197-0.974 2.17-2.171 2.17h-9.651c-0.188 0-0.341 0.153-0.341 0.341v1.558c0 0.181 0.14 0.329 0.32 0.341 0.059 0.003 1.456 0.102 1.456 1.223 0 0.181 0 0.558-0.915 0.558h-7.739c-0.915 0-0.915-0.377-0.915-0.558 0-1.113 1.398-1.219 1.456-1.223 0.18-0.011 0.32-0.16 0.32-0.341v-1.558c0-0.188-0.152-0.341-0.341-0.341h-9.653c-1.197 0-2.171-0.974-2.171-2.17v-17.773c0-1.197 0.974-2.17 2.171-2.17h26.001c1.197 0 2.171 0.974 2.171 2.17v17.773z"></path>
<path d="M29.082 5.229h-26.229c-0.188 0-0.341 0.152-0.341 0.341v12.924c0 0.189 0.153 0.341 0.341 0.341h26.229c0.188 0 0.341-0.152 0.341-0.341v-12.923c0-0.189-0.152-0.341-0.341-0.341zM28.741 18.153h-25.547v-12.243h25.547v12.243z"></path>
</svg>
