<!-- Generated by IcoMoon.io -->
<svg version="1.1" xmlns="http://www.w3.org/2000/svg" width="32" height="32" viewBox="0 0 32 32">
<title>envelope-o-l</title>
<path d="M29.322 3.466h-26.412c-1.476 0-2.684 1.208-2.684 2.684v19.602c0 1.477 1.208 2.684 2.684 2.684h26.412c1.477 0 2.684-1.207 2.684-2.684v-19.602c0-1.421-1.207-2.684-2.684-2.684zM0.928 6.15c0-1.093 0.889-1.982 1.982-1.982h26.412c1.056 0 1.982 0.927 1.982 1.982v4.831c-3.49 2.845-12.307 9.535-15.203 9.535s-11.691-6.657-15.173-9.489v-4.877zM31.305 25.752c0 1.093-0.89 1.982-1.981 1.982h-26.414c-1.093 0-1.982-0.891-1.982-1.982v-13.621c3.227 2.568 11.76 9.089 15.174 9.089 3.416 0 11.968-6.556 15.203-9.134v13.666z"></path>
</svg>
