<!-- Generated by IcoMoon.io -->
<svg version="1.1" xmlns="http://www.w3.org/2000/svg" width="32" height="32" viewBox="0 0 32 32">
<title>envelope</title>
<path d="M0.281 11.773v13.854c0 1.463 1.197 2.66 2.66 2.66h26.177c1.463 0 2.66-1.197 2.66-2.66v-13.902c0 0-11.923 9.815-15.762 9.815s-15.735-9.768-15.735-9.768z"></path>
<path d="M3.296 11.151c3.542 2.537 10.694 8.185 12.719 8.185s13.116-8.493 13.116-8.493 2.646-2.158 2.646-4.643c0-1.409-1.197-2.66-2.66-2.66h-26.176c-1.463 0-2.66 1.197-2.66 2.66 0 0-0.526 2.414 3.016 4.951z"></path>
</svg>
