<!-- Generated by IcoMoon.io -->
<svg version="1.1" xmlns="http://www.w3.org/2000/svg" width="32" height="32" viewBox="0 0 32 32">
<title>envelope-square</title>
<path d="M25.736 0.341h-19.306c-3.419 0-6.217 2.798-6.217 6.217v19.159c0 3.419 2.798 6.217 6.217 6.217h19.306c3.419 0 6.217-2.798 6.217-6.217v-19.159c0-3.419-2.798-6.217-6.217-6.217zM27.913 23.428c0 1.098-0.898 1.997-1.996 1.997h-19.647c-1.098 0-1.996-0.898-1.996-1.997v-10.398c0 0 8.928 7.331 11.809 7.331s11.83-7.367 11.83-7.367v10.433zM25.927 12.333c0 0-8.325 6.374-9.844 6.374s-6.887-4.239-9.546-6.143c-2.658-1.904-2.263-3.716-2.263-3.716 0-1.098 0.898-1.996 1.996-1.996h19.646c1.098 0 1.996 0.939 1.996 1.996 0 1.865-1.985 3.485-1.985 3.485z"></path>
</svg>
