<!-- Generated by IcoMoon.io -->
<svg version="1.1" xmlns="http://www.w3.org/2000/svg" width="32" height="32" viewBox="0 0 32 32">
<title>envelope-o-m</title>
<path d="M29.393 3.466h-26.413c-1.477 0-2.684 1.208-2.684 2.684v19.602c0 1.477 1.208 2.684 2.684 2.684h26.413c1.477 0 2.684-1.207 2.684-2.684v-19.602c-0.002-1.421-1.209-2.684-2.684-2.684zM30.672 13.537v12.215c0 0.705-0.574 1.28-1.279 1.28h-26.413c-0.706 0-1.28-0.575-1.28-1.28v-12.172c3.884 3.025 11.020 8.221 14.358 8.337 0.038 0.001 0.079 0.008 0.114 0.008s0.077-0.007 0.114-0.008c3.34-0.117 10.493-5.34 14.386-8.38zM16.172 20.52c-0.084 0-0.176-0.012-0.268-0.021-2.513-0.358-9.533-5.317-14.204-9.097v-5.252c0-0.706 0.574-1.28 1.28-1.28h26.413c0.67 0 1.279 0.61 1.279 1.28v5.206c-4.684 3.798-11.718 8.785-14.232 9.144-0.091 0.008-0.184 0.020-0.268 0.020z"></path>
</svg>
