<!-- Generated by IcoMoon.io -->
<svg version="1.1" xmlns="http://www.w3.org/2000/svg" width="32" height="32" viewBox="0 0 32 32">
<title>envelope-o-b</title>
<path d="M29.25 3.466h-26.413c-1.476 0-2.684 1.208-2.684 2.684v19.602c0 1.477 1.208 2.684 2.684 2.684h26.413c1.477 0 2.684-1.207 2.684-2.684v-19.602c0-1.421-1.207-2.684-2.684-2.684zM26.65 17.285c1.143-0.81 2.228-1.615 3.177-2.336v10.803c0 0.313-0.265 0.578-0.577 0.578h-26.413c-0.313 0-0.578-0.266-0.578-0.578v-10.763c0.946 0.717 2.027 1.517 3.164 2.321 6.044 4.271 8.712 5.153 10.155 5.291 0.16 0.024 0.312 0.041 0.452 0.041s0.292-0.017 0.451-0.041c1.444-0.136 4.115-1.022 10.169-5.316zM16.030 20.52c-0.087 0-0.183-0.012-0.278-0.021-0.699-0.153-2.799-0.898-7.878-4.489-2.357-1.666-4.513-3.351-5.614-4.229v-5.631c0-0.313 0.265-0.578 0.578-0.578h26.412c0.311 0 0.577 0.317 0.577 0.578v5.583c-1.103 0.881-3.265 2.577-5.629 4.253-5.093 3.609-7.193 4.358-7.891 4.512-0.095 0.010-0.191 0.022-0.277 0.022z"></path>
</svg>
