<!-- Generated by IcoMoon.io -->
<svg version="1.1" xmlns="http://www.w3.org/2000/svg" width="25" height="32" viewBox="0 0 25 32">
<title>equal</title>
<path d="M25.143 19.856v3.429c0 0.945-0.768 1.715-1.713 1.715h-21.715c-0.946 0-1.714-0.77-1.714-1.715v-3.429c0-0.946 0.768-1.714 1.714-1.714h21.715c0.945 0.001 1.713 0.768 1.713 1.714z"></path>
<path d="M25.143 8.714v3.429c0 0.945-0.768 1.715-1.713 1.715h-21.715c-0.946 0-1.714-0.77-1.714-1.715v-3.429c0-0.946 0.768-1.714 1.714-1.714h21.715c0.945 0 1.713 0.768 1.713 1.714z"></path>
</svg>
