<!-- Generated by IcoMoon.io -->
<svg version="1.1" xmlns="http://www.w3.org/2000/svg" width="32" height="32" viewBox="0 0 32 32">
<title>exit-square</title>
<path d="M25.56 0.234h-19.306c-3.419 0-6.217 2.798-6.217 6.217v19.159c0 3.419 2.798 6.217 6.217 6.217h19.306c3.419 0 6.217-2.798 6.217-6.217v-19.159c0-3.419-2.798-6.217-6.217-6.217zM14.344 25.802l-2.296-2.272h1.368c0.489 0 0.953 0.195 1.295 0.513l1.76 1.759h-2.126zM25.679 25.802h-2.199l-2.272-2.272v-2.394h2.027l-0.488-1.295c-0.219-0.537-0.708-0.904-1.319-0.904h-0.22v-11.164h-10.602v6.181h1.393l1.587-1.978c0.318-0.367 0.806-0.611 1.343-0.611h3.397c0.537 0 1.001 0.293 1.246 0.758l1.002 1.906c0.049 0.073 0.073 0.171 0.073 0.293 0 0.342-0.293 0.635-0.635 0.635-0.268 0-0.464-0.122-0.587-0.342l-0.904-1.735h-1.465l1.123 2.809 0.342 3.591h2.907c0.464 0 0.831 0.293 1.002 0.684l0.317 0.831h-4.983c-0.366 0-0.684-0.269-0.707-0.635l-0.342-3.151-2.688 5.57c-0.146 0.318-0.488 0.537-0.879 0.537h-1.295l3.298-6.816-1.026-2.565-0.977 1.197c-0.244 0.318-0.66 0.537-1.099 0.537h-1.442v8.062l2.297 2.272h-6.767v-19.543h19.543v19.543zM15.493 9.898c0 0.757-0.635 1.368-1.393 1.368s-1.368-0.611-1.368-1.368c0-0.757 0.611-1.392 1.368-1.392s1.393 0.635 1.393 1.392z"></path>
</svg>
