<!-- Generated by IcoMoon.io -->
<svg version="1.1" xmlns="http://www.w3.org/2000/svg" width="32" height="32" viewBox="0 0 32 32">
<title>exit</title>
<path d="M13.981 29.035l2.855 2.855h-3.45l-3.726-3.687h2.22c0.793 0 1.547 0.317 2.101 0.832zM12.99 3.823c1.229 0 2.26 1.031 2.26 2.26s-1.031 2.22-2.26 2.22c-1.228 0-2.221-0.991-2.221-2.22s0.992-2.26 2.221-2.26zM27.816 24.319l-0.792-2.102c-0.356-0.872-1.149-1.466-2.141-1.466h-0.357v-18.117h-17.206v10.030h2.26l2.576-3.211c0.515-0.595 1.308-0.991 2.18-0.991h5.512c0.872 0 1.625 0.475 2.022 1.229l1.626 3.092c0.080 0.119 0.118 0.277 0.118 0.476 0 0.554-0.475 1.030-1.031 1.030-0.435 0-0.753-0.199-0.952-0.555l-1.466-2.815h-2.377l1.823 4.559 0.555 5.827h4.718c0.753 0 1.347 0.476 1.626 1.11l0.515 1.348h-8.088c-0.594 0-1.11-0.436-1.148-1.031l-0.556-5.114-4.361 9.039c-0.238 0.516-0.792 0.872-1.427 0.872h-2.101l5.352-11.061-1.665-4.163-1.586 1.942c-0.396 0.516-1.071 0.872-1.784 0.872h-2.34v13.082l3.728 3.687h-10.982v-31.714h31.714v31.715h-3.568l-3.686-3.687v-3.885h3.29z"></path>
</svg>
