<!-- Generated by IcoMoon.io -->
<svg version="1.1" xmlns="http://www.w3.org/2000/svg" width="32" height="32" viewBox="0 0 32 32">
<title>fax-o-b</title>
<path d="M4.651 6.907h-0.759c-1.929 0-3.498 1.569-3.498 3.498v17.801c0 1.928 1.569 3.497 3.498 3.497h0.759c1.929 0 3.498-1.569 3.498-3.497v-17.801c0-1.929-1.569-3.497-3.498-3.497zM6.084 28.205c0 0.79-0.643 1.433-1.433 1.433h-0.759c-0.79 0-1.433-0.643-1.433-1.433v-17.801c0-0.79 0.643-1.433 1.433-1.433h0.759c0.79 0 1.433 0.643 1.433 1.433v17.801z"></path>
<path d="M29.519 10.245v-2.949c0-0.067-0.007-0.135-0.020-0.201-0.036-0.183-0.954-4.495-6.754-6.522-0.109-0.038-0.225-0.057-0.341-0.057h-11.075c-0.005 0-0.009 0-0.013 0-0.936 0-2.52 0.727-2.52 3.455v23.497c-0.037 0.374-0.083 1.663 0.865 2.761 0.845 0.979 2.184 1.475 3.981 1.475h13.349c0.010 0 0.020 0 0.030-0 1.577-0.045 4.559-1.365 4.559-6.031v-11.532c0.108-0.591 0.061-2.014-2.062-3.893zM29.517 14.021v11.649c0 3.657-2.229 3.945-2.552 3.968h-13.321c-1.141 0-1.972-0.257-2.404-0.744-0.465-0.523-0.39-1.203-0.388-1.218 0.007-0.050 0.011-0.1 0.011-0.151v-23.555c0-0.906 0.246-1.354 0.478-1.39h10.887c4.149 1.513 5.088 4.321 5.228 4.838v3.305c0 0.31 0.139 0.604 0.38 0.8 1.645 1.344 1.715 2.129 1.716 2.239-0.022 0.084-0.033 0.172-0.033 0.259z"></path>
<path d="M25.63 6.907h-1.826c-0.181-0.076-0.573-0.311-0.573-0.926v-1.403c0-0.57-0.462-1.032-1.032-1.032-0.045 0-0.089 0.003-0.132 0.008h-8.975c-0.57 0-1.032 0.462-1.032 1.032v7.528c0 0.57 0.462 1.032 1.032 1.032h12.538c0.57 0 1.032-0.462 1.032-1.032v-4.175c0-0.57-0.462-1.032-1.032-1.032zM24.598 11.082h-10.473v-5.463h7.042v0.362c0 1.901 1.455 2.767 2.225 2.96 0.082 0.020 0.166 0.031 0.25 0.031h0.956v2.111z"></path>
<path d="M24.879 14.69h-3.093c-0.204 0-0.394 0.059-0.554 0.161-0.16-0.102-0.35-0.161-0.554-0.161h-3.093c-0.204 0-0.394 0.059-0.554 0.161-0.16-0.102-0.351-0.161-0.554-0.161h-3.092c-0.57 0-1.032 0.462-1.032 1.032v3.093c0 0.182 0.047 0.354 0.13 0.502-0.083 0.149-0.13 0.32-0.13 0.503v3.093c0 0.182 0.047 0.354 0.13 0.502-0.083 0.149-0.13 0.32-0.13 0.502v3.093c0 0.57 0.462 1.032 1.032 1.032h3.092c0.204 0 0.394-0.059 0.554-0.161 0.16 0.102 0.35 0.161 0.554 0.161h3.093c0.204 0 0.394-0.059 0.554-0.161 0.16 0.102 0.35 0.161 0.554 0.161h3.093c0.57 0 1.032-0.462 1.032-1.032v-3.093c0-0.182-0.047-0.354-0.13-0.502 0.083-0.149 0.13-0.32 0.13-0.502v-3.093c0-0.182-0.047-0.354-0.13-0.503 0.083-0.149 0.13-0.32 0.13-0.502v-3.093c0-0.57-0.462-1.032-1.032-1.032zM16.051 26.681h-2.442v-2.442h2.442v2.442zM16.051 22.504h-2.442v-2.442h2.442v2.442zM16.051 18.414h-2.442v-2.442h2.442v2.442zM20.346 26.681h-2.442v-2.442h2.442v2.442zM20.346 22.504h-2.442v-2.442h2.442v2.442zM20.346 18.414h-2.442v-2.442h2.442v2.442zM24.495 26.681h-2.442v-2.442h2.442v2.442zM24.495 22.504h-2.442v-2.442h2.442v2.442zM24.495 18.414h-2.442v-2.442h2.442v2.442z"></path>
</svg>
