<!-- Generated by IcoMoon.io -->
<svg version="1.1" xmlns="http://www.w3.org/2000/svg" width="32" height="32" viewBox="0 0 32 32">
<title>fax-o-m</title>
<path d="M4.456 31.677h-1.035c-1.778 0-3.223-1.446-3.223-3.223v-18.305c0-1.777 1.446-3.223 3.223-3.223h1.035c1.777 0 3.223 1.446 3.223 3.223v18.305c0 1.777-1.446 3.223-3.223 3.223zM3.421 8.301c-1.018 0-1.847 0.829-1.847 1.847v18.305c0 1.018 0.829 1.847 1.847 1.847h1.035c1.019 0 1.847-0.829 1.847-1.847v-18.305c0-1.018-0.828-1.847-1.847-1.847h-1.035z"></path>
<path d="M27.175 31.677h-13.728c-1.734 0-3.017-0.467-3.811-1.387-0.892-1.033-0.829-2.28-0.799-2.573v-24.184c0-3.143 2.128-3.179 2.218-3.179h11.403c0.077 0 0.154 0.013 0.227 0.039 5.764 2.015 6.666 6.247 6.702 6.426 0.009 0.044 0.013 0.089 0.013 0.134v3.202c2.254 1.936 2.23 3.312 2.12 3.805v11.888c0 5.639-4.282 5.828-4.326 5.829-0.007 0-0.013 0-0.020 0zM22.34 1.729h-11.277c-0.089 0.003-0.849 0.080-0.849 1.803v24.223c0 0.034-0.002 0.067-0.007 0.1-0 0.003-0.106 0.877 0.483 1.547 0.523 0.596 1.451 0.898 2.759 0.898h13.712c0.349-0.019 2.985-0.297 2.985-4.453v-11.979c0-0.106-0.009-0.136 0.032-0.219 0.013-0.155-0.001-1.090-1.9-2.64-0.16-0.131-0.253-0.327-0.253-0.533v-3.446c-0.12-0.478-1.076-3.646-5.685-5.301zM25.954 28.702h-3.18c-0.38 0-0.688-0.308-0.688-0.688v-3.18c0-0.38 0.308-0.688 0.688-0.688h3.18c0.38 0 0.688 0.308 0.688 0.688v3.18c0 0.38-0.308 0.688-0.688 0.688zM23.462 27.326h1.804v-1.804h-1.804v1.804zM20.853 28.702h-3.18c-0.38 0-0.688-0.308-0.688-0.688v-3.18c0-0.38 0.308-0.688 0.688-0.688h3.18c0.38 0 0.688 0.308 0.688 0.688v3.18c0 0.38-0.308 0.688-0.688 0.688zM18.361 27.326h1.804v-1.804h-1.804v1.804zM15.672 28.702h-3.18c-0.38 0-0.688-0.308-0.688-0.688v-3.18c0-0.38 0.308-0.688 0.688-0.688h3.18c0.38 0 0.688 0.308 0.688 0.688v3.18c0 0.38-0.308 0.688-0.688 0.688zM13.18 27.326h1.804v-1.804h-1.804v1.804zM25.954 23.613h-3.18c-0.38 0-0.688-0.308-0.688-0.688v-3.18c0-0.38 0.308-0.688 0.688-0.688h3.18c0.38 0 0.688 0.308 0.688 0.688v3.18c0 0.38-0.308 0.688-0.688 0.688zM23.462 22.237h1.804v-1.804h-1.804v1.804zM20.853 23.613h-3.18c-0.38 0-0.688-0.308-0.688-0.688v-3.18c0-0.38 0.308-0.688 0.688-0.688h3.18c0.38 0 0.688 0.308 0.688 0.688v3.18c0 0.38-0.308 0.688-0.688 0.688zM18.361 22.237h1.804v-1.804h-1.804v1.804zM15.672 23.613h-3.18c-0.38 0-0.688-0.308-0.688-0.688v-3.18c0-0.38 0.308-0.688 0.688-0.688h3.18c0.38 0 0.688 0.308 0.688 0.688v3.18c0 0.38-0.308 0.688-0.688 0.688zM13.18 22.237h1.804v-1.804h-1.804v1.804zM25.954 18.514h-3.18c-0.38 0-0.688-0.308-0.688-0.688v-3.18c0-0.38 0.308-0.688 0.688-0.688h3.18c0.38 0 0.688 0.308 0.688 0.688v3.18c0 0.38-0.308 0.688-0.688 0.688zM23.462 17.137h1.804v-1.804h-1.804v1.804zM20.853 18.514h-3.18c-0.38 0-0.688-0.308-0.688-0.688v-3.18c0-0.38 0.308-0.688 0.688-0.688h3.18c0.38 0 0.688 0.308 0.688 0.688v3.18c0 0.38-0.308 0.688-0.688 0.688zM18.361 17.137h1.804v-1.804h-1.804v1.804zM15.672 18.514h-3.18c-0.38 0-0.688-0.308-0.688-0.688v-3.18c0-0.38 0.308-0.688 0.688-0.688h3.18c0.38 0 0.688 0.308 0.688 0.688v3.18c0 0.38-0.308 0.688-0.688 0.688zM13.18 17.137h1.804v-1.804h-1.804v1.804zM26.028 12.595h-13.76c-0.38 0-0.688-0.308-0.688-0.688v-7.798c0-0.38 0.308-0.688 0.688-0.688h9.906c0.394-0.041 0.76 0.28 0.76 0.684v1.494c0 0.936 0.677 1.249 0.896 1.326h2.198c0.38 0 0.688 0.308 0.688 0.688v4.293c0 0.38-0.308 0.688-0.688 0.688zM12.956 11.219h12.384v-2.917h-1.61c-0.056 0-0.112-0.007-0.167-0.021-0.694-0.173-2.005-0.957-2.005-2.681v-0.802h-8.602v6.422z"></path>
</svg>
