<!-- Generated by IcoMoon.io -->
<svg version="1.1" xmlns="http://www.w3.org/2000/svg" width="32" height="32" viewBox="0 0 32 32">
<title>fax-square</title>
<path d="M16.892 18.671h2.258v2.258h-2.258v-2.258z"></path>
<path d="M16.892 15.678h2.258v2.258h-2.258v-2.258z"></path>
<path d="M16.892 21.662h2.258v2.258h-2.258v-2.258z"></path>
<path d="M13.824 21.662h2.258v2.258h-2.258v-2.258z"></path>
<path d="M13.824 15.678h2.258v2.258h-2.258v-2.258z"></path>
<path d="M13.824 18.671h2.258v2.258h-2.258v-2.258z"></path>
<path d="M19.959 21.662h2.259v2.258h-2.259v-2.258z"></path>
<path d="M25.287 0.334h-19.099c-3.382 0-6.15 2.767-6.15 6.15v18.953c0 3.383 2.767 6.15 6.15 6.15h19.099c3.382 0 6.15-2.767 6.15-6.15v-18.953c0-3.383-2.767-6.15-6.15-6.15zM10.362 24.793c0 0.99-0.81 1.8-1.8 1.8h-1.67c-0.99 0-1.8-0.81-1.8-1.8v-12.998c0-0.99 0.81-1.8 1.8-1.8h1.669c0.99 0 1.8 0.81 1.8 1.8v12.998zM26.357 14.436c0 0 0 4.93 0 8.506s-2.598 3.65-2.598 3.65-6.624 0-9.747 0-2.785-2.296-2.785-2.296 0-15.393 0-17.199 1.091-1.769 1.091-1.769 6.21 0 8.092-0c3.876 1.355 4.441 4.197 4.441 4.197s0 1.862 0 2.502c1.844 1.506 1.505 2.409 1.505 2.409z"></path>
<path d="M20.26 8.565c0-1.167 0-1.694 0-1.694h-7.527v6.172h10.651v-3.048h-2.071c0 0-1.054-0.264-1.054-1.43z"></path>
<path d="M19.959 15.678h2.259v2.258h-2.259v-2.258z"></path>
<path d="M19.959 18.671h2.259v2.258h-2.259v-2.258z"></path>
</svg>
