<!-- Generated by IcoMoon.io -->
<svg version="1.1" xmlns="http://www.w3.org/2000/svg" width="32" height="32" viewBox="0 0 32 32">
<title>fax-o-l</title>
<path d="M4.728 7.084h-1.602c-1.612 0-2.923 1.311-2.923 2.923v18.623c0 1.612 1.312 2.923 2.923 2.923h1.601c1.612 0 2.923-1.311 2.923-2.923v-18.623c0-1.612-1.311-2.923-2.923-2.923zM6.963 28.63c0 1.233-1.003 2.235-2.235 2.235h-1.602c-1.233 0-2.235-1.003-2.235-2.235v-18.623c0-1.233 1.003-2.235 2.235-2.235h1.601c1.233 0 2.235 1.003 2.235 2.235v18.623z"></path>
<path d="M29.203 10.178v-3.423c0-0.022-0.003-0.045-0.007-0.067-0.035-0.174-0.913-4.288-6.588-6.272-0.036-0.013-0.075-0.019-0.114-0.019h-11.601c-0.078 0-1.9 0.033-1.9 2.879v24.622c-0.024 0.203-0.12 1.387 0.726 2.367 0.738 0.855 1.952 1.288 3.607 1.288h13.967c0.003 0 0.007 0 0.009 0 0.041-0.001 4.055-0.18 4.055-5.575v-12.137c0.087-0.34 0.223-1.672-2.156-3.663zM30.693 13.67c-0.015 0.039-0.022 0.079-0.022 0.121v12.187c0 4.666-3.191 4.878-3.383 4.887h-13.961c-1.442 0-2.478-0.351-3.081-1.043-0.705-0.81-0.57-1.844-0.569-1.853 0.003-0.017 0.004-0.033 0.004-0.050v-24.643c0-2.128 1.087-2.19 1.219-2.19v0h11.535c4.996 1.77 5.991 5.353 6.078 5.708v3.546c0 0.103 0.046 0.201 0.126 0.266 2.362 1.929 2.052 3.063 2.052 3.064z"></path>
<path d="M26.755 7.084h-2.918c-0.21-0.066-1.214-0.449-1.214-1.705v-2.427c0-0.19-0.154-0.344-0.344-0.344h-10.785c-0.19 0-0.344 0.154-0.344 0.344v8.844c0 0.19 0.154 0.344 0.344 0.344h15.261c0.19 0 0.344-0.154 0.344-0.344v-4.368c-0-0.19-0.154-0.344-0.344-0.344zM26.411 11.452h-14.572v-8.156h10.097v2.083c0 1.535 1.159 2.23 1.771 2.383 0.027 0.007 0.055 0.010 0.083 0.010h2.622v3.68z"></path>
<path d="M15.973 15.226h-2.915c-0.19 0-0.344 0.154-0.344 0.344v2.915c0 0.19 0.154 0.344 0.344 0.344h2.915c0.19 0 0.344-0.154 0.344-0.344v-2.915c-0-0.19-0.155-0.344-0.344-0.344zM15.629 18.142h-2.227v-2.227h2.227v2.227z"></path>
<path d="M25.048 15.226h-2.915c-0.19 0-0.344 0.154-0.344 0.344v2.915c0 0.19 0.154 0.344 0.344 0.344h2.915c0.19 0 0.344-0.154 0.344-0.344v-2.915c0-0.19-0.154-0.344-0.344-0.344zM24.704 18.142h-2.227v-2.227h2.227v2.227z"></path>
<path d="M20.511 15.226h-2.915c-0.19 0-0.344 0.154-0.344 0.344v2.915c0 0.19 0.154 0.344 0.344 0.344h2.915c0.19 0 0.344-0.154 0.344-0.344v-2.915c0-0.19-0.154-0.344-0.344-0.344zM20.167 18.142h-2.227v-2.227h2.227v2.227z"></path>
<path d="M15.973 19.694h-2.915c-0.19 0-0.344 0.154-0.344 0.344v2.915c0 0.19 0.154 0.344 0.344 0.344h2.915c0.19 0 0.344-0.154 0.344-0.344v-2.915c-0-0.19-0.155-0.344-0.344-0.344zM15.629 22.61h-2.227v-2.227h2.227v2.227z"></path>
<path d="M25.048 19.694h-2.915c-0.19 0-0.344 0.154-0.344 0.344v2.915c0 0.19 0.154 0.344 0.344 0.344h2.915c0.19 0 0.344-0.154 0.344-0.344v-2.915c0-0.19-0.154-0.344-0.344-0.344zM24.704 22.61h-2.227v-2.227h2.227v2.227z"></path>
<path d="M20.511 19.694h-2.915c-0.19 0-0.344 0.154-0.344 0.344v2.915c0 0.19 0.154 0.344 0.344 0.344h2.915c0.19 0 0.344-0.154 0.344-0.344v-2.915c0-0.19-0.154-0.344-0.344-0.344zM20.167 22.61h-2.227v-2.227h2.227v2.227z"></path>
<path d="M15.973 24.163h-2.915c-0.19 0-0.344 0.154-0.344 0.344v2.915c0 0.19 0.154 0.344 0.344 0.344h2.915c0.19 0 0.344-0.154 0.344-0.344v-2.915c-0-0.19-0.155-0.344-0.344-0.344zM15.629 27.078h-2.227v-2.227h2.227v2.227z"></path>
<path d="M25.048 24.163h-2.915c-0.19 0-0.344 0.154-0.344 0.344v2.915c0 0.19 0.154 0.344 0.344 0.344h2.915c0.19 0 0.344-0.154 0.344-0.344v-2.915c0-0.19-0.154-0.344-0.344-0.344zM24.704 27.078h-2.227v-2.227h2.227v2.227z"></path>
<path d="M20.511 24.163h-2.915c-0.19 0-0.344 0.154-0.344 0.344v2.915c0 0.19 0.154 0.344 0.344 0.344h2.915c0.19 0 0.344-0.154 0.344-0.344v-2.915c0-0.19-0.154-0.344-0.344-0.344zM20.167 27.078h-2.227v-2.227h2.227v2.227z"></path>
</svg>
