<!-- Generated by IcoMoon.io -->
<svg version="1.1" xmlns="http://www.w3.org/2000/svg" width="32" height="32" viewBox="0 0 32 32">
<title>fax</title>
<path d="M5.155 7.231h-2.461c-1.46 0-2.655 1.195-2.655 2.654v19.168c0 1.46 1.195 2.654 2.655 2.654h2.461c1.46 0 2.655-1.195 2.655-2.654v-19.168c0-1.46-1.195-2.654-2.655-2.654z"></path>
<path d="M29.178 10.228c0-0.943 0-3.69 0-3.69s-0.832-4.192-6.549-6.19c-2.775 0-11.933 0-11.933 0s-1.61-0.055-1.61 2.609 0 25.364 0 25.364-0.5 3.386 4.107 3.386c4.607 0 14.375 0 14.375 0s3.83-0.111 3.83-5.384c0-5.273 0-12.543 0-12.543s0.5-1.332-2.22-3.552zM16.246 27.767h-3.33v-3.33h3.33v3.33zM16.246 23.355h-3.33v-3.33h3.33v3.33zM16.246 18.942h-3.33v-3.33h3.33v3.33zM20.77 27.767h-3.33v-3.33h3.33v3.33zM20.77 23.355h-3.33v-3.33h3.33v3.33zM20.77 18.942h-3.33v-3.33h3.33v3.33zM25.293 27.767h-3.33v-3.33h3.33v3.33zM25.293 23.355h-3.33v-3.33h3.33v3.33zM25.293 18.942h-3.33v-3.33h3.33v3.33zM27.014 11.727h-15.708v-9.102h11.101c0 0 0 0.777 0 2.498s1.554 2.109 1.554 2.109h3.053v4.495z"></path>
</svg>
