<!-- Generated by IcoMoon.io -->
<svg version="1.1" xmlns="http://www.w3.org/2000/svg" width="32" height="32" viewBox="0 0 32 32">
<title>feedly</title>
<path d="M30.559 16.674l-13.302-13.301c-0.694-0.695-1.82-0.695-2.514 0l-13.302 13.301c-0.694 0.695-0.695 1.82 0 2.514l9.96 9.96h9.197l9.96-9.96c0.695-0.695 0.695-1.82 0-2.514zM8.426 19.457l-1.48-1.48c-0.103-0.103-0.103-0.27 0-0.374l8.782-8.783c0.104-0.103 0.271-0.103 0.375 0l1.977 1.978c0.103 0.103 0.103 0.27 0 0.373l-8.286 8.285h-1.367zM18.164 24.962l-1.481 1.48h-1.367l-1.48-1.48c-0.103-0.103-0.103-0.27 0-0.373l1.977-1.977c0.103-0.104 0.271-0.104 0.374 0l1.977 1.977c0.103 0.103 0.103 0.27 0 0.373zM18.186 17.999l-4.925 4.925h-1.367l-1.48-1.48c-0.103-0.103-0.103-0.27 0-0.373l5.422-5.422c0.103-0.104 0.27-0.104 0.374 0l1.977 1.977c0.103 0.103 0.103 0.27-0 0.373z"></path>
</svg>
