<!-- Generated by IcoMoon.io -->
<svg version="1.1" xmlns="http://www.w3.org/2000/svg" width="32" height="32" viewBox="0 0 32 32">
<title>feedly-logo</title>
<path d="M16.7 22.398l1.458 1.455c0.161 0.161 0.161 0.421 0 0.582l-1.081 1.071c-0.070 0.071-0.138 0.073-0.179 0.073h-0.954c-0.037 0-0.107-0.001-0.176-0.070l-1.096-1.085c-0.161-0.161-0.161-0.421 0-0.582l1.446-1.443c0.161-0.161 0.422-0.161 0.583 0zM16.713 16.421l1.458 1.455c0.161 0.161 0.161 0.421 0 0.582l-4.081 4.072c-0.071 0.071-0.138 0.073-0.18 0.073h-0.953c-0.038 0-0.107-0.001-0.177-0.070l-1.095-1.092c-0.161-0.161-0.161-0.421 0-0.582l4.446-4.438c0.161-0.161 0.422-0.161 0.583 0zM16.713 10.455l1.458 1.455c0.161 0.161 0.161 0.421 0 0.582l-7.070 7.061c-0.070 0.071-0.138 0.073-0.18 0.073h-0.953c-0.037 0-0.107-0.001-0.176-0.070l-1.096-1.099c-0.161-0.161-0.161-0.421 0-0.582l7.434-7.421c0.161-0.161 0.422-0.161 0.583 0zM18.535 6.236c-1.167-1.165-3.060-1.165-4.227 0l-9.839 9.821c-1.167 1.165-1.167 3.054 0 4.219l7.094 7.098c0.298 0.297 1.032 0.667 1.573 0.667h6.523c0.407 0 1.263-0.309 1.646-0.691l7.070-7.073c1.167-1.165 1.167-3.055 0-4.219l-9.839-9.821z"></path>
</svg>
