<!-- Generated by IcoMoon.io -->
<svg version="1.1" xmlns="http://www.w3.org/2000/svg" width="32" height="32" viewBox="0 0 32 32">
<title>flickr-logo</title>
<path d="M11.611 12.007h-2.829c3.361 0 6.086 2.725 6.086 6.086v-2.833c0 3.361-2.725 6.086-6.086 6.086h2.829c-3.361 0-6.086-2.725-6.086-6.086v2.833c0-3.361 2.725-6.086 6.086-6.086z"></path>
<path d="M24.029 12.007h-2.829c3.361 0 6.086 2.725 6.086 6.086v-2.833c0 3.361-2.725 6.086-6.086 6.086h2.829c-3.361 0-6.086-2.725-6.086-6.086v2.833c0-3.361 2.725-6.086 6.086-6.086z"></path>
</svg>
