<!-- Generated by IcoMoon.io -->
<svg version="1.1" xmlns="http://www.w3.org/2000/svg" width="32" height="32" viewBox="0 0 32 32">
<title>freedial-o-l</title>
<path d="M31.276 24.987h-30.661c-0.19 0-0.344-0.154-0.344-0.344v-13.174c0-0.19 0.154-0.344 0.344-0.344 1.904 0 3.991 0.342 5.876 0.964 0.128 0.042 0.219 0.155 0.234 0.288s-0.050 0.264-0.165 0.333c-1.476 0.888-3.236 2.404-3.236 4.581 0 3.763 3.909 4.532 4.956 4.532s4.956-0.769 4.956-4.532c0-2.164-1.774-3.686-3.263-4.581-0.115-0.069-0.179-0.199-0.165-0.332s0.105-0.246 0.232-0.289c1.868-0.631 3.91-0.965 5.906-0.965s4.037 0.334 5.903 0.965c0.127 0.043 0.217 0.156 0.232 0.289s-0.050 0.263-0.165 0.332c-1.488 0.896-3.262 2.418-3.262 4.581 0 3.763 3.91 4.532 4.957 4.532s4.956-0.769 4.956-4.532c0-2.177-1.76-3.693-3.236-4.581-0.115-0.069-0.179-0.2-0.165-0.333s0.107-0.246 0.234-0.288c1.885-0.622 3.972-0.964 5.876-0.964 0.19 0 0.344 0.154 0.344 0.344v13.174c0 0.19-0.154 0.344-0.344 0.344zM0.959 24.299h29.973v-12.482c-1.503 0.033-3.107 0.281-4.617 0.711 1.927 1.337 2.94 2.973 2.94 4.764 0 3.944-3.802 5.22-5.644 5.22s-5.645-1.276-5.645-5.22c0-1.784 1.023-3.421 2.969-4.767-1.594-0.461-3.339-0.712-4.99-0.712-1.677 0-3.389 0.245-4.992 0.711 1.947 1.346 2.971 2.983 2.971 4.768 0 3.944-3.803 5.22-5.644 5.22s-5.644-1.277-5.644-5.221c0-1.792 1.013-3.427 2.94-4.764-1.509-0.43-3.114-0.678-4.617-0.711v12.482zM23.611 21.056c-1.281 0-4.087-0.948-4.087-3.764 0-1.678 1.437-3.304 3.943-4.461 0.093-0.043 0.2-0.042 0.292 0.002 2.538 1.212 3.936 2.796 3.936 4.46 0 2.816-2.805 3.764-4.084 3.764zM23.609 13.524c-2.161 1.033-3.397 2.401-3.397 3.768 0 2.529 2.725 3.076 3.399 3.076s3.396-0.547 3.396-3.076c0-1.334-1.236-2.702-3.399-3.768zM8.28 21.056c-1.28 0-4.086-0.948-4.086-3.764 0-1.663 1.398-3.247 3.938-4.46 0.092-0.044 0.199-0.045 0.293-0.002 2.504 1.157 3.941 2.783 3.941 4.461 0 2.816-2.806 3.764-4.085 3.764zM8.283 13.524c-2.164 1.066-3.401 2.434-3.401 3.768 0 2.529 2.724 3.076 3.398 3.076s3.397-0.547 3.397-3.076c0-1.368-1.235-2.735-3.395-3.768zM8.253 11.79c-0.045 0-0.091-0.009-0.133-0.027-2.163-0.907-4.828-1.406-7.506-1.406-0.19 0-0.344-0.154-0.344-0.344v-2.717c0-0.19 0.154-0.344 0.344-0.344h30.661c0.19 0 0.344 0.154 0.344 0.344v2.717c0 0.19-0.154 0.344-0.344 0.344-2.677 0-5.343 0.499-7.506 1.406-0.084 0.035-0.179 0.036-0.264 0.001-2.215-0.907-4.9-1.407-7.561-1.407s-5.346 0.5-7.562 1.407c-0.041 0.017-0.085 0.026-0.129 0.026zM15.946 9.669c2.696 0 5.42 0.498 7.69 1.405 2.127-0.868 4.699-1.362 7.296-1.402v-2.031h-29.973v2.031c2.597 0.040 5.169 0.534 7.296 1.402 2.271-0.907 4.995-1.405 7.691-1.405z"></path>
</svg>
