<!-- Generated by IcoMoon.io -->
<svg version="1.1" xmlns="http://www.w3.org/2000/svg" width="32" height="32" viewBox="0 0 32 32">
<title>freedial</title>
<path d="M23.735 11.34c-2.367-0.969-5.185-1.465-7.871-1.465-2.687 0-5.504 0.497-7.871 1.465-2.312-0.969-5.131-1.465-7.816-1.465v-2.78h31.374v2.78c-2.685 0-5.504 0.497-7.816 1.465zM0.177 24.845v-13.481c2.020 0 4.095 0.373 5.902 0.969-2.021 1.216-3.482 2.904-3.482 4.99 0 3.972 3.934 4.99 5.423 4.99 1.488 0 5.423-1.017 5.423-4.99 0-2.086-1.488-3.773-3.509-4.99 1.835-0.62 3.909-0.969 5.93-0.969s4.094 0.349 5.928 0.969c-2.020 1.216-3.508 2.904-3.508 4.99 0 3.972 3.934 4.99 5.424 4.99 1.489 0 5.423-1.017 5.423-4.99 0-2.086-1.461-3.773-3.482-4.99 1.808-0.596 3.882-0.969 5.902-0.969v13.481h-31.375zM4.191 17.323c0-1.613 1.49-3.129 3.829-4.246 2.366 1.093 3.828 2.632 3.828 4.246 0 2.732-2.792 3.5-3.828 3.5s-3.829-0.768-3.829-3.5zM23.708 13.077c2.339 1.117 3.827 2.632 3.827 4.246 0 2.732-2.791 3.5-3.827 3.5s-3.83-0.768-3.83-3.5c0-1.613 1.464-3.153 3.83-4.246z"></path>
</svg>
