<!-- Generated by IcoMoon.io -->
<svg version="1.1" xmlns="http://www.w3.org/2000/svg" width="32" height="32" viewBox="0 0 32 32">
<title>freedial-square</title>
<path d="M25.449 0.343h-19.098c-3.383 0-6.15 2.767-6.15 6.15v18.953c0 3.383 2.767 6.15 6.15 6.15h19.098c3.383 0 6.151-2.767 6.151-6.15v-18.953c0-3.383-2.768-6.15-6.151-6.15zM27.649 22.617h-23.498v-10.096c1.513 0 3.066 0.279 4.421 0.726-1.513 0.911-2.607 2.175-2.607 3.737 0 2.975 2.946 3.737 4.061 3.737s4.063-0.762 4.063-3.737c0-1.562-1.115-2.826-2.628-3.737 1.374-0.465 2.927-0.726 4.441-0.726 1.512 0 3.066 0.261 4.439 0.726-1.513 0.911-2.628 2.175-2.628 3.737 0 2.975 2.946 3.737 4.063 3.737s4.062-0.762 4.062-3.737c0-1.562-1.095-2.826-2.608-3.737 1.354-0.447 2.907-0.726 4.42-0.726v10.096zM10.026 13.804c1.772 0.819 2.867 1.971 2.867 3.18 0 2.046-2.091 2.621-2.867 2.621s-2.868-0.575-2.868-2.621c0-1.208 1.116-2.344 2.868-3.18zM21.775 13.804c1.752 0.836 2.866 1.971 2.866 3.18 0 2.046-2.090 2.621-2.866 2.621s-2.868-0.575-2.868-2.621c0-1.208 1.096-2.361 2.868-3.18zM27.649 11.405c-2.011 0-4.122 0.372-5.854 1.097-1.773-0.725-3.884-1.097-5.895-1.097-2.013 0-4.122 0.372-5.895 1.097-1.732-0.725-3.843-1.097-5.854-1.097v-2.082h23.497v2.082z"></path>
</svg>
