<!-- Generated by IcoMoon.io -->
<svg version="1.1" xmlns="http://www.w3.org/2000/svg" width="32" height="32" viewBox="0 0 32 32">
<title>freedial-o-b</title>
<path d="M29.741 5.734h-27.472c-1.073 0-1.951 0.878-1.951 1.951v16.572c0 1.073 0.878 1.951 1.951 1.951h27.472c1.073 0 1.951-0.878 1.951-1.951v-16.572c0-1.073-0.878-1.951-1.951-1.951zM28.387 23.283h-25.047v-10.762c1.613 0 3.269 0.298 4.712 0.774-1.614 0.971-2.78 2.318-2.78 3.983 0 3.171 3.14 3.983 4.33 3.983 1.188 0 4.33-0.812 4.33-3.983 0-1.665-1.187-3.012-2.801-3.983 1.465-0.495 3.121-0.774 4.734-0.774s3.268 0.278 4.732 0.774c-1.613 0.971-2.801 2.318-2.801 3.983 0 3.171 3.14 3.983 4.33 3.983s4.33-0.812 4.33-3.983c0-1.665-1.166-3.012-2.78-3.983 1.443-0.476 3.099-0.774 4.712-0.774v10.762zM9.602 13.889c1.888 0.872 3.056 2.101 3.056 3.389 0 2.181-2.229 2.794-3.056 2.794s-3.057-0.613-3.057-2.794c0-1.288 1.189-2.498 3.057-3.389zM22.126 13.889c1.868 0.892 3.055 2.101 3.055 3.389 0 2.181-2.228 2.794-3.055 2.794s-3.058-0.613-3.058-2.794c-0-1.288 1.169-2.517 3.058-3.389zM28.387 11.331c-2.143 0-4.394 0.396-6.24 1.17-1.89-0.774-4.14-1.17-6.283-1.17-2.145 0-4.394 0.396-6.284 1.17-1.846-0.774-4.096-1.17-6.24-1.17v-2.219h25.047v2.219z"></path>
</svg>
