<!-- Generated by IcoMoon.io -->
<svg version="1.1" xmlns="http://www.w3.org/2000/svg" width="32" height="32" viewBox="0 0 32 32">
<title>freedial-o-m</title>
<path d="M30.623 8.162v0.727c-2.397 0.106-4.75 0.577-6.757 1.357-2.34-0.892-5.104-1.38-7.835-1.38s-5.495 0.489-7.836 1.38c-2.006-0.78-4.36-1.252-6.757-1.357v-0.727h29.185zM16.031 12.415c1.174 0 2.397 0.129 3.576 0.373-1.445 1.325-2.199 2.864-2.199 4.53 0 4.535 4.335 6.002 6.435 6.002s6.434-1.467 6.434-6.002c0-1.669-0.744-3.206-2.171-4.524 0.839-0.174 1.688-0.29 2.517-0.344v11.329h-29.185v-11.329c0.828 0.054 1.678 0.17 2.517 0.344-1.427 1.318-2.171 2.855-2.171 4.524 0 4.535 4.335 6.002 6.434 6.002s6.434-1.467 6.434-6.002c0-1.666-0.753-3.206-2.199-4.53 1.18-0.243 2.403-0.372 3.577-0.372zM23.837 14.24c1.754 0.927 2.786 2.059 2.786 3.077 0 2.271-2.752 2.454-2.78 2.454s-2.783-0.183-2.783-2.454c0-1.046 1.028-2.177 2.776-3.077zM8.225 14.24c1.746 0.9 2.774 2.031 2.774 3.077 0 2.271-2.753 2.454-2.781 2.454s-2.782-0.183-2.782-2.454c-0-1.018 1.033-2.15 2.788-3.077zM31.655 7.13h-31.25v2.769c2.675 0 5.482 0.495 7.785 1.46 2.358-0.965 5.164-1.46 7.84-1.46 2.675 0 5.482 0.495 7.839 1.46 2.303-0.965 5.111-1.46 7.785-1.46v-2.769h0zM31.655 11.383c-2.012 0-4.078 0.372-5.879 0.965 2.014 1.212 3.468 2.892 3.468 4.97 0 3.957-3.918 4.97-5.401 4.97-1.484 0-5.402-1.013-5.402-4.97 0-2.077 1.482-3.758 3.495-4.97-1.827-0.618-3.893-0.965-5.905-0.965s-4.078 0.348-5.906 0.965c2.014 1.212 3.496 2.892 3.496 4.97 0 3.957-3.919 4.97-5.402 4.97-1.484 0-5.402-1.013-5.402-4.97 0-2.077 1.455-3.758 3.468-4.97-1.801-0.594-3.867-0.965-5.879-0.965v13.427h31.25v-13.427h-0zM23.843 13.089c-2.357 1.089-3.815 2.622-3.815 4.229 0 2.721 2.782 3.486 3.815 3.486s3.812-0.765 3.812-3.486c0-1.607-1.482-3.117-3.812-4.229v0zM8.218 13.089c-2.33 1.112-3.814 2.622-3.814 4.229 0 2.721 2.782 3.486 3.814 3.486s3.813-0.765 3.813-3.486c0-1.607-1.457-3.14-3.813-4.229v0z"></path>
</svg>
