<!-- Generated by IcoMoon.io -->
<svg version="1.1" xmlns="http://www.w3.org/2000/svg" width="32" height="32" viewBox="0 0 32 32">
<title>github-logo</title>
<path d="M16 3.395c-7.137 0-12.924 5.786-12.924 12.924 0 5.71 3.703 10.555 8.838 12.264 0.646 0.12 0.883-0.28 0.883-0.622 0-0.308-0.012-1.326-0.018-2.406-3.596 0.782-4.354-1.525-4.354-1.525-0.588-1.494-1.435-1.891-1.435-1.891-1.173-0.802 0.089-0.786 0.089-0.786 1.297 0.091 1.981 1.332 1.981 1.332 1.153 1.976 3.023 1.404 3.761 1.074 0.116-0.835 0.451-1.405 0.821-1.728-2.871-0.327-5.888-1.435-5.888-6.387 0-1.411 0.505-2.564 1.332-3.469-0.134-0.326-0.577-1.64 0.125-3.42 0 0 1.086-0.347 3.555 1.325 1.031-0.286 2.136-0.43 3.235-0.435 1.098 0.005 2.205 0.149 3.238 0.435 2.467-1.672 3.551-1.325 3.551-1.325 0.704 1.78 0.261 3.095 0.127 3.42 0.828 0.905 1.33 2.058 1.33 3.469 0 4.964-3.023 6.057-5.901 6.377 0.464 0.401 0.877 1.188 0.877 2.393 0 1.729-0.015 3.121-0.015 3.547 0 0.344 0.233 0.747 0.888 0.62 5.132-1.711 8.831-6.554 8.831-12.262 0-7.138-5.786-12.924-12.924-12.924z"></path>
</svg>
