<!-- Generated by IcoMoon.io -->
<svg version="1.1" xmlns="http://www.w3.org/2000/svg" width="32" height="32" viewBox="0 0 32 32">
<title>googleplus</title>
<path d="M9.61 14.126v3.837h6.342c-0.254 1.647-1.915 4.825-6.342 4.825-3.816 0-6.932-3.164-6.932-7.063s3.116-7.063 6.932-7.063c2.176 0 3.624 0.927 4.455 1.723l3.034-2.924c-1.949-1.819-4.475-2.924-7.488-2.924-6.184 0.007-11.181 5.004-11.181 11.188s4.997 11.181 11.181 11.181c6.452 0 10.735-4.537 10.735-10.927 0-0.734-0.082-1.297-0.178-1.853h-10.556z"></path>
<path d="M33.571 13.804h-3.295v-3.295h-3.295v3.295h-3.295v3.295h3.295v3.295h3.295v-3.295h3.295z"></path>
</svg>
