<!-- Generated by IcoMoon.io -->
<svg version="1.1" xmlns="http://www.w3.org/2000/svg" width="32" height="32" viewBox="0 0 32 32">
<title>google-plus-logo</title>
<path d="M11.954 15.533v2.658h4.397c-0.177 1.141-1.329 3.344-4.397 3.344-2.647 0-4.806-2.193-4.806-4.895s2.159-4.895 4.806-4.895c1.506 0 2.514 0.642 3.090 1.196l2.104-2.027c-1.351-1.262-3.101-2.027-5.194-2.027-4.286 0-7.752 3.466-7.752 7.752s3.466 7.752 7.752 7.752c4.474 0 7.442-3.145 7.442-7.575 0-0.509-0.055-0.897-0.122-1.285h-7.32z"></path>
<path d="M28.566 15.533h-2.215v-2.215h-2.215v2.215h-2.215v2.215h2.215v2.215h2.215v-2.215h2.215z"></path>
</svg>
