<!-- Generated by IcoMoon.io -->
<svg version="1.1" xmlns="http://www.w3.org/2000/svg" width="32" height="32" viewBox="0 0 32 32">
<title>hatena</title>
<path d="M23.866 24.349c0 0 0 0 0 0 0 1.743 1.413 3.156 3.156 3.156s3.156-1.413 3.156-3.156c0 0 0 0 0 0s0 0 0 0c0-1.743-1.413-3.156-3.156-3.156s-3.156 1.413-3.156 3.156c0 0 0 0 0 0zM24.148 3.729h5.748v15.699h-5.748zM15.405 14.291c0 0 3.972-0.25 3.972-5.010 0-5.511-4.974-5.539-7.813-5.539-1.842 0-2.772 0-3.994 0l-5.748-0v23.776h5.748c1.019 0 2.296 0 3.911 0 7.849 0 9.186-4.291 9.186-7.047s-1.336-5.344-5.261-6.179zM7.879 8.22c2.191 0 2.092 0 2.672 0 0.501 0 2.672 0.214 2.672 2.28 0 2.442-1.879 2.359-3.131 2.359s-0.626 0-2.213 0l-0-4.64zM11.010 22.462c-1.462 0-2.046 0-3.131 0l-0-5.219c0 0 1.378 0 3.194 0s3.194 0.376 3.194 2.61-1.795 2.609-3.256 2.609z"></path>
</svg>
