<!-- Generated by IcoMoon.io -->
<svg version="1.1" xmlns="http://www.w3.org/2000/svg" width="32" height="32" viewBox="0 0 32 32">
<title>hatebu-logo</title>
<path d="M23.556 7.114h4.412v13.027h-4.412v-13.027z"></path>
<path d="M28.374 24.105c0 1.408-1.146 2.55-2.561 2.55s-2.561-1.142-2.561-2.55c0-1.408 1.146-2.55 2.561-2.55s2.561 1.142 2.561 2.55z"></path>
<path d="M4.744 7.063v19.592h5.020v-0.009c1.069 0.005 2.301 0.009 4.133 0.009 3.431 0 6.212-2.307 6.212-5.378 0-2.217-0.695-3.561-1.819-4.352-0.66-0.464-1.468-0.736-2.369-0.882 0.634-0.079 1.209-0.251 1.688-0.614 1.124-0.852 1.642-1.995 1.642-3.358 0-1.968-0.644-3.161-1.768-3.862s-2.576-1.113-4.291-1.113c-1.447 0-2.513-0.004-3.426-0.008v-0.025zM9.764 11.456l2.409-0.025c0 0 2.054 0.025 2.054 2.121 0 1.641-2.003 1.691-2.003 1.691h-2.459zM9.764 18.829h3.012c0 0 2.236 0 2.236 2.319 0 1.816-2.356 1.872-2.356 1.872h-2.892z"></path>
</svg>
