<!-- Generated by IcoMoon.io -->
<svg version="1.1" xmlns="http://www.w3.org/2000/svg" width="32" height="32" viewBox="0 0 32 32">
<title>laptop-square</title>
<path d="M8.248 8.529h15.393v10.262h-15.393v-10.262z"></path>
<path d="M25.559 0.423h-19.306c-3.419 0-6.217 2.798-6.217 6.217v19.159c0 3.419 2.798 6.217 6.217 6.217h19.306c3.419 0 6.217-2.798 6.217-6.217v-19.159c0-3.419-2.798-6.217-6.217-6.217zM6.421 8.656c0-0.892 0.73-1.622 1.622-1.622h15.607c0.892 0 1.623 0.73 1.623 1.622v10.594c0 0.892-0.73 1.622-1.623 1.622h-15.607c-0.892 0-1.622-0.73-1.622-1.622v-10.594zM28.811 23.377c0 1.115-0.913 2.027-2.028 2.027h-21.754c-1.115 0-2.028-0.912-2.028-2.027v-1.225h11.138v1.376h3.533v-1.376h11.138v1.225z"></path>
</svg>
