<!-- Generated by IcoMoon.io -->
<svg version="1.1" xmlns="http://www.w3.org/2000/svg" width="32" height="32" viewBox="0 0 32 32">
<title>laptop-o-m</title>
<path d="M7.869 18.982h16.473c0.384 0 0.696-0.312 0.696-0.696v-10.417c0-0.384-0.312-0.696-0.696-0.696h-16.473c-0.384 0-0.696 0.312-0.696 0.696v10.417c0 0.384 0.311 0.696 0.696 0.696zM8.564 8.565h15.082v9.025h-15.082v-9.025z"></path>
<path d="M6.837 21.95h18.307c1.433 0 2.599-1.166 2.599-2.599v-12.426c0-1.433-1.166-2.598-2.599-2.598h-18.307c-1.433 0-2.599 1.166-2.599 2.598v12.426c0 1.433 1.166 2.599 2.599 2.599zM5.63 6.926c0-0.665 0.542-1.207 1.208-1.207h18.307c0.666 0 1.208 0.542 1.208 1.207v12.426c0 0.666-0.542 1.208-1.208 1.208h-18.307c-0.666 0-1.208-0.542-1.208-1.208v-12.426z"></path>
<path d="M31.197 22.904h-13.065c-0.384 0-0.696 0.312-0.696 0.696v0.918h-2.753v-0.918c0-0.384-0.312-0.696-0.696-0.696h-13.065c-0.384 0-0.696 0.312-0.696 0.696v1.438c0 1.695 1.379 3.074 3.074 3.074h25.518c1.695 0 3.074-1.379 3.074-3.074v-1.438c0-0.384-0.312-0.696-0.696-0.696zM30.501 25.037c0 0.928-0.755 1.682-1.683 1.682h-25.518c-0.928 0-1.683-0.755-1.683-1.682v-0.742h11.674v0.918c0 0.384 0.312 0.696 0.696 0.696h4.144c0.384 0 0.696-0.312 0.696-0.696v-0.918h11.674v0.742z"></path>
</svg>
