<!-- Generated by IcoMoon.io -->
<svg version="1.1" xmlns="http://www.w3.org/2000/svg" width="32" height="32" viewBox="0 0 32 32">
<title>laptop-o-b</title>
<path d="M24.934 21.123h-17.903c-1.602 0-2.905-1.303-2.905-2.904v-12.151c0-1.601 1.303-2.904 2.905-2.904h17.903c1.601 0 2.905 1.303 2.905 2.904v12.151c0 1.601-1.303 2.904-2.905 2.904zM7.031 5.251c-0.451 0-0.818 0.367-0.818 0.817v12.151c0 0.45 0.367 0.817 0.818 0.817h17.903c0.451 0 0.818-0.367 0.818-0.817v-12.152c0-0.451-0.367-0.817-0.818-0.817h-17.903zM23.244 17.618h-14.3c-0.576 0-1.043-0.467-1.043-1.043v-8.834c0-0.576 0.467-1.043 1.043-1.043h14.3c0.576 0 1.043 0.467 1.043 1.043v8.834c0 0.577-0.467 1.043-1.043 1.043zM9.987 15.531h12.213v-6.747h-12.213v6.747z"></path>
<path d="M28.526 29.274h-24.953c-1.858 0-3.37-1.512-3.37-3.369v-2.699c0-0.576 0.467-1.043 1.043-1.043h12.776c0.576 0 1.043 0.467 1.043 1.043v0.535h1.966v-0.535c0-0.576 0.467-1.043 1.043-1.043h12.776c0.576 0 1.043 0.467 1.043 1.043v2.699c0 1.858-1.511 3.369-3.369 3.369zM2.29 24.249v1.656c0 0.707 0.575 1.282 1.283 1.282h24.953c0.707 0 1.282-0.575 1.282-1.282v-1.656h-10.689v0.535c0 0.576-0.467 1.043-1.043 1.043h-4.053c-0.576 0-1.043-0.467-1.043-1.043v-0.535h-10.689z"></path>
</svg>
