<!-- Generated by IcoMoon.io -->
<svg version="1.1" xmlns="http://www.w3.org/2000/svg" width="32" height="32" viewBox="0 0 32 32">
<title>laptop</title>
<path d="M6.469 21.843h19.072c1.090 0 1.983-0.892 1.983-1.982v-12.945c0-1.090-0.892-1.982-1.983-1.982h-19.072c-1.090 0-1.983 0.892-1.983 1.982v12.945c0 1.090 0.892 1.982 1.983 1.982zM6.719 6.76h18.81v12.54h-18.81v-12.54z"></path>
<path d="M18.235 23.408v1.681h-4.318v-1.681h-13.611v1.497c0 1.363 1.115 2.478 2.478 2.478h26.584c1.363 0 2.478-1.115 2.478-2.478v-1.497h-13.611z"></path>
</svg>
