<!-- Generated by IcoMoon.io -->
<svg version="1.1" xmlns="http://www.w3.org/2000/svg" width="32" height="32" viewBox="0 0 32 32">
<title>laptop-o-l</title>
<path d="M25.273 22.255h-18.745c-1.266 0-2.296-1.030-2.296-2.296v-12.722c0-1.266 1.030-2.296 2.296-2.296h18.745c1.266 0 2.296 1.030 2.296 2.296v12.723c-0 1.266-1.031 2.296-2.296 2.296zM6.527 5.635c-0.882 0-1.601 0.718-1.601 1.601v12.723c0 0.882 0.718 1.601 1.601 1.601h18.745c0.882 0 1.601-0.718 1.601-1.601v-12.723c0-0.882-0.718-1.601-1.601-1.601h-18.745zM24.866 19.478h-17.698c-0.184 0-0.333-0.149-0.333-0.333v-11.799c0-0.184 0.149-0.333 0.333-0.333h17.698c0.184 0 0.333 0.149 0.333 0.333v11.799c0 0.184-0.149 0.333-0.333 0.333zM7.501 18.812h17.032v-11.134h-17.032v11.134z"></path>
<path d="M29.033 27.997h-26.127c-1.535 0-2.783-1.248-2.783-2.783v-1.471c0-0.192 0.155-0.348 0.348-0.348h13.377c0.192 0 0.348 0.155 0.348 0.348v1.305h3.548v-1.305c0-0.192 0.155-0.348 0.348-0.348h13.377c0.192 0 0.348 0.155 0.348 0.348v1.471c0 1.535-1.249 2.783-2.783 2.783zM0.819 24.091v1.123c0 1.151 0.936 2.087 2.088 2.087h26.127c1.151 0 2.088-0.936 2.088-2.087v-1.123h-12.681v1.305c0 0.192-0.155 0.348-0.348 0.348h-4.244c-0.192 0-0.348-0.155-0.348-0.348v-1.305h-12.681z"></path>
</svg>
