<!-- Generated by IcoMoon.io -->
<svg version="1.1" xmlns="http://www.w3.org/2000/svg" width="32" height="32" viewBox="0 0 32 32">
<title>line</title>
<path d="M15.931 1.95c-7.96 0-14.412 5.28-14.412 11.795 0 5.849 5.204 10.701 12.029 11.631-0.002 0.001-0.005 0.003-0.005 0.003 0.030 0.003 0.059 0.007 0.089 0.010 0.075 0.010 0.15 0.019 0.225 0.028 0.749 0.103 1.105 0.284 1.093 1.1-0.013 0.923-0.374 1.605-0.589 2.047s-0.669 2.247 1.391 1.124c1.586-0.865 9.375-4.674 12.878-10.362 0.927-1.411 1.51-2.995 1.666-4.676 0.005-0.052 0.010-0.104 0.015-0.155 0.006-0.081 0.012-0.162 0.016-0.243 0.009-0.167 0.016-0.335 0.016-0.504 0-6.514-6.453-11.795-14.412-11.795zM9.885 17.149h-2.745c-0.406 0-0.734-0.329-0.734-0.734l-0-5.567c0-0.406 0.329-0.734 0.734-0.734s0.734 0.329 0.734 0.734l0 4.832h2.010c0.406 0 0.734 0.329 0.734 0.734s-0.328 0.735-0.735 0.735zM13.016 16.415c0 0.406-0.329 0.734-0.734 0.734s-0.734-0.329-0.734-0.734v-5.567c0-0.406 0.329-0.734 0.734-0.734s0.734 0.329 0.734 0.734v5.567zM19.721 16.934c-0.008 0.008-0.018 0.014-0.027 0.022-0.027 0.024-0.054 0.049-0.084 0.069-0.022 0.014-0.044 0.024-0.067 0.037-0.020 0.010-0.038 0.023-0.059 0.031-0.027 0.011-0.055 0.018-0.083 0.026-0.018 0.005-0.036 0.012-0.055 0.016-0.048 0.009-0.096 0.015-0.144 0.015h-0c-0.003 0-0.005-0.001-0.007-0.001-0.046-0.001-0.091-0.005-0.136-0.014-0.024-0.005-0.046-0.014-0.069-0.021s-0.046-0.012-0.068-0.021c-0.027-0.011-0.052-0.026-0.076-0.040-0.017-0.009-0.034-0.017-0.050-0.027-0.091-0.061-0.165-0.142-0.221-0.236l-2.851-3.766v3.391c0 0.406-0.329 0.734-0.734 0.734s-0.734-0.329-0.734-0.734v-5.567c0-0.013 0.003-0.024 0.004-0.037 0.002-0.036 0.004-0.071 0.011-0.106 0.005-0.027 0.015-0.053 0.023-0.079 0.006-0.020 0.010-0.039 0.018-0.058 0.012-0.030 0.029-0.058 0.045-0.086 0.008-0.014 0.014-0.028 0.022-0.041 0.054-0.081 0.124-0.151 0.205-0.205 0.014-0.009 0.030-0.016 0.044-0.024 0.027-0.015 0.053-0.031 0.082-0.043 0.021-0.009 0.043-0.014 0.066-0.021 0.023-0.007 0.047-0.016 0.071-0.021 0.043-0.008 0.086-0.012 0.13-0.013 0.005-0 0.009-0.001 0.014-0.001 0.002 0 0.005 0.001 0.008 0.001 0.046 0 0.091 0.005 0.136 0.014 0.022 0.005 0.043 0.013 0.064 0.019 0.024 0.007 0.049 0.013 0.073 0.023 0.025 0.010 0.048 0.024 0.071 0.037 0.019 0.010 0.038 0.019 0.056 0.030 0.040 0.027 0.078 0.057 0.112 0.092 0 0 0 0 0 0v0c0.042 0.042 0.077 0.091 0.108 0.143l2.851 3.767 0-3.39c0-0.406 0.329-0.734 0.734-0.734s0.734 0.329 0.734 0.734v5.565c0 0.049-0.005 0.099-0.015 0.147-0.003 0.016-0.010 0.031-0.014 0.047-0.008 0.031-0.016 0.061-0.028 0.090-0.008 0.020-0.020 0.037-0.029 0.056-0.012 0.023-0.023 0.048-0.038 0.070-0.020 0.029-0.043 0.056-0.066 0.081-0.009 0.010-0.016 0.021-0.025 0.030zM24.536 12.897c0.406 0 0.735 0.329 0.735 0.734s-0.329 0.734-0.735 0.734h-2.010v1.314h2.010c0.406 0 0.735 0.329 0.735 0.734s-0.329 0.734-0.735 0.734l-2.745 0c-0.406 0-0.735-0.329-0.735-0.734l-0-5.567c0-0.406 0.329-0.734 0.735-0.734h2.745c0.406 0 0.735 0.329 0.735 0.734s-0.329 0.734-0.735 0.734h-2.010v1.314h2.011z"></path>
</svg>
