<!-- Generated by IcoMoon.io -->
<svg version="1.1" xmlns="http://www.w3.org/2000/svg" width="32" height="32" viewBox="0 0 32 32">
<title>line-logo</title>
<path d="M23.732 14.547c0.345 0 0.625 0.281 0.625 0.628s-0.281 0.627-0.625 0.627h-1.744v1.123h1.744c0.345 0 0.625 0.282 0.625 0.628s-0.281 0.628-0.625 0.628h-2.37c-0.344 0-0.625-0.282-0.625-0.628v-4.757c0-0.346 0.28-0.628 0.625-0.628h2.37c0.345 0 0.625 0.282 0.625 0.628s-0.281 0.627-0.625 0.627h-1.744v1.124h1.744zM19.897 17.552c0 0.271-0.171 0.51-0.427 0.595-0.064 0.022-0.131 0.033-0.199 0.033-0.195 0-0.382-0.094-0.499-0.251l-2.428-3.319v2.942c0 0.346-0.28 0.628-0.626 0.628s-0.625-0.282-0.625-0.628v-4.757c0-0.271 0.172-0.51 0.427-0.596 0.065-0.022 0.132-0.032 0.199-0.032 0.195 0 0.383 0.094 0.5 0.251l2.428 3.319v-2.943c0-0.346 0.281-0.628 0.625-0.628s0.625 0.282 0.625 0.628v4.757zM14.194 17.552c0 0.346-0.28 0.628-0.625 0.628s-0.625-0.282-0.625-0.628v-4.757c0-0.346 0.28-0.628 0.625-0.628s0.625 0.282 0.625 0.628v4.757zM11.743 18.18h-2.37c-0.345 0-0.625-0.282-0.625-0.628v-4.757c0-0.346 0.28-0.628 0.625-0.628s0.626 0.282 0.626 0.628v4.129h1.744c0.345 0 0.625 0.282 0.625 0.628s-0.28 0.628-0.625 0.628zM28.336 14.993c0-5.356-5.35-9.714-11.925-9.714s-11.925 4.358-11.925 9.714c0 4.802 4.242 8.824 9.974 9.585 0.388 0.084 0.917 0.257 1.050 0.59 0.121 0.303 0.079 0.776 0.039 1.082 0 0-0.14 0.845-0.17 1.025-0.052 0.303-0.24 1.183 1.033 0.645s6.867-4.059 9.369-6.95l-0.001 0c1.729-1.902 2.557-3.833 2.557-5.977z"></path>
</svg>
