<!-- Generated by IcoMoon.io -->
<svg version="1.1" xmlns="http://www.w3.org/2000/svg" width="32" height="32" viewBox="0 0 32 32">
<title>linkedin-logo</title>
<path d="M12.615 12.615h4.683v2.401h0.067c0.652-1.169 2.247-2.401 4.623-2.401 4.943 0 5.857 3.077 5.857 7.080v8.151h-4.882v-7.226c0-1.724-0.035-3.941-2.539-3.941-2.542 0-2.93 1.877-2.93 3.815v7.351h-4.88v-15.231z"></path>
<path d="M4.154 12.615h5.077v15.231h-5.077v-15.231z"></path>
<path d="M9.231 8.385c0 1.402-1.137 2.538-2.538 2.538s-2.538-1.137-2.538-2.538c0-1.402 1.137-2.538 2.538-2.538s2.538 1.137 2.538 2.538z"></path>
</svg>
