<!-- Generated by IcoMoon.io -->
<svg version="1.1" xmlns="http://www.w3.org/2000/svg" width="32" height="32" viewBox="0 0 32 32">
<title>mobile-o-m</title>
<path d="M20.986 31.92h-10.838c-2.417 0-4.383-1.966-4.383-4.383v-22.98c0-2.417 1.966-4.383 4.383-4.383h10.838c2.417 0 4.384 1.966 4.384 4.383v22.98c0 2.417-1.967 4.383-4.384 4.383zM10.149 1.566c-1.65 0-2.992 1.342-2.992 2.992v22.98c0 1.65 1.342 2.992 2.992 2.992h10.838c1.65 0 2.993-1.342 2.993-2.992v-22.98c0-1.65-1.342-2.992-2.993-2.992h-10.838zM15.568 30.13c-1.4 0-2.539-1.139-2.539-2.539s1.139-2.539 2.539-2.539c1.4 0 2.538 1.139 2.538 2.539s-1.138 2.539-2.538 2.539zM15.568 26.444c-0.633 0-1.148 0.515-1.148 1.147s0.515 1.147 1.148 1.147c0.632 0 1.147-0.515 1.147-1.147s-0.514-1.147-1.147-1.147zM21.791 24.513h-12.447c-0.384 0-0.696-0.312-0.696-0.696v-16.66c0-0.384 0.312-0.696 0.696-0.696h12.447c0.384 0 0.696 0.312 0.696 0.696v16.66c0 0.384-0.312 0.696-0.696 0.696zM10.040 23.122h11.056v-15.269h-11.056v15.269zM17.709 5.454h-4.282c-0.384 0-0.696-0.312-0.696-0.696v-1.085c0-0.384 0.312-0.696 0.696-0.696h4.282c0.384 0 0.696 0.312 0.696 0.696v1.085c0 0.384-0.312 0.696-0.696 0.696z"></path>
</svg>
