<!-- Generated by IcoMoon.io -->
<svg version="1.1" xmlns="http://www.w3.org/2000/svg" width="32" height="32" viewBox="0 0 32 32">
<title>mobile</title>
<path d="M21.569 0.213h-11.307c-2.115 0-3.847 1.731-3.847 3.847v23.975c0 2.116 1.732 3.847 3.847 3.847h11.307c2.116 0 3.848-1.731 3.848-3.847v-23.975c0-2.116-1.732-3.847-3.848-3.847zM13.682 3.549h4.467v1.131h-4.467v-1.131zM15.916 30.864c-1.063 0-1.923-0.861-1.923-1.923s0.861-1.923 1.923-1.923c1.062 0 1.922 0.861 1.922 1.923s-0.861 1.923-1.922 1.923zM22.985 25.718h-14.138v-18.945h14.138v18.945z"></path>
</svg>
