<!-- Generated by IcoMoon.io -->
<svg version="1.1" xmlns="http://www.w3.org/2000/svg" width="32" height="32" viewBox="0 0 32 32">
<title>mobile-square</title>
<path d="M17.391 25.658c0 0.795-0.644 1.439-1.439 1.439s-1.439-0.644-1.439-1.439c0-0.795 0.644-1.439 1.439-1.439s1.439 0.644 1.439 1.439z"></path>
<path d="M10.662 9.068h10.581v14.178h-10.581v-14.178z"></path>
<path d="M14.28 6.655h3.343v0.847h-3.343v-0.847z"></path>
<path d="M25.605 0.213h-19.306c-3.419 0-6.217 2.798-6.217 6.217v19.159c0 3.419 2.798 6.217 6.217 6.217h19.306c3.419 0 6.217-2.798 6.217-6.217v-19.159c0-3.419-2.798-6.217-6.217-6.217zM23.062 24.98c0 1.584-1.296 2.879-2.88 2.879h-8.461c-1.584 0-2.88-1.296-2.88-2.879v-17.942c0-1.584 1.296-2.879 2.88-2.879h8.461c1.584 0 2.88 1.296 2.88 2.879v17.942z"></path>
</svg>
