<!-- Generated by IcoMoon.io -->
<svg version="1.1" xmlns="http://www.w3.org/2000/svg" width="32" height="32" viewBox="0 0 32 32">
<title>mobile-o-l</title>
<path d="M21.526 31.879h-11.056c-2.266 0-4.109-1.844-4.109-4.11v-23.443c0-2.266 1.844-4.11 4.109-4.11h11.056c2.267 0 4.111 1.843 4.111 4.11v23.443c0 2.266-1.843 4.11-4.111 4.11zM10.47 0.911c-1.882 0-3.414 1.531-3.414 3.414v23.443c0 1.882 1.531 3.414 3.414 3.414h11.056c1.883 0 3.415-1.532 3.415-3.414v-23.443c0-1.882-1.532-3.414-3.415-3.414h-11.056zM15.999 30.883c-1.229 0-2.228-0.999-2.228-2.228s0.999-2.227 2.228-2.227c1.228 0 2.227 0.999 2.227 2.227s-0.999 2.228-2.227 2.228zM15.999 27.123c-0.845 0-1.533 0.687-1.533 1.532s0.688 1.532 1.533 1.532c0.845 0 1.532-0.687 1.532-1.532s-0.688-1.532-1.532-1.532zM22.912 25.851h-13.825c-0.192 0-0.348-0.155-0.348-0.348v-18.525c0-0.192 0.155-0.348 0.348-0.348h13.825c0.192 0 0.348 0.155 0.348 0.348v18.525c0 0.192-0.156 0.348-0.348 0.348zM9.434 25.155h13.13v-17.83h-13.13v17.83zM18.183 5.28h-4.369c-0.192 0-0.348-0.155-0.348-0.348v-1.106c0-0.192 0.155-0.348 0.348-0.348h4.369c0.192 0 0.348 0.156 0.348 0.348v1.106c0 0.192-0.155 0.347-0.348 0.347zM14.161 4.584h3.673v-0.41h-3.673v0.41z"></path>
</svg>
