<!-- Generated by IcoMoon.io -->
<svg version="1.1" xmlns="http://www.w3.org/2000/svg" width="32" height="32" viewBox="0 0 32 32">
<title>mobile-o-b</title>
<path d="M20.459 0.329h-10.479c-2.542 0-4.609 2.067-4.609 4.609v22.219c0 2.542 2.067 4.609 4.609 4.609h10.479c2.542 0 4.61-2.067 4.61-4.609v-22.219c0-2.541-2.068-4.609-4.61-4.609zM22.982 27.157c0 1.391-1.132 2.522-2.523 2.522h-10.479c-1.391 0-2.522-1.131-2.522-2.522v-22.219c0-1.391 1.131-2.522 2.522-2.522h10.479c1.391 0 2.523 1.131 2.523 2.522v22.219z"></path>
<path d="M13.15 6.211h4.141c0.48 0 0.87-0.389 0.87-0.87v-1.048c0-0.48-0.389-0.87-0.87-0.87h-4.141c-0.48 0-0.87 0.389-0.87 0.87v1.048c0 0.48 0.389 0.87 0.87 0.87z"></path>
<path d="M15.22 24.145c-1.462 0-2.652 1.19-2.652 2.651s1.19 2.651 2.652 2.651c1.462 0 2.651-1.19 2.651-2.651s-1.189-2.651-2.651-2.651zM15.22 27.709c-0.503 0-0.913-0.409-0.913-0.912s0.409-0.912 0.913-0.912c0.503 0 0.912 0.409 0.912 0.912s-0.409 0.912-0.912 0.912z"></path>
<path d="M20.293 7.062h-10.146c-0.576 0-1.043 0.467-1.043 1.043v14.783c0 0.576 0.467 1.043 1.043 1.043h10.146c0.576 0 1.043-0.467 1.043-1.043v-14.783c0-0.576-0.467-1.043-1.043-1.043zM19.249 21.845h-8.059v-12.696h8.059v12.696z"></path>
</svg>
