<!-- Generated by IcoMoon.io -->
<svg version="1.1" xmlns="http://www.w3.org/2000/svg" width="32" height="32" viewBox="0 0 32 32">
<title>note-logo</title>
<path d="M3.794 29.917l-0.598-0.499-0.047-9.856c-0.037-7.677 0.001-9.974 0.173-10.39 0.213-0.517 5.651-6.501 6.525-7.18 0.412-0.32 0.823-0.338 8.982-0.388 7.567-0.047 8.611-0.021 9.075 0.223 0.288 0.152 0.618 0.426 0.732 0.609 0.277 0.444 0.314 26.604 0.038 27.12-0.465 0.87-0.35 0.862-12.736 0.862h-11.545l-0.598-0.499zM25.221 15.993v-10.623h-13.409l-1.374 1.425c-0.756 0.784-1.858 1.953-2.451 2.597l-1.077 1.172v16.052h18.31v-10.623zM9.572 13.95c-0.653-0.562-0.707-1.709-0.103-2.199 0.457-0.37 1.583-0.572 2.7-0.483l0.787 0.063v-1.351c0-1.887 0.393-2.522 1.568-2.532 0.445-0.004 0.735 0.119 1.036 0.44 0.405 0.431 0.419 0.533 0.419 3.018 0 3.466 0.124 3.34-3.349 3.415-2.513 0.054-2.573 0.047-3.058-0.37z"></path>
</svg>
