<!-- Generated by IcoMoon.io -->
<svg version="1.1" xmlns="http://www.w3.org/2000/svg" width="32" height="32" viewBox="0 0 32 32">
<title>phone-o-m</title>
<path d="M23.794 31.789l-0.176-0.001c-4.579-0.072-9.715-3.754-13.113-6.191-3.858-2.766-8.68-10.726-9.922-15.301-1.394-5.136 2.602-9.173 5.135-9.897 0.415-0.119 0.815-0.179 1.19-0.179 1.773 0 2.465 1.282 2.605 1.592 0.216 0.373 2.214 3.824 2.844 4.894 0.704 1.196 0.31 2.328-0.033 2.808-0.031 0.044-0.068 0.084-0.109 0.119-0.027 0.023-2.422 2.098-3.423 3.035 0.791 2.353 6.625 9.371 11.119 10.772 0.29-0.115 1.034-1.121 1.482-1.727 0.271-0.367 0.552-0.746 0.838-1.099 0.637-0.787 1.359-0.953 1.852-0.953 0.773 0 1.382 0.394 1.579 0.539 1.279 0.681 5.229 2.81 5.844 3.426 1.105 1.104 0.013 3.947-0.116 4.267-0.543 1.358-3.329 3.895-7.598 3.895zM6.908 1.585c-0.248 0-0.522 0.043-0.815 0.126-2.024 0.578-5.338 4.006-4.193 8.226 1.279 4.712 6.111 12.191 9.4 14.549 3.062 2.196 8.187 5.87 12.339 5.935l0.154 0.001c3.856 0 6.019-2.259 6.331-3.037 0.509-1.273 0.603-2.574 0.416-2.797-0.341-0.335-3.098-1.896-5.567-3.21-0.038-0.020-0.075-0.045-0.109-0.072v0c0 0-0.366-0.281-0.781-0.281-0.289 0-0.548 0.146-0.791 0.446-0.267 0.33-0.539 0.697-0.801 1.053-0.944 1.277-1.69 2.285-2.595 2.285 0 0 0 0 0 0-0.113 0-0.224-0.016-0.33-0.049-5.089-1.543-11.83-9.631-12.204-12.216-0.031-0.213 0.041-0.428 0.193-0.58 0.696-0.696 3.202-2.874 3.689-3.297 0.087-0.162 0.295-0.663-0.063-1.271-0.667-1.134-2.867-4.935-2.867-4.935-0.018-0.031-0.033-0.064-0.046-0.097-0.031-0.071-0.358-0.78-1.359-0.78z"></path>
</svg>
