<!-- Generated by IcoMoon.io -->
<svg version="1.1" xmlns="http://www.w3.org/2000/svg" width="32" height="32" viewBox="0 0 32 32">
<title>phone-o-l</title>
<path d="M23.959 31.701l-0.174-0.001c-4.558-0.071-9.739-3.786-13.168-6.245-3.499-2.509-8.629-10.427-9.98-15.404-1.362-5.017 2.527-8.957 4.993-9.661 0.392-0.112 0.768-0.169 1.117-0.169 1.655 0 2.254 1.221 2.347 1.435 0.172 0.297 2.257 3.898 2.907 5.003 0.785 1.334 0.016 2.438-0.017 2.484-0.016 0.022-0.034 0.043-0.055 0.061-0.029 0.025-2.739 2.374-3.653 3.25 0.585 2.331 6.763 9.946 11.675 11.435 0.001 0 0.002 0 0.003 0 0.431 0 1.244-1.099 1.837-1.901 0.274-0.371 0.558-0.754 0.845-1.109 0.446-0.551 1.005-0.842 1.617-0.842 0.714 0 1.287 0.394 1.423 0.496 0.648 0.345 5.277 2.823 5.898 3.443 0.985 0.985-0.183 3.944-0.195 3.974-0.4 1.001-2.903 3.751-7.421 3.751zM6.749 0.916c-0.285 0-0.596 0.048-0.926 0.142-2.236 0.639-5.757 4.228-4.513 8.81 1.319 4.861 6.312 12.582 9.714 15.021 3.358 2.408 8.433 6.047 12.774 6.115l0.162 0.001c4.109 0 6.436-2.465 6.775-3.314 0.483-1.207 0.745-2.828 0.349-3.224-0.422-0.422-3.674-2.225-5.758-3.335-0.019-0.010-0.038-0.023-0.055-0.037-0.003-0.003-0.464-0.364-1.015-0.364-0.401 0-0.763 0.197-1.077 0.584-0.277 0.342-0.556 0.72-0.826 1.085-0.904 1.223-1.618 2.188-2.365 2.188v0c-0.081 0-0.16-0.011-0.236-0.035-5.364-1.627-11.865-9.888-12.195-12.168-0.016-0.109 0.021-0.218 0.098-0.296 0.725-0.725 3.42-3.065 3.784-3.381 0.092-0.15 0.462-0.853-0.035-1.698-0.68-1.155-2.921-5.027-2.921-5.027-0.009-0.016-0.017-0.032-0.024-0.049-0.016-0.039-0.423-1.019-1.71-1.019z"></path>
</svg>
