<!-- Generated by IcoMoon.io -->
<svg version="1.1" xmlns="http://www.w3.org/2000/svg" width="32" height="32" viewBox="0 0 32 32">
<title>phone</title>
<path d="M19.717 24.221c0.78 0.237 1.902-1.698 3.056-3.124s2.581-0.272 2.581-0.272 5.229 2.784 5.84 3.396c0.611 0.611 0.136 2.581-0.272 3.599s-2.92 3.599-7.266 3.531c-4.346-0.068-9.372-3.599-12.971-6.18s-8.557-10.458-9.847-15.212c-1.29-4.754 2.377-8.557 4.754-9.236s3.056 1.087 3.056 1.087 2.241 3.871 2.92 5.025c0.679 1.155 0 2.105 0 2.105s-3.042 2.634-3.803 3.395c0.324 2.239 6.81 10.326 11.952 11.885z"></path>
</svg>
