<!-- Generated by IcoMoon.io -->
<svg version="1.1" xmlns="http://www.w3.org/2000/svg" width="32" height="32" viewBox="0 0 32 32">
<title>phone-square</title>
<path d="M25.751 0.164h-19.306c-3.419 0-6.217 2.798-6.217 6.217v19.159c0 3.419 2.798 6.217 6.217 6.217h19.306c3.419 0 6.217-2.798 6.217-6.217v-19.159c0-3.419-2.798-6.217-6.217-6.217zM26.463 24.070c-0.281 0.702-2.012 2.48-5.007 2.433s-6.458-2.48-8.938-4.258c-2.48-1.778-5.897-7.207-6.786-10.483s1.638-5.896 3.276-6.365c1.638-0.468 2.106 0.749 2.106 0.749s1.544 2.667 2.013 3.463c0.468 0.796 0 1.451 0 1.451s-2.096 1.815-2.621 2.34c0.223 1.543 4.693 7.116 8.236 8.19 0.537 0.163 1.311-1.17 2.106-2.153s1.778-0.187 1.778-0.187 3.603 1.919 4.025 2.34c0.422 0.421 0.094 1.778-0.187 2.48z"></path>
</svg>
