<!-- Generated by IcoMoon.io -->
<svg version="1.1" xmlns="http://www.w3.org/2000/svg" width="32" height="32" viewBox="0 0 32 32">
<title>phone-o-b</title>
<path d="M23.667 31.759l-0.177-0.001c-4.589-0.072-9.67-3.715-13.031-6.125-3.83-2.746-8.615-10.636-9.845-15.169-1.422-5.239 2.668-9.36 5.259-10.101 0.437-0.125 0.859-0.188 1.257-0.188 1.654 0 2.553 1.062 2.855 1.75 0.272 0.469 2.166 3.739 2.77 4.766 0.776 1.319 0.335 2.578-0.048 3.114-0.046 0.064-0.099 0.123-0.159 0.175-0.025 0.022-2.133 1.848-3.178 2.812 0.929 2.214 6.071 8.61 10.433 10.085 0.313-0.254 0.866-1.002 1.247-1.517 0.268-0.362 0.545-0.737 0.829-1.088 0.707-0.873 1.518-1.057 2.073-1.057 0.824 0 1.479 0.404 1.722 0.577 1.586 0.845 5.167 2.787 5.784 3.404 1.208 1.208 0.179 3.993-0.039 4.539-0.505 1.261-3.157 4.024-7.752 4.025zM7.13 2.181c-0.211 0-0.449 0.037-0.706 0.111-1.874 0.536-4.941 3.72-3.875 7.647 1.238 4.559 5.904 11.788 9.078 14.064 2.967 2.127 7.933 5.688 11.894 5.75l0.146 0.001c3.638 0 5.646-2.154 5.89-2.764 0.383-0.958 0.549-2.067 0.444-2.41-0.492-0.393-3.109-1.869-5.335-3.054-0.057-0.030-0.11-0.065-0.16-0.106-0.061-0.046-0.317-0.201-0.555-0.201-0.072 0-0.261 0-0.514 0.313-0.257 0.318-0.521 0.674-0.776 1.019-0.981 1.326-1.755 2.374-2.81 2.374 0 0 0 0-0 0-0.143 0-0.285-0.021-0.421-0.062-5.196-1.575-11.8-9.573-12.186-12.235-0.045-0.313 0.060-0.629 0.283-0.853 0.669-0.669 3.004-2.702 3.581-3.203 0.061-0.139 0.153-0.465-0.082-0.865-0.653-1.111-2.809-4.834-2.809-4.834-0.026-0.046-0.049-0.093-0.068-0.142-0.033-0.074-0.283-0.551-1.018-0.551z"></path>
</svg>
