<!-- Generated by IcoMoon.io -->
<svg version="1.1" xmlns="http://www.w3.org/2000/svg" width="32" height="32" viewBox="0 0 32 32">
<title>pinterest-logo</title>
<path d="M14.893 20.813c-0.628 3.291-1.393 6.445-3.664 8.093-0.7-4.974 1.030-8.708 1.833-12.673-1.37-2.305 0.165-6.946 3.053-5.802 3.554 1.406-3.079 8.571 1.375 9.468 4.649 0.934 6.547-8.067 3.664-10.994-4.165-4.227-12.125-0.097-11.146 5.955 0.238 1.478 1.766 1.928 0.61 3.97-2.666-0.592-3.461-2.694-3.36-5.497 0.166-4.588 4.123-7.8 8.093-8.245 5.020-0.563 9.732 1.843 10.383 6.566 0.733 5.331-2.265 11.104-7.635 10.688-1.455-0.113-2.066-0.834-3.207-1.527z"></path>
</svg>
