<?xml version="1.0" encoding="UTF-8"?>
<svg id="_レイヤー_1" data-name="レイヤー_1" xmlns="http://www.w3.org/2000/svg" version="1.1" viewBox="0 0 27.4 32">
  <!-- Generator: Adobe Illustrator 29.1.0, SVG Export Plug-In . SVG Version: 2.1.0 Build 142)  -->
  <path d="M13.7,2.3C6.1,2.3,0,8.4,0,16s6.1,13.7,13.7,13.7,13.7-6.1,13.7-13.7S21.3,2.3,13.7,2.3ZM13.7,25.7c-5.4,0-9.7-4.4-9.7-9.7S8.4,6.3,13.7,6.3s9.7,4.4,9.7,9.7-4.4,9.7-9.7,9.7Z"/>
  <path d="M19.8,14h-4.1v-4.1c0-.6-.5-1-1-1h-2c-.6,0-1,.5-1,1v4.1h-4.1c-.6,0-1,.5-1,1v2c0,.6.5,1,1,1h4.1v4.1c0,.6.5,1,1,1h2c.6,0,1-.5,1-1v-4.1h4.1c.6,0,1-.5,1-1v-2c0-.6-.5-1-1-1Z"/>
</svg>