<?xml version="1.0" encoding="UTF-8"?>
<svg id="_レイヤー_1" data-name="レイヤー_1" xmlns="http://www.w3.org/2000/svg" version="1.1" viewBox="0 0 32 32">
  <!-- Generator: Adobe Illustrator 29.1.0, SVG Export Plug-In . SVG Version: 2.1.0 Build 142)  -->
  <path d="M23.3,14.2v3.7c0,.3-.3.6-.6.6h-4.3v4.3c0,.3-.3.6-.6.6h-3.7c-.3,0-.6-.3-.6-.6v-4.3h-4.3c-.3,0-.6-.3-.6-.6v-3.7c0-.3.3-.6.6-.6h4.3v-4.3c0-.3.3-.6.6-.6h3.7c.3,0,.6.3.6.6v4.3h4.3c.3,0,.6.3.6.6ZM4.6,25.1h22.9V6.9H4.6s0,18.3,0,18.3ZM32,5.1v21.7c0,1.6-1.3,2.9-2.9,2.9H2.9C1.3,29.7,0,28.4,0,26.9V5.1C0,3.6,1.3,2.3,2.9,2.3h26.3c1.6,0,2.9,1.3,2.9,2.9Z"/>
</svg>