<!-- Generated by IcoMoon.io -->
<svg version="1.1" xmlns="http://www.w3.org/2000/svg" width="32" height="32" viewBox="0 0 32 32">
<title>pocket</title>
<path d="M27.51 3.166h-23.194c-1.577 0-2.856 1.279-2.856 2.856v7.848c0 0.063 0.003 0.121 0.007 0.176-0.004 0.137-0.007 0.276-0.007 0.419 0 7.982 6.471 14.453 14.453 14.453 7.896 0 14.309-6.333 14.447-14.196 0.004-0.053 0.007-0.109 0.007-0.172l-0-8.528c0-1.577-1.279-2.856-2.856-2.856zM23.985 14l-6.471 6.47c-0.437 0.438-1.031 0.62-1.601 0.552-0.57 0.069-1.164-0.114-1.601-0.551l-6.471-6.47c-0.756-0.756-0.756-1.982 0-2.738s1.982-0.756 2.738 0l5.334 5.334 5.334-5.334c0.756-0.756 1.982-0.756 2.738 0s0.756 1.982 0 2.738z"></path>
</svg>
