<!-- Generated by IcoMoon.io -->
<svg version="1.1" xmlns="http://www.w3.org/2000/svg" width="32" height="32" viewBox="0 0 32 32">
<title>print-o-m</title>
<path d="M24.089 30.694h-16.391c-1.575 0-2.856-1.282-2.856-2.856v-1.819h-3.857c-0.38 0-0.688-0.308-0.688-0.688v-8.229c0-2.172 1.768-3.939 3.94-3.939h0.605v-8.572c0-1.575 1.281-2.856 2.856-2.856h11.864c0.025 0 0.050 0.001 0.075 0.004 0.121 0.013 2.976 0.358 5.158 3.183 1.964 2.753 2.115 4.149 2.115 4.512l0.028 3.729h0.61c2.173 0 3.94 1.768 3.94 3.939v8.229c0 0.38-0.308 0.688-0.688 0.688h-3.857v1.819c0 1.575-1.281 2.856-2.856 2.856zM1.674 24.643h3.857c0.38 0 0.688 0.308 0.688 0.688v2.507c0 0.816 0.664 1.48 1.48 1.48h16.391c0.816 0 1.48-0.664 1.48-1.48v-2.507c0-0.38 0.308-0.688 0.688-0.688h3.857v-7.541c0-1.413-1.15-2.563-2.564-2.563h-1.293c-0.378 0-0.685-0.305-0.688-0.683l-0.034-4.417c0-0.017-0.021-1.142-1.844-3.697-1.684-2.179-3.889-2.588-4.176-2.632h-11.817c-0.816 0-1.48 0.664-1.48 1.48v9.26c0 0.38-0.308 0.688-0.688 0.688h-1.293c-1.414 0-2.564 1.15-2.564 2.563v7.541zM23.226 28.045h-14.738c-0.38 0-0.688-0.308-0.688-0.688v-4.262c0-0.38 0.308-0.688 0.688-0.688h14.738c0.38 0 0.688 0.308 0.688 0.688v4.262c0 0.38-0.308 0.688-0.688 0.688zM9.176 26.669h13.362v-2.886h-13.362v2.886zM27.030 19.746c-1.033 0-1.873-0.84-1.873-1.873s0.84-1.874 1.873-1.874c1.033 0 1.873 0.841 1.873 1.874s-0.84 1.873-1.873 1.873zM27.030 17.376c-0.274 0-0.497 0.223-0.497 0.497s0.223 0.497 0.497 0.497c0.274 0 0.496-0.222 0.496-0.497s-0.223-0.497-0.496-0.497zM23.226 14.539h-14.738c-0.38 0-0.688-0.308-0.688-0.688v-8.708c0-0.38 0.308-0.688 0.688-0.688h10.939c0.38 0 0.688 0.308 0.688 0.688v1.995c0 0.817 0.664 1.481 1.481 1.481h1.631c0.38 0 0.688 0.308 0.688 0.688v4.544c0 0.38-0.308 0.688-0.688 0.688zM9.176 13.163h13.362v-3.168h-0.943c-1.575 0-2.857-1.282-2.857-2.857v-1.307h-9.562v7.332z"></path>
</svg>
