<!-- Generated by IcoMoon.io -->
<svg version="1.1" xmlns="http://www.w3.org/2000/svg" width="32" height="32" viewBox="0 0 32 32">
<title>print-square</title>
<path d="M18.706 8.761v-2.022h-9.48v7.49h13.118v-3.702h-1.873c-0.971 0-1.766-0.795-1.766-1.766z"></path>
<path d="M9.227 21.76h13.118v3.473h-13.118v-3.473z"></path>
<path d="M26.201 17.213c0 0.533-0.432 0.965-0.965 0.965s-0.965-0.432-0.965-0.965c0-0.533 0.432-0.965 0.965-0.965s0.965 0.432 0.965 0.965z"></path>
<path d="M25.318 0.588h-19.099c-3.382 0-6.15 2.767-6.15 6.15v18.953c0 3.383 2.767 6.15 6.15 6.15h19.099c3.382 0 6.15-2.767 6.15-6.15v-18.953c0-3.382-2.767-6.15-6.15-6.15zM27.974 23.582h-3.703v2.042c0 0.971-0.795 1.766-1.766 1.766h-13.353c-0.972 0-1.767-0.795-1.767-1.766v-2.042h-3.702v-6.704c0-1.457 1.192-2.649 2.649-2.649h1.053v-7.544c0-0.971 0.795-1.766 1.767-1.766h9.665c0 0 2.167 0.239 3.82 2.379 1.404 1.969 1.607 3.036 1.607 3.333l0.027 3.598h1.054c1.458 0 2.649 1.192 2.649 2.649v6.704z"></path>
</svg>
