<!-- Generated by IcoMoon.io -->
<svg version="1.1" xmlns="http://www.w3.org/2000/svg" width="32" height="32" viewBox="0 0 32 32">
<title>print-o-b</title>
<path d="M27.254 12.866h-0.243l-0.025-3.296c0-0.491-0.207-1.921-2.125-4.609-0.008-0.011-0.015-0.021-0.023-0.032-2.231-2.889-5.175-3.244-5.299-3.257-0.038-0.004-0.075-0.007-0.113-0.007h-11.628c-1.741 0-3.157 1.416-3.157 3.157v8.044h-0.235c-2.327 0-4.22 1.893-4.22 4.219v8.065c0 0.57 0.462 1.032 1.032 1.032h3.423v1.424c0 1.741 1.416 3.157 3.157 3.157h16.065c1.741 0 3.157-1.416 3.157-3.157v-1.424h3.423c0.57 0 1.032-0.462 1.032-1.032v-8.064c0-2.326-1.893-4.219-4.22-4.219zM29.409 24.118h-3.423c-0.57 0-1.032 0.462-1.032 1.032v2.456c0 0.602-0.49 1.093-1.092 1.093h-16.064c-0.602 0-1.092-0.49-1.092-1.093v-2.456c0-0.57-0.462-1.032-1.032-1.032h-3.423v-7.033c0-1.188 0.967-2.155 2.155-2.155h1.268c0.57 0 1.032-0.462 1.032-1.032v-9.076c0-0.603 0.49-1.093 1.092-1.093h11.556c0.339 0.054 2.284 0.443 3.839 2.446 1.673 2.349 1.729 3.388 1.729 3.402l0.033 4.329c0.004 0.567 0.465 1.025 1.032 1.025h1.268c1.188 0 2.155 0.967 2.155 2.155v7.033z"></path>
<path d="M22.595 8.412h-1.179c-0.602 0-1.092-0.49-1.092-1.093v-1.132c0-0.57-0.462-1.032-1.032-1.032h-10.116c-0.57 0-1.032 0.462-1.032 1.032v7.711c0 0.57 0.462 1.032 1.032 1.032h13.419c0.57 0 1.032-0.462 1.032-1.032v-4.454c0-0.57-0.462-1.032-1.032-1.032zM21.563 12.866h-11.355v-5.647h8.052v0.1c0 1.741 1.416 3.157 3.157 3.157h0.147v2.389z"></path>
<path d="M22.595 20.845h-13.419c-0.57 0-1.032 0.462-1.032 1.032v4.177c0 0.57 0.462 1.032 1.032 1.032h13.419c0.57 0 1.032-0.462 1.032-1.032v-4.177c0-0.57-0.462-1.032-1.032-1.032zM21.563 25.022h-11.355v-2.113h11.355v2.113z"></path>
<path d="M25.921 16.452c-1.020 0-1.849 0.83-1.849 1.849s0.83 1.849 1.849 1.849 1.85-0.83 1.85-1.849-0.83-1.849-1.85-1.849z"></path>
</svg>
