<!-- Generated by IcoMoon.io -->
<svg version="1.1" xmlns="http://www.w3.org/2000/svg" width="32" height="32" viewBox="0 0 32 32">
<title>print</title>
<path d="M26.669 8.744c0-0.382-0.261-1.758-2.070-4.293-2.129-2.756-4.92-3.064-4.92-3.064h-12.449c-1.251 0-2.275 1.024-2.275 2.275v9.717h-1.357c-1.877 0-3.413 1.535-3.413 3.412v8.634h4.769v2.631c0 1.251 1.024 2.275 2.275 2.275h17.199c1.251 0 2.275-1.024 2.275-2.275v-2.631h4.769v-8.634c0-1.877-1.536-3.412-3.413-3.412h-1.357l-0.035-4.634zM7.327 3.731h12.21v2.604c0 1.251 1.024 2.275 2.275 2.275h2.413v4.768h-16.897v-9.647zM24.224 27.551h-16.897v-4.472h16.897v4.472zM27.948 18.464c-0.687 0-1.243-0.557-1.243-1.243s0.556-1.244 1.243-1.244 1.243 0.557 1.243 1.244c0 0.686-0.556 1.243-1.243 1.243z"></path>
</svg>
