<!-- Generated by IcoMoon.io -->
<svg version="1.1" xmlns="http://www.w3.org/2000/svg" width="32" height="32" viewBox="0 0 32 32">
<title>print-o-l</title>
<path d="M24.232 30.744h-16.867c-1.416 0-2.569-1.153-2.569-2.569v-2.243h-4.34c-0.186 0-0.337-0.151-0.337-0.337v-8.468c0-2.031 1.653-3.683 3.684-3.683h0.993v-9.192c0-1.417 1.152-2.569 2.569-2.569h12.209c0.012 0 0.024 0.001 0.037 0.002 0.118 0.013 2.905 0.35 5.055 3.134 1.999 2.802 2.1 4.171 2.1 4.417l0.032 4.208h0.996c2.031 0 3.684 1.652 3.684 3.683v8.468c0 0.187-0.151 0.337-0.338 0.337h-4.34v2.243c0 1.416-1.152 2.569-2.569 2.569zM0.793 25.259h4.34c0.186 0 0.337 0.151 0.337 0.337v2.58c0 1.044 0.85 1.893 1.893 1.893h16.867c1.044 0 1.894-0.85 1.894-1.893v-2.58c0-0.186 0.151-0.337 0.337-0.337h4.34v-8.13c0-1.659-1.35-3.009-3.009-3.009h-1.331c-0.185 0-0.337-0.15-0.337-0.335l-0.034-4.545c0-0.054-0.022-1.292-1.967-4.017-1.889-2.446-4.351-2.834-4.572-2.864h-12.188c-1.044 0-1.893 0.85-1.893 1.894v9.529c0 0.186-0.151 0.337-0.337 0.337h-1.331c-1.659 0-3.009 1.35-3.009 3.009v8.131zM24.030 28.018h-16.571c-0.186 0-0.338-0.151-0.338-0.337v-4.386c0-0.186 0.151-0.337 0.338-0.337h16.571c0.186 0 0.337 0.151 0.337 0.337v4.386c0 0.187-0.151 0.337-0.337 0.337zM7.796 27.343h15.896v-3.711h-15.896v3.711zM27.682 19.107c-0.858 0-1.557-0.698-1.557-1.556s0.698-1.557 1.557-1.557c0.858 0 1.556 0.698 1.556 1.557s-0.698 1.556-1.556 1.556zM27.682 16.668c-0.487 0-0.882 0.396-0.882 0.882s0.395 0.882 0.882 0.882c0.486 0 0.882-0.396 0.882-0.882s-0.395-0.882-0.882-0.882zM24.030 14.12h-16.571c-0.186 0-0.338-0.151-0.338-0.337v-9.462c0-0.187 0.151-0.338 0.338-0.338h11.974c0.186 0 0.337 0.151 0.337 0.338v2.554c0 1.044 0.85 1.894 1.894 1.894h2.366c0.186 0 0.337 0.151 0.337 0.337v4.677c0 0.186-0.151 0.338-0.337 0.338zM7.796 13.445h15.896v-4.002h-2.029c-1.417 0-2.569-1.153-2.569-2.569v-2.216h-11.299v8.787z"></path>
</svg>
