<!-- Generated by IcoMoon.io -->
<svg version="1.1" xmlns="http://www.w3.org/2000/svg" width="32" height="32" viewBox="0 0 32 32">
<title>rakuten-logo</title>
<path d="M14.565 31.767c-2.035-0.206-3.873-0.729-5.597-1.592-1.543-0.773-2.754-1.631-3.98-2.821-2.647-2.569-4.258-5.849-4.716-9.605-0.092-0.751-0.079-2.894 0.022-3.643 0.373-2.781 1.33-5.223 2.879-7.354 2.359-3.243 5.794-5.468 9.641-6.245 1.024-0.207 1.669-0.276 2.814-0.301 2.695-0.059 4.949 0.433 7.328 1.599 3.86 1.892 6.747 5.212 8.076 9.286 0.328 1.005 0.515 1.834 0.674 2.993 0.111 0.806 0.112 3.016 0.002 3.842-0.375 2.81-1.379 5.317-3.004 7.502-2.584 3.474-6.376 5.696-10.716 6.279-0.643 0.086-2.792 0.125-3.423 0.061zM13.925 21.878v-2.65h2.252l3.976 5.299h2.009c1.105 0 2.009-0.014 2.009-0.031s-1.067-1.451-2.372-3.186l-2.372-3.155 0.197-0.159c1.165-0.939 1.955-2.268 2.182-3.67 0.087-0.535 0.087-1.422 0.002-1.926-0.364-2.139-1.887-3.916-3.945-4.605-0.84-0.282-0.836-0.281-4.169-0.301l-3.036-0.018v17.052h3.268v-2.65zM13.925 13.38v-2.632h1.227c1.35 0 1.525 0.023 2.032 0.27 0.824 0.401 1.389 1.247 1.45 2.172 0.079 1.192-0.683 2.307-1.839 2.69-0.261 0.086-0.404 0.097-1.579 0.113l-1.292 0.018v-2.632z"></path>
</svg>
