<!-- Generated by IcoMoon.io -->
<svg version="1.1" xmlns="http://www.w3.org/2000/svg" width="32" height="32" viewBox="0 0 32 32">
<title>rakuten-room-logo</title>
<path d="M22.213 28.815c-2.703-0.261-5.207-1.556-7.669-3.967-1.098-1.076-1.982-2.13-2.77-3.308-0.287-0.428-0.526-0.785-0.532-0.791s-0.010 1.529-0.010 3.413v3.426h-6.010v-24.412l5.083-0.021c4.375-0.018 5.183-0.005 5.806 0.097 3.347 0.549 6.066 3.043 6.905 6.334 0.139 0.546 0.163 0.839 0.162 2.012-0.001 1.267-0.017 1.429-0.205 2.105-0.399 1.435-1.074 2.616-2.114 3.694-0.909 0.944-2.006 1.661-3.159 2.068l-0.359 0.126 0.549 0.659c1.082 1.299 2.284 2.288 3.415 2.809 0.563 0.26 1.477 0.484 1.975 0.484 0.334 0 1.284-0.172 1.581-0.287 0.192-0.074 0.216-0.053 0.705 0.643 0.544 0.773 2.090 2.385 2.788 2.905 0.235 0.175 0.427 0.348 0.427 0.383 0 0.11-1.776 0.929-2.541 1.171-1.281 0.405-2.787 0.576-4.026 0.456zM14.885 14.421c1.705-0.247 2.861-1.838 2.612-3.597-0.138-0.973-0.578-1.793-1.226-2.287-0.626-0.476-0.779-0.502-3.031-0.502l-2.009-0 0.040 6.455 1.575-0.001c0.866-0.001 1.784-0.032 2.038-0.068z"></path>
</svg>
