<!-- Generated by IcoMoon.io -->
<svg version="1.1" xmlns="http://www.w3.org/2000/svg" width="32" height="32" viewBox="0 0 32 32">
<title>rss-logo</title>
<path d="M11.38 24.52c0 1.578-1.28 2.857-2.857 2.857s-2.857-1.279-2.857-2.857 1.28-2.857 2.857-2.857c1.578 0 2.857 1.279 2.857 2.857z"></path>
<path d="M5.669 17.316c2.678 0 5.194 1.047 7.085 2.947 1.894 1.903 2.937 4.436 2.937 7.133h4.125c0-7.833-6.346-14.205-14.147-14.205v4.125z"></path>
<path d="M5.675 10.004c9.541 0 17.303 7.804 17.303 17.397h4.125c0-11.867-9.613-21.522-21.428-21.522v4.125z"></path>
</svg>
