<!-- Generated by IcoMoon.io -->
<svg version="1.1" xmlns="http://www.w3.org/2000/svg" width="32" height="32" viewBox="0 0 32 32">
<title>runner-square</title>
<path d="M25.632 0.325h-19.306c-3.419 0-6.217 2.798-6.217 6.217v19.159c0 3.419 2.798 6.217 6.217 6.217h19.306c3.419 0 6.217-2.798 6.217-6.217v-19.159c-0-3.419-2.798-6.217-6.217-6.217zM12.44 4.409c1.208 0 2.221 1.013 2.221 2.22s-1.014 2.181-2.221 2.181c-1.207 0-2.181-0.974-2.181-2.181s0.974-2.22 2.181-2.22zM18.282 24.001c-0.584 0-1.090-0.429-1.128-1.013l-0.546-5.024-4.285 8.881c-0.233 0.507-0.778 0.857-1.402 0.857h-2.065l5.258-10.867-1.636-4.089-1.558 1.908c-0.389 0.507-1.052 0.857-1.753 0.857h-2.16c-0.023 0.001-0.045 0.003-0.067 0.003s-0.045-0.002-0.067-0.003h-0.005c-0.635-0.037-1.139-0.563-1.139-1.208 0-0.669 0.543-1.211 1.211-1.211 0.025 0 0.049 0.002 0.073 0.004h2.075l2.531-3.154c0.507-0.584 1.286-0.974 2.142-0.974h5.415c0.857 0 1.597 0.467 1.986 1.208l1.597 3.038c0.078 0.117 0.117 0.272 0.117 0.468 0 0.545-0.467 1.013-1.013 1.013-0.427 0-0.739-0.195-0.935-0.546l-1.441-2.765h-2.336l1.791 4.479 0.545 5.726h4.635c0.74 0 1.324 0.467 1.597 1.090l0.506 1.325h-7.945z"></path>
</svg>
