<!-- Generated by IcoMoon.io -->
<svg version="1.1" xmlns="http://www.w3.org/2000/svg" width="32" height="32" viewBox="0 0 32 32">
<title>runner</title>
<path d="M10.952 0.26c1.638 0 3.013 1.373 3.013 3.011s-1.375 2.959-3.013 2.959c-1.637 0-2.959-1.321-2.959-2.959s1.322-3.011 2.959-3.011z"></path>
<path d="M28.968 25.035c-0.37-0.845-1.162-1.479-2.166-1.479h-6.287l-0.739-7.766-2.429-6.075h3.168l1.954 3.751c0.266 0.475 0.689 0.74 1.268 0.74 0.739 0 1.374-0.634 1.374-1.373 0-0.265-0.052-0.476-0.158-0.634l-2.166-4.121c-0.528-1.005-1.531-1.638-2.694-1.638h-7.344c-1.161 0-2.217 0.529-2.905 1.321l-3.434 4.279h-2.815c-0.033-0.002-0.065-0.005-0.099-0.005-0.907 0-1.643 0.736-1.643 1.643 0 0.874 0.684 1.587 1.546 1.638v0h0.006c0.031 0.002 0.061 0.005 0.091 0.005s0.061-0.003 0.092-0.005h2.929c0.95 0 1.849-0.475 2.377-1.163l2.113-2.588 2.219 5.547-7.132 14.739h2.801c0.846 0 1.585-0.474 1.901-1.162l5.811-12.045 0.741 6.815c0.051 0.793 0.739 1.374 1.53 1.374h10.777l-0.686-1.797z"></path>
</svg>
