<!-- Generated by IcoMoon.io -->
<svg version="1.1" xmlns="http://www.w3.org/2000/svg" width="32" height="32" viewBox="0 0 32 32">
<title>sentmail-oblong-square</title>
<path d="M25.484 5.047h-19.306c-3.419 0-6.217 2.798-6.217 6.217v9.528c0 3.419 2.798 6.217 6.217 6.217h19.306c3.419 0 6.217-2.798 6.217-6.217v-9.528c0-3.419-2.798-6.217-6.217-6.217zM6.006 13.099c1.112 0.888 2.225 1.776 3.339 2.663l0.601 0.481 0.128 0.105c-0.835 0.671-1.671 1.341-2.506 2.011l-0.96 0.768-0.602 0.474v-6.503zM21.013 21.643h-15.007v-0.428c1.692-1.356 3.383-2.713 5.073-4.071l1.769 1.412c0.354 0.282 0.856 0.282 1.209-0.001l1.882-1.51c1.691 1.348 3.383 2.697 5.073 4.046v0.553zM21.013 16.989l-0.002 1.543-0.007 0.951c-1.116-0.89-2.231-1.779-3.347-2.669l-0.594-0.474-0.12-0.099c1.355-1.090 2.713-2.179 4.070-3.269v4.017zM21.013 11.37c-2.319 1.861-4.639 3.723-6.958 5.583-0.353 0.283-0.855 0.284-1.209 0.002-2.28-1.818-4.56-3.635-6.84-5.454v-0.556h15.007v0.425zM25.863 16.587l-0.069 0.368-0.226 1.238h-3.484v-1.615h3.778l-0.001 0.008h0.001zM26.381 13.753l-0.069 0.366-0.227 1.24h-4.001v-1.615h4.297l-0.002 0.008h0.001zM26.898 10.918l-0.069 0.37-0.225 1.238h-4.52v-1.615h4.815l-0.002 0.007h0.002z"></path>
</svg>
