<!-- Generated by IcoMoon.io -->
<svg version="1.1" xmlns="http://www.w3.org/2000/svg" width="32" height="32" viewBox="0 0 32 32">
<title>sentmail</title>
<path d="M12.37 19.723c-0.535 0.429-1.296 0.43-1.833 0.002l-2.681-2.139c-2.563 2.057-5.126 4.114-7.689 6.17v0.648h22.746v-0.837c-2.562-2.045-5.126-4.089-7.689-6.132l-2.853 2.289z"></path>
<path d="M22.852 8.187h-22.686v0.843c3.456 2.757 6.911 5.511 10.368 8.266 0.536 0.427 1.297 0.426 1.832-0.003 3.515-2.82 7.032-5.641 10.546-8.462v-0.645h-0.061z"></path>
<path d="M2.534 19.427c1.266-1.016 2.533-2.032 3.799-3.048l-0.194-0.159-0.912-0.729c-1.688-1.345-3.374-2.691-5.060-4.037v9.855l0.913-0.719 1.455-1.163z"></path>
<path d="M16.926 16.365l0.9 0.719c1.692 1.348 3.382 2.696 5.073 4.045l0.010-1.442 0.003-2.339v-6.088c-2.057 1.651-4.113 3.302-6.168 4.954l0.182 0.15z"></path>
<path d="M31.833 8.136h-7.297v2.447h6.851l0.342-1.876 0.105-0.56h-0.002z"></path>
<path d="M24.536 12.431v2.447h6.065l0.344-1.88 0.104-0.555h-0.002l0.002-0.013z"></path>
<path d="M24.536 16.727v2.447h5.281l0.343-1.876 0.104-0.559h-0.002l0.002-0.013z"></path>
</svg>
