<!-- Generated by IcoMoon.io -->
<svg version="1.1" xmlns="http://www.w3.org/2000/svg" width="32" height="32" viewBox="0 0 32 32">
<title>sentmail-square</title>
<path d="M25.715 0.339h-19.306c-3.419 0-6.217 2.798-6.217 6.217v19.159c0 3.419 2.798 6.217 6.217 6.217h19.306c3.419 0 6.217-2.798 6.217-6.217v-19.159c0-3.419-2.798-6.217-6.217-6.217zM3.894 12.664c1.361 1.088 2.725 2.174 4.088 3.261l0.736 0.589 0.157 0.128c-1.022 0.821-2.046 1.642-3.069 2.463l-1.175 0.939-0.738 0.581v-7.961zM22.268 23.125h-18.374v-0.524c2.071-1.66 4.141-3.322 6.211-4.984l2.166 1.729c0.433 0.345 1.048 0.345 1.48-0.002l2.305-1.849c2.071 1.651 4.141 3.302 6.211 4.953v0.677zM22.268 17.426l-0.003 1.889-0.008 1.165c-1.366-1.090-2.732-2.178-4.098-3.268l-0.727-0.581-0.147-0.121c1.659-1.334 3.321-2.668 4.983-4.002v4.918zM22.268 10.546c-2.839 2.279-5.679 4.558-8.519 6.835-0.432 0.347-1.047 0.348-1.48 0.002-2.792-2.226-5.584-4.451-8.375-6.677v-0.681h18.374v0.52zM28.205 16.934l-0.084 0.451-0.277 1.515h-4.265v-1.977h4.626l-0.001 0.010h0.001zM28.84 13.464l-0.084 0.448-0.278 1.518h-4.899v-1.977h5.261l-0.002 0.010h0.002zM29.474 9.993l-0.085 0.453-0.276 1.515h-5.534v-1.977h5.895l-0.002 0.009h0.002z"></path>
</svg>
