<!-- Generated by IcoMoon.io -->
<svg version="1.1" xmlns="http://www.w3.org/2000/svg" width="32" height="32" viewBox="0 0 32 32">
<title>slack-logo</title>
<path d="M7.737 19.758c-0.003 1.652-1.341 2.991-2.992 2.996h-0.001c-1.653-0.004-2.992-1.343-2.995-2.996v-0c0.005-1.652 1.343-2.989 2.995-2.992h2.993v2.992zM9.247 19.758c0.005-1.651 1.342-2.988 2.993-2.992h0c1.651 0.004 2.989 1.341 2.994 2.992v7.497c-0.004 1.652-1.342 2.99-2.993 2.995h-0.001c-1.652-0.005-2.99-1.343-2.994-2.994v-7.497zM12.24 7.737c-1.651-0.005-2.988-1.342-2.994-2.992v-0.001c0.004-1.652 1.342-2.99 2.993-2.995h0.001c1.652 0.005 2.99 1.343 2.994 2.994v2.993h-2.994zM12.24 9.247c1.652 0.005 2.989 1.342 2.994 2.993v0.001c-0.005 1.652-1.342 2.989-2.993 2.994h-7.496c-1.652-0.004-2.99-1.342-2.995-2.993v-0.001c0.005-1.652 1.343-2.99 2.994-2.994h7.496z"></path>
<path d="M24.26 12.24c0.005-1.652 1.343-2.99 2.994-2.994h0c1.652 0.004 2.99 1.342 2.995 2.993v0.001c-0.005 1.652-1.343 2.99-2.994 2.994h-2.995v-2.994zM22.755 12.24c-0.005 1.652-1.344 2.99-2.996 2.994h-0c-1.651-0.005-2.988-1.342-2.992-2.993v-7.496c0.003-1.652 1.341-2.99 2.992-2.995h0c1.653 0.003 2.992 1.342 2.996 2.995v7.496z"></path>
<path d="M19.758 24.26c1.653 0.003 2.992 1.342 2.996 2.995v0c-0.004 1.653-1.343 2.992-2.996 2.995h-0c-1.652-0.005-2.989-1.343-2.992-2.995v-2.995h2.992zM19.758 22.755c-1.652-0.005-2.99-1.344-2.992-2.996v-0c0.004-1.651 1.341-2.988 2.992-2.992h7.497c1.652 0.003 2.99 1.341 2.995 2.992v0c-0.003 1.653-1.342 2.992-2.995 2.996h-7.497z"></path>
</svg>
