<!-- Generated by IcoMoon.io -->
<svg version="1.1" xmlns="http://www.w3.org/2000/svg" width="32" height="32" viewBox="0 0 32 32">
<title>telephone-o-l</title>
<path d="M6.274 15.195h-5.648c-0.283 0-0.512-0.23-0.512-0.514v-2.321c0-0.283 0.23-0.514 0.512-0.514h5.648c0.283 0 0.513 0.23 0.513 0.514v2.321c0 0.283-0.23 0.514-0.513 0.514zM0.8 14.509h5.301v-1.977h-5.301v1.977z"></path>
<path d="M26.341 28.854h-20.743c-1.17 0-1.755-2.79-1.755-3.449 0-0.037 0.006-0.074 0.018-0.109l4.236-12.614c0.153-0.638 0.57-1.359 1.282-1.574v-1.81c-1.475 0.816-2.456 1.573-2.467 1.581-0.061 0.047-0.135 0.072-0.21 0.072h-6.255c-0.112 0-0.217-0.055-0.281-0.146s-0.079-0.209-0.041-0.315c0.111-0.301 2.853-7.381 15.843-7.382l0.089-0c12.513 0 15.431 6.537 15.735 7.32 0.032 0.052 0.051 0.114 0.051 0.18 0 0.19-0.153 0.343-0.343 0.343-0.002 0-0.005 0-0.007 0h-6.254c-0.076 0-0.15-0.025-0.21-0.072-0.010-0.008-0.992-0.765-2.467-1.581v1.81c0.712 0.216 1.13 0.939 1.29 1.603l4.227 12.585c0.012 0.035 0.018 0.072 0.018 0.109-0 0.659-0.585 3.449-1.756 3.449zM4.53 25.459c0.026 0.9 0.679 2.709 1.069 2.709h20.743c0.39 0 1.043-1.809 1.069-2.709l-4.217-12.558c-0.135-0.551-0.462-1.125-1.002-1.169-0.178-0.014-0.315-0.163-0.315-0.342v-2.665c0-0.12 0.063-0.231 0.165-0.293s0.23-0.066 0.336-0.011c1.544 0.803 2.654 1.603 2.977 1.845h5.6c-0.826-1.544-4.296-6.471-14.897-6.471h-0.085c-10.602 0.001-14.132 4.921-14.981 6.471h5.594c0.323-0.241 1.433-1.041 2.977-1.845 0.107-0.055 0.233-0.051 0.336 0.011s0.165 0.173 0.165 0.293v2.665c0 0.179-0.137 0.327-0.315 0.342-0.541 0.043-0.868 0.617-0.994 1.14l-4.226 12.586zM16.041 24.607c-2.692 0-4.882-2.19-4.882-4.882s2.19-4.883 4.882-4.883c2.693 0 4.883 2.191 4.883 4.883s-2.191 4.882-4.883 4.882zM16.041 15.529c-2.314 0-4.197 1.882-4.197 4.197s1.883 4.196 4.197 4.196c2.314 0 4.198-1.882 4.198-4.196s-1.883-4.197-4.198-4.197z"></path>
<path d="M31.313 15.195h-5.648c-0.283 0-0.513-0.23-0.513-0.514v-2.321c0-0.283 0.23-0.514 0.513-0.514h5.648c0.283 0 0.513 0.23 0.513 0.514v2.321c0 0.283-0.23 0.514-0.513 0.514zM25.838 14.509h5.302v-1.977h-5.302v1.977z"></path>
</svg>
