<!-- Generated by IcoMoon.io -->
<svg version="1.1" xmlns="http://www.w3.org/2000/svg" width="32" height="32" viewBox="0 0 32 32">
<title>telephone</title>
<path d="M6.172 14.097v-2.374c0-0.096-0.079-0.175-0.174-0.175h-5.777c-0.095 0-0.173 0.079-0.173 0.175v2.374c0 0.097 0.078 0.175 0.173 0.175h5.777c0.096 0 0.174-0.078 0.174-0.175z"></path>
<path d="M22.306 11.285v-2.726c1.843 0.959 3.089 1.926 3.089 1.926h6.397c0 0-2.57-7.352-15.875-7.32-0.001 0-0.001 0-0.002 0s-0.001 0-0.002 0c-13.194 0.002-15.875 7.32-15.875 7.32h6.397c0 0 1.246-0.967 3.089-1.926v2.726c-0.743 0.060-1.171 0.779-1.329 1.434l-4.333 12.901c0 0.797 0.646 3.176 1.445 3.176h21.217c0.799 0 1.445-2.379 1.445-3.176l-4.333-12.901c-0.158-0.655-0.587-1.374-1.329-1.433zM15.988 24.453c-2.563 0-4.644-2.079-4.644-4.642 0-2.565 2.080-4.644 4.644-4.644s4.644 2.078 4.644 4.644c-0 2.564-2.080 4.642-4.644 4.642z"></path>
<path d="M31.609 11.548h-5.777c-0.095 0-0.174 0.079-0.174 0.175v2.374c0 0.097 0.079 0.175 0.174 0.175h5.777c0.095 0 0.173-0.078 0.173-0.175v-2.374c0-0.096-0.078-0.175-0.173-0.175z"></path>
</svg>
