<!-- Generated by IcoMoon.io -->
<svg version="1.1" xmlns="http://www.w3.org/2000/svg" width="32" height="32" viewBox="0 0 32 32">
<title>telephone-o-m</title>
<path d="M6.555 16.376h-5.51c-0.461 0-0.835-0.376-0.835-0.837v-2.625c0-0.462 0.375-0.837 0.835-0.837h5.51c0.461 0 0.836 0.376 0.836 0.837v2.625c0 0.462-0.375 0.837-0.836 0.837zM1.551 15.035h4.5v-1.618h-4.5v1.618z"></path>
<path d="M26.133 28.875h-20.237c-1.49 0-2.048-3.072-2.048-3.7 0-0.072 0.012-0.145 0.035-0.213l4.123-12.279c0.202-0.806 0.655-1.406 1.242-1.684v-0.959c-1.132 0.665-1.856 1.223-1.865 1.23-0.118 0.091-0.262 0.141-0.411 0.141h-6.101c-0.219 0-0.424-0.107-0.55-0.287s-0.155-0.409-0.080-0.615c0.111-0.303 2.867-7.42 15.771-7.422h0.087c12.265 0 15.28 6.399 15.653 7.329 0.053 0.096 0.083 0.206 0.083 0.323 0 0.37-0.3 0.671-0.67 0.671-0.002 0-0.005 0-0.007 0h-6.101c-0.149 0-0.293-0.050-0.41-0.141-0.009-0.007-0.734-0.565-1.865-1.23v0.959c0.587 0.277 1.040 0.878 1.242 1.683l4.123 12.278c0.023 0.069 0.035 0.141 0.035 0.213 0 0.628-0.558 3.7-2.048 3.7zM5.974 27.534h20.080c0.312-0.272 0.74-1.598 0.782-2.26l-4.094-12.191c-0.006-0.018-0.011-0.037-0.016-0.056-0.091-0.378-0.321-0.829-0.67-0.857-0.348-0.028-0.616-0.319-0.616-0.668v-2.6c0-0.234 0.122-0.451 0.322-0.573s0.449-0.13 0.657-0.022c1.405 0.731 2.45 1.462 2.861 1.761h4.786c-1.123-1.794-4.62-5.642-13.966-5.642h-0.081c-9.235 0.001-12.844 3.847-14.024 5.641h4.756c0.41-0.3 1.455-1.031 2.86-1.761 0.208-0.108 0.457-0.1 0.658 0.022s0.322 0.339 0.322 0.573v2.6c0 0.349-0.268 0.64-0.616 0.668-0.349 0.028-0.579 0.479-0.67 0.856-0.005 0.019-0.010 0.038-0.017 0.056l-4.094 12.191c0.042 0.663 0.47 1.988 0.781 2.26zM16.083 24.733c-2.812 0-5.099-2.287-5.099-5.098s2.288-5.099 5.099-5.099c2.812 0 5.1 2.287 5.1 5.099s-2.288 5.098-5.1 5.098zM16.083 15.875c-2.073 0-3.759 1.686-3.759 3.759s1.686 3.758 3.759 3.758c2.072 0 3.759-1.686 3.759-3.758s-1.687-3.759-3.759-3.759z"></path>
<path d="M30.983 16.376h-5.511c-0.461 0-0.836-0.376-0.836-0.837v-2.625c0-0.462 0.375-0.837 0.836-0.837h5.511c0.461 0 0.835 0.376 0.835 0.837v2.625c0 0.462-0.375 0.837-0.835 0.837zM25.977 15.035h4.5v-1.618h-4.5v1.618z"></path>
</svg>
