<!-- Generated by IcoMoon.io -->
<svg version="1.1" xmlns="http://www.w3.org/2000/svg" width="32" height="32" viewBox="0 0 32 32">
<title>telephone-o-b</title>
<path d="M31.96 10.845c0-0.174-0.043-0.338-0.119-0.482-0.441-1.067-3.562-7.39-15.674-7.39h-0.085c-12.903 0.001-15.693 7.211-15.805 7.518-0.116 0.316-0.070 0.669 0.123 0.944 0.033 0.047 0.073 0.085 0.112 0.125-0.178 0.209-0.289 0.475-0.289 0.77v3.653c0 0.658 0.535 1.194 1.193 1.194h4.94l-2.514 7.486c-0.036 0.106-0.054 0.216-0.054 0.328 0 0.475 0.502 3.999 2.38 3.999h19.831c1.878 0 2.381-3.524 2.381-3.999 0-0.112-0.018-0.222-0.054-0.328l-2.514-7.486h4.94c0.657 0 1.192-0.535 1.192-1.194v-3.652c0-0.291-0.109-0.554-0.282-0.761 0.184-0.186 0.298-0.442 0.298-0.725zM2.283 13.198h4.159v1.918h-4.159v-1.918zM25.741 26.929h-19.315c-0.237-0.366-0.517-1.29-0.569-1.795l3.987-11.874c0.009-0.029 0.018-0.057 0.025-0.086 0.085-0.354 0.257-0.55 0.325-0.555 0.535-0.043 0.947-0.49 0.947-1.027v-1.423c0-0.36-0.188-0.694-0.496-0.881s-0.69-0.199-1.010-0.033c-1.294 0.673-2.125 1.4-2.591 1.736h-4.823c1.431-1.823 4.481-5.958 13.866-5.958h0.079c9.71 0 12.211 4.179 13.603 5.995h-4.594c-0.466-0.336-1.349-1.099-2.644-1.773-0.319-0.166-0.703-0.154-1.010 0.033s-0.496 0.521-0.496 0.881v1.423c0 0.537 0.412 0.984 0.947 1.027 0.067 0.006 0.239 0.201 0.326 0.557 0.007 0.029 0.015 0.057 0.024 0.085l3.987 11.874c-0.051 0.505-0.332 1.43-0.569 1.795zM29.883 15.116h-4.122v-1.918h4.122v1.918z"></path>
<path d="M16.151 14.19c-2.962 0-5.37 2.409-5.37 5.37s2.409 5.369 5.37 5.369 5.371-2.409 5.371-5.369c0-2.961-2.409-5.37-5.371-5.37zM16.151 22.87c-1.825 0-3.31-1.485-3.31-3.309s1.485-3.31 3.31-3.31 3.31 1.485 3.31 3.31c-0 1.824-1.485 3.309-3.31 3.309z"></path>
</svg>
