<!-- Generated by IcoMoon.io -->
<svg version="1.1" xmlns="http://www.w3.org/2000/svg" width="32" height="32" viewBox="0 0 32 32">
<title>telephone-square</title>
<path d="M19.641 18.948c0 2.019-1.637 3.656-3.656 3.656s-3.656-1.637-3.656-3.656c0-2.019 1.637-3.656 3.656-3.656s3.656 1.637 3.656 3.656z"></path>
<path d="M25.58 0.185h-19.306c-3.419 0-6.217 2.798-6.217 6.217v19.159c0 3.419 2.798 6.217 6.217 6.217h19.306c3.419 0 6.217-2.798 6.217-6.217v-19.159c-0-3.419-2.798-6.217-6.217-6.217zM3.571 14.587c-0.075 0-0.136-0.062-0.136-0.138v-1.869c0-0.076 0.062-0.138 0.136-0.138h4.549c0.075 0 0.137 0.062 0.137 0.138v1.869c0 0.076-0.062 0.138-0.137 0.138h-4.549zM28.422 14.449c0 0.076-0.062 0.138-0.137 0.138h-4.549c-0.075 0-0.137-0.062-0.137-0.138v-1.869c0-0.076 0.062-0.138 0.137-0.138h4.549c0.075 0 0.137 0.062 0.137 0.138v1.869zM23.393 11.605c0 0-0.981-0.761-2.433-1.517v2.146c0.585 0.047 0.922 0.613 1.047 1.129l3.412 10.158c0 0.628-0.509 2.501-1.138 2.501h-16.706c-0.629 0-1.138-1.873-1.138-2.501l3.412-10.158c0.124-0.515 0.462-1.082 1.047-1.129v-2.146c-1.451 0.755-2.433 1.517-2.433 1.517h-5.037c0 0 2.111-5.763 12.5-5.764 0.001 0 0.001 0 0.002 0 0 0 0.001 0 0.002 0 10.477-0.025 12.5 5.764 12.5 5.764h-5.037z"></path>
</svg>
