<?xml version="1.0" encoding="UTF-8"?>
<svg id="_レイヤー_1" data-name="レイヤー_1" xmlns="http://www.w3.org/2000/svg" version="1.1" viewBox="0 0 25 32">
  <!-- Generator: Adobe Illustrator 29.1.0, SVG Export Plug-In . SVG Version: 2.1.0 Build 142)  -->
  <path d="M20,2.3H5.1C2.3,2.3,0,4.6,0,7.4v14.9c0,2.8,2.3,5.1,5.1,5.1h14.9c2.8,0,5.1-2.3,5.1-5.1V7.4c0-2.8-2.3-5.1-5.1-5.1ZM22.9,22.3c0,1.6-1.3,2.9-2.9,2.9H5.1c-1.6,0-2.9-1.3-2.9-2.9V7.4c0-1.6,1.3-2.9,2.9-2.9h14.9c1.6,0,2.9,1.3,2.9,2.9v14.9Z"/>
  <path d="M18.6,9.6l-.8-.8c-.2-.2-.6-.2-.8,0l-4.4,4.4-4.4-4.4c-.2-.2-.6-.2-.8,0l-.8.8c-.2.2-.2.6,0,.8l4.4,4.4-4.4,4.4c-.2.2-.2.6,0,.8l.8.8c.2.2.6.2.8,0l4.4-4.4,4.4,4.4c.2.2.6.2.8,0l.8-.8c.2-.2.2-.6,0-.8l-4.4-4.4,4.4-4.4c.2-.2.2-.6,0-.8Z"/>
</svg>