<?xml version="1.0" encoding="UTF-8"?>
<svg id="_レイヤー_1" data-name="レイヤー_1" xmlns="http://www.w3.org/2000/svg" version="1.1" viewBox="0 0 27.2 32">
  <!-- Generator: Adobe Illustrator 29.1.0, SVG Export Plug-In . SVG Version: 2.1.0 Build 142)  -->
  <path d="M22.3,2.3H5.1C2.3,2.3,0,4.6,0,7.4v17.1c0,2.8,2.3,5.1,5.1,5.1h17.1c2.8,0,5.1-2.3,5.1-5.1V7.4c0-2.8-2.3-5.1-5.1-5.1ZM20.1,19.2c.2.2.3.5.3.8s-.1.6-.3.8l-1.6,1.6c-.2.2-.5.3-.8.3s-.6-.1-.8-.3l-3.2-3.2-3.2,3.2c-.2.2-.5.3-.8.3s-.6-.1-.8-.3l-1.6-1.6c-.2-.2-.3-.5-.3-.8s.1-.6.3-.8l3.2-3.2-3.2-3.2c-.2-.2-.3-.5-.3-.8s.1-.6.3-.8l1.6-1.6c.2-.2.5-.3.8-.3s.6.1.8.3l3.2,3.2,3.2-3.2c.2-.2.5-.3.8-.3s.6.1.8.3l1.6,1.6c.2.2.3.5.3.8s-.1.6-.3.8l-3.2,3.2,3.2,3.2Z"/>
</svg>