<!-- Generated by IcoMoon.io -->
<svg version="1.1" xmlns="http://www.w3.org/2000/svg" width="32" height="32" viewBox="0 0 32 32">
<title>twitter-logo</title>
<path d="M28.529 9.235c-0.89 0.395-1.846 0.661-2.849 0.781 1.024-0.614 1.811-1.586 2.181-2.745-0.958 0.569-2.020 0.981-3.15 1.204-0.905-0.964-2.194-1.566-3.621-1.566-2.74 0-4.961 2.221-4.961 4.96 0 0.389 0.044 0.767 0.129 1.13-4.123-0.207-7.778-2.182-10.224-5.183-0.427 0.733-0.672 1.585-0.672 2.494 0 1.721 0.876 3.239 2.207 4.129-0.813-0.026-1.578-0.249-2.247-0.62-0 0.021-0 0.041-0 0.062 0 2.403 1.71 4.408 3.979 4.864-0.416 0.113-0.855 0.174-1.307 0.174-0.32 0-0.63-0.031-0.933-0.089 0.631 1.971 2.463 3.405 4.634 3.445-1.698 1.33-3.837 2.123-6.161 2.123-0.4 0-0.795-0.023-1.183-0.069 2.195 1.407 4.803 2.229 7.604 2.229 9.124 0 14.113-7.559 14.113-14.114 0-0.215-0.005-0.429-0.014-0.642 0.969-0.699 1.81-1.573 2.475-2.568z"></path>
</svg>
