<!-- Generated by IcoMoon.io -->
<svg version="1.1" xmlns="http://www.w3.org/2000/svg" width="32" height="32" viewBox="0 0 32 32">
<title>youtube-logo</title>
<path d="M16.431 14.294c0 0-4.547 0-7.578 0.218-0.424 0.050-1.347 0.054-2.17 0.913-0.65 0.654-0.861 2.14-0.861 2.14s-0.217 1.745-0.217 3.49v1.636c0 1.745 0.217 3.49 0.217 3.49s0.211 1.486 0.861 2.14c0.824 0.859 1.906 0.832 2.388 0.922 1.733 0.166 7.365 0.217 7.365 0.217s4.552-0.007 7.583-0.225c0.423-0.050 1.347-0.055 2.17-0.914 0.649-0.654 0.861-2.14 0.861-2.14s0.216-1.745 0.216-3.49v-1.636c0-1.745-0.216-3.49-0.216-3.49s-0.212-1.486-0.861-2.14c-0.824-0.859-1.747-0.863-2.17-0.913-3.031-0.218-7.578-0.218-7.578-0.218h-0.010zM11.958 16.847v1.378h-1.596v8.342h-1.451v-8.343h-1.523v-1.377l4.57-0.002zM16.673 16.847h1.306l-0.002 3.169c0.424-0.522 0.904-0.819 1.388-0.819 0.523 0 0.874 0.302 1.050 0.845 0.088 0.292 0.176 0.761 0.176 1.448v2.902c0 0.67-0.057 1.143-0.145 1.451-0.175 0.539-0.557 0.819-1.080 0.819-0.467 0-0.946-0.281-1.384-0.824l-0.002 0.73h-1.306v-9.721zM23.476 19.209c0.659 0 1.182 0.263 1.55 0.759 0.274 0.367 0.427 0.933 0.427 1.708l0 1.483h-2.614v1.303c-0.005 0.669 0.186 1.006 0.637 1.006 0.323 0 0.512-0.176 0.587-0.527 0.012-0.072 0.010-0.385 0.010-0.912h1.378v0.206c0 0.423-0.035 0.723-0.047 0.854-0.044 0.291-0.148 0.554-0.307 0.787-0.363 0.526-0.902 0.786-1.589 0.786s-1.21-0.247-1.59-0.742c-0.279-0.363-0.458-0.902-0.458-1.672v-2.539c0-0.775 0.163-1.374 0.442-1.74 0.38-0.496 0.903-0.759 1.573-0.759zM11.74 19.314h1.378v5.876c0.032 0.204 0.119 0.278 0.294 0.278 0.264 0 0.503-0.229 0.794-0.641v-5.513h1.378v7.254h-1.378v-0.798c-0.522 0.599-0.965 0.901-1.448 0.901-0.424 0-0.718-0.2-0.865-0.561-0.089-0.22-0.153-0.562-0.153-1.066v-5.731zM18.663 20.407c-0.216 0-0.464 0.114-0.683 0.331l-0.002 4.399c0.22 0.22 0.469 0.331 0.685 0.331 0.379 0 0.55-0.278 0.55-1.003v-3.119c0-0.726-0.171-0.938-0.55-0.938zM23.464 20.407c-0.439 0-0.625 0.185-0.625 0.863v0.802l1.233-0.001v-0.792c0-0.671-0.173-0.872-0.609-0.872z"></path>
<path d="M23.218 13.783h-1.378v-0.798c-0.523 0.599-0.965 0.901-1.448 0.901-0.424 0-0.718-0.2-0.865-0.561-0.089-0.22-0.153-0.562-0.153-1.066v-5.803h1.378v5.441c0 0.308 0 0.435 0 0.508 0.032 0.204 0.119 0.278 0.294 0.278 0.264 0 0.503-0.229 0.794-0.641v-5.586h1.378v7.327z"></path>
<path d="M16.979 11.606c0.073 0.726-0.152 1.085-0.581 1.085s-0.653-0.36-0.58-1.085v-2.902c-0.073-0.726 0.152-1.065 0.58-1.065s0.654 0.34 0.581 1.065l-0.001 2.902zM18.358 8.85c0-0.783-0.157-1.371-0.435-1.741-0.367-0.501-0.943-0.706-1.523-0.706-0.657 0-1.157 0.205-1.523 0.706-0.282 0.37-0.434 0.964-0.434 1.748l-0.001 2.605c0 0.779 0.135 1.317 0.417 1.683 0.367 0.5 0.961 0.764 1.541 0.764s1.185-0.265 1.552-0.764c0.278-0.366 0.406-0.904 0.406-1.683v-2.611z"></path>
<path d="M12.917 9.793v3.99h-1.451v-3.99c0 0-1.503-4.892-1.814-5.803h1.523l1.018 3.821 1.013-3.821h1.523l-1.814 5.803z"></path>
</svg>
