<?xml version="1.0" encoding="UTF-8"?>
<svg id="_レイヤー_1" data-name="レイヤー_1" xmlns="http://www.w3.org/2000/svg" version="1.1" viewBox="0 0 239.8 165.6">
  <!-- Generator: Adobe Illustrator 29.3.1, SVG Export Plug-In . SVG Version: 2.1.0 Build 151)  -->
  <defs>
    <style>
      .st0 {
        fill: #adb799;
      }
    </style>
  </defs>
  <path class="st0" d="M120.4,123c-25.5,0-50,4-70.8,11.6-20.4,7.4-35.9,17.8-44.9,29.8-.1.2,0,.4,0,.5,0,0,.1,0,.2,0,.1,0,.2,0,.3-.2,18.2-24.5,63.9-40.9,114.1-41.1l-14.8,14.8c-.1.1-.1.4,0,.5.1.1.4.1.5,0l15.1-15.1,15.2,15.2c0,0,.2.1.3.1s.2,0,.3-.1c.1-.1.1-.4,0-.5l-14.9-14.9c25,0,49.1,4.1,69.6,11.5,20.2,7.4,35.6,17.5,44.5,29.5.1.2.4.2.5,0,.2-.1.2-.4,0-.5-18.8-25.1-64.1-41.3-115.6-41.3Z"/>
  <path class="st0" d="M107.3,100.8c-.5.9-.9,1.9-1.2,2.9l-27.8-7.4c-.2,0-.4,0-.5.3,0,.2,0,.4.3.5l27.8,7.4c-.2,1-.4,2-.4,3h-20.2c-.2,0-.4.2-.4.4s.2.4.4.4h20.2c.2,8,6.7,14.4,14.8,14.4s14.5-6.4,14.8-14.3h20.1c.2,0,.4-.2.4-.5,0-.2-.2-.4-.4-.4h-20.1c0-1-.2-2-.4-3l27.7-7.4c.2,0,.3-.3.3-.5,0-.2-.3-.3-.5-.3l-27.7,7.4c-.3-1-.7-2-1.2-2.9l33.3-19.3c.2-.1.2-.3.1-.5-.1-.2-.3-.2-.5-.1l-33.3,19.3c-.6-.9-1.2-1.7-1.9-2.5l29.7-29.7c.1-.1.1-.4,0-.5-.1-.1-.4-.1-.5,0l-29.7,29.7c-.7-.7-1.5-1.3-2.3-1.8l22.7-39.5c.1-.2,0-.4-.1-.5-.2-.1-.4,0-.5.1l-22.7,39.5c-.9-.5-1.9-.9-3-1.2l12.9-47.9c0-.2,0-.4-.3-.5-.2,0-.4,0-.5.3l-12.9,47.9c-1-.2-2-.4-3-.4V.4c0-.2-.2-.4-.4-.4s-.4.2-.4.4v92.7c-1.1,0-2.1.2-3.1.4l-13-47.9c0-.2-.3-.3-.5-.3-.2,0-.3.3-.3.5l13,47.9c-1,.3-2,.7-3,1.2l-22.8-39.5c-.1-.2-.3-.2-.5-.1-.2.1-.2.3-.1.5l22.8,39.5c-.9.5-1.7,1.2-2.4,1.9l-29.7-29.8c-.1-.1-.4-.1-.5,0-.1.1-.1.4,0,.5l29.7,29.8c-.7.8-1.4,1.6-1.9,2.5l-33.4-19.3c-.2-.1-.4,0-.5.1-.1.2,0,.4.1.5l33.4,19.3ZM120.3,93.8c7,0,12.7,5.1,13.8,11.8-1.9,6.2-7.4,10.3-13.8,10.3s-11.9-4.1-13.8-10.3c0-.4.2-.9.3-1.3,0,0,0,0,0,0,0,0,0,0,0,0,1.6-6,7-10.4,13.5-10.4ZM120.3,121.8c-7.7,0-14-6.3-14-14s0-.3,0-.5c2.4,5.6,7.8,9.3,14,9.3s11.6-3.7,14-9.3c0,.2,0,.3,0,.5,0,7.7-6.3,14-14,14Z"/>
  <path class="st0" d="M58.2,136.2c-29.5,9.1-46.5,28.6-46.6,28.8-.1.2-.1.4,0,.5,0,0,.2,0,.2,0s.2,0,.3-.1c.2-.2,17-19.6,46.3-28.6.2,0,.3-.3.3-.5,0-.2-.3-.3-.5-.3Z"/>
  <path class="st0" d="M183,136.2c-.2,0-.4,0-.5.3,0,.2,0,.4.3.5,29.2,9,46.1,28.4,46.3,28.6,0,0,.2.1.3.1s.2,0,.2,0c.2-.1.2-.4,0-.5-.2-.2-17.2-19.7-46.6-28.8Z"/>
  <path class="st0" d="M9,155.4c.2-.1.2-.4,0-.5-.1-.2-.4-.2-.5,0-.1.1-3,2.5-5.5-.3-.1-.2-.4-.2-.5,0-.2.1-.2.4,0,.5,2.5,2.8-.2,5.4-.3,5.5-.2.1-.2.4,0,.5,0,0,.2.1.3.1s.2,0,.3,0c0,0,2.3-2.2,1.4-4.8,2.5,1.2,4.9-.8,5-.8Z"/>
  <path class="st0" d="M17.3,147.6c-.2.1-.2.4,0,.5,0,.1.2.2.3.2s.2,0,.2,0c0,0,2.6-1.9,2.1-4.6,2.3,1.5,5-.2,5-.2.2-.1.2-.3.1-.5-.1-.2-.3-.2-.5-.1-.1,0-3.3,2.1-5.4-1,0,0,0,0,0,0-.1-.2-.4-.2-.5-.1-.2.1-.2.4-.1.5,2.1,3.1-.9,5.3-1,5.4Z"/>
  <path class="st0" d="M34,138.2c0,0,.1,0,.2,0,0,0,2.9-1.3,2.9-4.1,2,1.9,4.9.8,5,.8.2,0,.3-.3.2-.5,0-.2-.3-.3-.5-.2-.2,0-3.7,1.4-5.1-2.1,0-.2-.3-.3-.5-.2-.2,0-.3.3-.2.5,1.5,3.5-2,5-2.1,5.1-.2,0-.3.3-.2.5,0,.1.2.2.3.2Z"/>
  <path class="st0" d="M53.7,130.7s0,0,.1,0c0,0,3-.9,3.4-3.7,1.8,2.1,4.8,1.4,4.8,1.4.2,0,.3-.3.3-.5,0-.2-.3-.3-.5-.3-.2,0-3.8.9-4.8-2.7,0-.2-.3-.3-.5-.3-.2,0-.3.3-.3.5,0,0,0,0,0,0,1,3.7-2.6,4.8-2.7,4.8-.2,0-.3.3-.3.5,0,.2.2.3.4.3Z"/>
  <path class="st0" d="M71.9,125.7s0,0,0,0c0,0,3.1-.7,3.7-3.4,1.6,2.3,4.7,1.8,4.7,1.8.2,0,.3-.2.3-.4,0-.2-.2-.3-.4-.3-.2,0-3.9.6-4.6-3.1,0,0,0,0,0,0h0c0-.2-.2-.3-.4-.3-.2,0-.3.2-.3.4.7,3.7-2.9,4.6-3.1,4.6-.2,0-.3.2-.3.5,0,.2.2.3.4.3Z"/>
  <path class="st0" d="M89.9,121.7c0,.2.2.3.4.3s0,0,0,0c0,0,3.2-.4,4-3.1,1.4,2.4,4.5,2.2,4.5,2.2.2,0,.4-.2.4-.4,0-.2-.2-.3-.4-.4-.2,0-3.9.2-4.3-3.5,0-.2-.2-.4-.4-.3-.2,0-.4.2-.3.4.4,3.8-3.3,4.3-3.5,4.3-.2,0-.4.2-.3.4Z"/>
  <path class="st0" d="M1.1,151.7c-.6,0-1.1.5-1.1,1.1s.5,1.1,1.1,1.1,1.1-.5,1.1-1.1-.5-1.1-1.1-1.1Z"/>
  <path class="st0" d="M17.2,140.9c.6,0,1.1-.5,1.1-1.1s-.5-1.1-1.1-1.1-1.1.5-1.1,1.1.5,1.1,1.1,1.1Z"/>
  <path class="st0" d="M35.4,131c.6,0,1.1-.5,1.1-1.1s-.5-1.1-1.1-1.1-1.1.5-1.1,1.1.5,1.1,1.1,1.1Z"/>
  <path class="st0" d="M55.8,123.7c.6,0,1.1-.5,1.1-1.1s-.5-1.1-1.1-1.1-1.1.5-1.1,1.1.5,1.1,1.1,1.1Z"/>
  <path class="st0" d="M74.8,118.8c.6,0,1.1-.5,1.1-1.1s-.5-1.1-1.1-1.1-1.1.5-1.1,1.1.5,1.1,1.1,1.1Z"/>
  <path class="st0" d="M93.9,115.6c.6,0,1.1-.5,1.1-1.1s-.5-1.1-1.1-1.1-1.1.5-1.1,1.1.5,1.1,1.1,1.1Z"/>
  <path class="st0" d="M237.4,155c.1-.2.1-.4,0-.5-.2-.1-.4-.1-.5,0-2.5,2.8-5.4.4-5.5.3-.2-.1-.4-.1-.5,0-.1.2-.1.4,0,.5,0,0,2.5,2,5,.8-.9,2.7,1.4,4.8,1.4,4.8,0,0,.2,0,.3,0s.2,0,.3-.1c.1-.2.1-.4,0-.5-.1-.1-2.9-2.7-.3-5.5Z"/>
  <path class="st0" d="M220.1,143.6c-.5,2.8,2,4.6,2.1,4.6,0,0,.1,0,.2,0,.1,0,.2,0,.3-.2.1-.2,0-.4,0-.5-.1,0-3.2-2.3-1-5.4.1-.2,0-.4-.1-.5-.2-.1-.4,0-.5.1,0,0,0,0,0,0-2.1,3.1-5.3,1.1-5.4,1-.2-.1-.4,0-.5.1-.1.2,0,.4.1.5,0,0,2.7,1.7,5,.2Z"/>
  <path class="st0" d="M197.7,134.9s3,1.1,5-.8c0,2.8,2.9,4.1,2.9,4.1,0,0,.1,0,.2,0,.1,0,.3,0,.3-.2,0-.2,0-.4-.2-.5-.1,0-3.6-1.6-2.1-5.1,0-.2,0-.4-.2-.5-.2,0-.4,0-.5.2-1.4,3.4-5,2.2-5.1,2.1-.2,0-.4,0-.5.2,0,.2,0,.4.2.5Z"/>
  <path class="st0" d="M177.8,128.3s3.1.7,4.8-1.4c.4,2.8,3.4,3.7,3.4,3.7,0,0,0,0,.1,0,.2,0,.3-.1.4-.3,0-.2,0-.4-.3-.5-.2,0-3.7-1.2-2.7-4.8,0,0,0,0,0,0,0-.2,0-.4-.3-.5-.2,0-.4,0-.5.3-1,3.6-4.7,2.7-4.8,2.7-.2,0-.4,0-.5.3,0,.2,0,.4.3.5Z"/>
  <path class="st0" d="M164.9,120.3c0-.2,0-.4-.3-.4-.2,0-.4,0-.4.3,0,0,0,0,0,0-.7,3.7-4.4,3.1-4.6,3.1-.2,0-.4.1-.4.3,0,.2.1.4.3.4,0,0,3.1.5,4.7-1.8.6,2.7,3.7,3.4,3.7,3.4,0,0,0,0,0,0,.2,0,.3-.1.4-.3,0-.2,0-.4-.3-.5-.2,0-3.8-.9-3.1-4.6Z"/>
  <path class="st0" d="M141,120.4c-.2,0-.4.1-.4.4,0,.2.1.4.4.4,0,0,3.2.2,4.5-2.2.8,2.7,3.9,3.1,4,3.1,0,0,0,0,0,0,.2,0,.4-.1.4-.3,0-.2-.1-.4-.3-.4-.2,0-3.9-.5-3.5-4.3,0-.2-.1-.4-.3-.4-.2,0-.4.1-.4.3-.4,3.7-4.2,3.5-4.3,3.5Z"/>
  <path class="st0" d="M238.7,151.7c-.6,0-1.1.5-1.1,1.1s.5,1.1,1.1,1.1,1.1-.5,1.1-1.1-.5-1.1-1.1-1.1Z"/>
  <path class="st0" d="M222.7,140.9c.6,0,1.1-.5,1.1-1.1s-.5-1.1-1.1-1.1-1.1.5-1.1,1.1.5,1.1,1.1,1.1Z"/>
  <path class="st0" d="M204.4,131c.6,0,1.1-.5,1.1-1.1s-.5-1.1-1.1-1.1-1.1.5-1.1,1.1.5,1.1,1.1,1.1Z"/>
  <path class="st0" d="M184,123.7c.6,0,1.1-.5,1.1-1.1s-.5-1.1-1.1-1.1-1.1.5-1.1,1.1.5,1.1,1.1,1.1Z"/>
  <path class="st0" d="M165,118.8c.6,0,1.1-.5,1.1-1.1s-.5-1.1-1.1-1.1-1.1.5-1.1,1.1.5,1.1,1.1,1.1Z"/>
  <path class="st0" d="M147,114.5c0-.6-.5-1.1-1.1-1.1s-1.1.5-1.1,1.1.5,1.1,1.1,1.1,1.1-.5,1.1-1.1Z"/>
</svg>