<?xml version="1.0" encoding="UTF-8"?>
<svg id="_レイヤー_1" xmlns="http://www.w3.org/2000/svg" version="1.1" viewBox="0 0 16 16">
  <!-- Generator: Adobe Illustrator 29.1.0, SVG Export Plug-In . SVG Version: 2.1.0 Build 142)  -->
  <path d="M13.1,4.2s0,3.4-3.6,6.2c-1.9,1.5-4.4,1.9-6.1,1.3-.1,0-.3,0-.4-.1h0c-.4-.1-.8-.4-1.1-.7,0,0-1.6-2.7,1.1-3.4,1.5-.4,4.8,2.4,5.3,2.8L12.1,0l-3.7,6.5h-1.6c0,.1-.3.9-.3.9l-.8-.7-3.4.3-1.5,1.1c0,3.4,2.4,4.8,2.4,4.8,0,0,1.1.9,2.8,1.3l1.5-1.1,1.1,1.1c.8-.1,1.6-.5,2.5-1.1.7-.4,1.2-.9,1.6-1.6v-3.4h1.3c.1-1.9-.3-3.4-.7-4h-.1Z"/>
</svg>