<?xml version="1.0" encoding="UTF-8"?>
<svg id="_レイヤー_1" data-name="レイヤー_1" xmlns="http://www.w3.org/2000/svg" version="1.1" viewBox="0 0 11.6 11.4">
  <!-- Generator: Adobe Illustrator 29.3.1, SVG Export Plug-In . SVG Version: 2.1.0 Build 151)  -->
  <defs>
    <style>
      .st0 {
        fill: #fff;
      }
    </style>
  </defs>
  <path class="st0" d="M2.9,11.3c0-.4,1-1.6.9-2.6,0-.7-.7-1.5-.7-1.5-.3-.4-.9-1.2-.9-1.9,0-1.5,1.3-2.4,1.3-3.5S3,0,3,0h1.3s.5.7.5,1.7-1.3,2-1.3,3.5.6,1.4.9,1.9c0,0,.7.8.7,1.5,0,1-.9,2.2-.9,2.6h-1.3Z"/>
  <path class="st0" d="M5,11.3c0-.4,1-1.6.9-2.6,0-.7-.7-1.5-.7-1.5-.3-.4-.9-1.2-.9-1.9,0-1.5,1.3-2.4,1.3-3.5S5.1,0,5.1,0h1.3s.5.7.5,1.7-1.3,2-1.3,3.5.6,1.4.9,1.9c0,0,.7.8.7,1.5,0,1-.9,2.2-.9,2.6h-1.3Z"/>
  <path class="st0" d="M7.2,11.3c0-.4,1-1.6.9-2.6,0-.7-.7-1.5-.7-1.5-.3-.4-.9-1.2-.9-1.9,0-1.5,1.3-2.4,1.3-3.5S7.3,0,7.3,0h1.3s.5.7.5,1.7-1.3,2-1.3,3.5.6,1.4.9,1.9c0,0,.7.8.7,1.5,0,1-.9,2.2-.9,2.6h-1.3Z"/>
</svg>