<?xml version="1.0" encoding="UTF-8"?>
<svg id="_レイヤー_1" data-name="レイヤー_1" xmlns="http://www.w3.org/2000/svg" version="1.1" viewBox="0 0 36.4 36.4">
  <!-- Generator: Adobe Illustrator 29.1.0, SVG Export Plug-In . SVG Version: 2.1.0 Build 142)  -->
  <defs>
    <style>
      .st0 {
        fill: #fff;
      }
    </style>
  </defs>
  <path class="st0" d="M33.2,17.5c-.2-.2-4.7-4-10.8-5.4l4.6-1.5c.4-.1.7-.7.6-1.2-.1-.5-.6-.8-1-.6l-6.1,2,5.1-7c.3-.4.2-1-.1-1.3-.3-.3-.9-.3-1.1.1l-5.4,7.4V.9c0-.5-.4-.9-.8-.9s-.8.4-.8.9v9l-5.4-7.4c-.3-.4-.8-.4-1.1-.1-.3.3-.4.9-.1,1.3l5.1,7-6.1-2c-.4-.1-.9.1-1,.6-.1.5.1,1,.6,1.2l4.6,1.5c-6.1,1.4-10.5,5.2-10.8,5.4-.2.2-.3.5-.3.7s.1.6.3.7c.2.2,4.7,4,10.8,5.4l-4.6,1.5c-.4.1-.7.7-.6,1.2.1.4.4.7.8.7s.1,0,.2,0l6.1-2-5.1,7c-.3.4-.2,1,.1,1.3.2.1.3.2.5.2s.5-.1.6-.3l5.4-7.4v9c0,.5.4.9.8.9s.8-.4.8-.9v-9l5.4,7.4c.2.2.4.3.6.3s.4,0,.5-.2c.3-.3.4-.9.1-1.3l-5.1-7,6.1,2c0,0,.1,0,.2,0,.4,0,.7-.3.8-.7.1-.5-.1-1-.6-1.2l-4.6-1.5c6.1-1.4,10.5-5.2,10.8-5.4.2-.2.3-.5.3-.7s-.1-.6-.3-.7ZM14.7,18.2c0-1.9,1.6-3.4,3.5-3.4s3.5,1.5,3.5,3.4-1.6,3.4-3.5,3.4-3.5-1.5-3.5-3.4ZM15.7,13.7c-1.5.9-2.6,2.6-2.6,4.6s1,3.7,2.6,4.6c-4.8-.7-8.8-3.3-10.6-4.6,1.8-1.3,5.8-3.8,10.6-4.6ZM20.7,22.8c1.5-.9,2.6-2.6,2.6-4.6s-1-3.7-2.6-4.6c4.8.7,8.8,3.3,10.6,4.6-1.8,1.3-5.8,3.8-10.6,4.6Z"/>
</svg>