<?xml version="1.0" encoding="UTF-8"?>
<svg id="_レイヤー_1" data-name="レイヤー_1" xmlns="http://www.w3.org/2000/svg" version="1.1" viewBox="0 0 34.6 34.6">
  <!-- Generator: Adobe Illustrator 29.1.0, SVG Export Plug-In . SVG Version: 2.1.0 Build 142)  -->
  <defs>
    <style>
      .st0 {
        fill: #040000;
      }
    </style>
  </defs>
  <path class="st0" d="M17.3,27.7c-.3.5-.9,2.3-.4,2.6.2.1.4.2.6.2.4,0,.8-.2,1-.6l2.1-3.7h-2.6l-.7,1.5ZM30.3,8.7l-.7.6-1.5-1.6h.1c0,0-4.4,0-4.4,0h.1c0,.1-1.6,3.2-1.6,3.2l-1.8-1.7,1.1-1-.2-.5h-7.9c0,0-.2,0-.3,0,0,0,0,0,0,0,0,0-.1,0-.2,0,0,0,0,0,0,0,0,0-.1,0-.2.2,0,0,0,0,0,0,0,0-.1.1-.2.2,0,0,0,0,0,0l-.2,2.2-1.1,1.3-1.4,2.6-2-.8,1-1.2-1.3-3.9-2.6.7.5-1.5c-.3,0-.5,0-.8.1-.5.3-.7,1-.4,1.6l4.6,7.7h2.8l-.3-1.4,2.8-5.7h2l.6-1.8,1.5,1.8.9.7-6.2,9.9-.4-3.2h-3.4c0,0,1.1,1.8,1.1,1.8h.9v.3h-.8l2.1,3.6s0,0,0,.1h4.1l.2,1.1,3.2-1.6-1.9,3,3-.6,2.7-4.1h-2.2s2.6-1.2,2.6-1.2l1-1.8s0,0,0,0l.9-1.6c.2-.4.2-.8,0-1.1l-.3-.5-.5.3-1.4-1.4,1-.5-1.8-3.1h5.7c.6,0,1.1-.5,1.1-1.1s0,0,0,0ZM24.3,15.1l-3.5,6.2h-5.1l.4-.7-.9-1,2.1-1,3.8-7.9,3.3,4.4Z"/>
</svg>