<?xml version="1.0" encoding="UTF-8"?>
<svg id="_レイヤー_1" data-name="レイヤー_1" xmlns="http://www.w3.org/2000/svg" version="1.1" viewBox="0 0 34.6 34.6">
  <!-- Generator: Adobe Illustrator 29.1.0, SVG Export Plug-In . SVG Version: 2.1.0 Build 142)  -->
  <defs>
    <style>
      .st0 {
        fill: #040000;
      }
    </style>
  </defs>
  <path class="st0" d="M24.4,25l-.2.3-.2-.3h-3l.8.9h-6l-1.1-1.3h0s0,0,0,0l-2.1-2.2,2.8,1.2-.2-1.7,1.7,1.4,1.8-.4c0,0,.6.4.7.3l1.3,1.4h0c0-.1,3.5-.8,3.5-.8l-3.2-2.3,1.3-1.6-1.2-1.2,3-1.4.6,1.2,2.7,1.9-2.4,4.1h2.9l3-3.8s0-.1,0-.2c0,0,0,0,0,0,0,0,0,0,0,0,0,0,0,0,0,0,0,0,0-.1,0-.2,0,0,0,0,0,0l-1.4.2,1.4-1.8-1.1-3.8-.4,1.1-1.5-2.3,1.4-.7-.5-2c0-.3-.3-.6-.6-.8l-1.8-.9h-3.7l-1-1,4.1.7-2.9-1.4-1.3.2.3-.8-6-2.9.2,1.6-2.3-1.6-6.5,3.1c-.3.1-.5.4-.6.8l-.8,3.3,1.5,1.8-2,.4-.5,2.2c0,.3,0,.7.2,1l3.6,4.5,1.8-.8.6,1.2-1.3,1,.3.3c0,0,.1.1.2.2l2.7,5.1,2.2-1.4.6,1.3-.3.6,5.6-.4,2.8-1.9.8,1.6s0,0,0,0c0,0,0,0,0,0,0,0,0,0,0,0l2.2-2.7h-2.9ZM26.9,11.9l1.4,5.9-3.3-1.6c0-.2,0-.4,0-.6l-1.2-5.2,3.1,1.5ZM19.3,19.9l-1.2-1.4-1,.7-1.4-1.4,1.3-.6-4.1-4.6,8.8,4.4-2.2,2.8ZM10.7,6.5l.5,1.4,3.8-1.8,2.1,1-5.3,2.5h-.2c0,0,0,0,0,0l-2.8-.6,1.7-2.6ZM8.8,19.1l-2.2-1.7,1.5-1-.6-.8.8-4.7,1.7,2-.6,2.6.8,1.1-1.4,2.4ZM9,11.3v-.9s5.6.7,5.6.7h0s1.8-.9,1.8-.9l.7-1.9,1,2.1,1.7-1.8,1.5.7,2.2,7.2-3.7-2.8-.8,1.5-2.3-1.6.9-1-2.3-1.2h-6.1ZM10.8,19.7l1.1-4.7,5.3,5.9h-5.4l-1-1.2Z"/>
</svg>