<?xml version="1.0" encoding="UTF-8"?>
<svg id="_レイヤー_1" data-name="レイヤー_1" xmlns="http://www.w3.org/2000/svg" version="1.1" viewBox="0 0 11.6 11.4">
  <!-- Generator: Adobe Illustrator 29.3.1, SVG Export Plug-In . SVG Version: 2.1.0 Build 151)  -->
  <defs>
    <style>
      .st0 {
        fill: #fff;
      }
    </style>
  </defs>
  <path class="st0" d="M2.5,11.2c-.1,0-.2,0-.3-.1-.2-.1-.2-.3-.2-.5l.6-3.3L.2,4.9c-.2-.1-.2-.4-.1-.6,0-.2.2-.3.5-.4l3.4-.3L5.3.5c0-.2.3-.3.5-.3h0c.2,0,.4.1.5.3l1.6,3.2,3.3.4c.2,0,.4.2.5.4,0,.2,0,.4-.1.6l-2.5,2.4.7,3.2c0,.2,0,.4-.2.5s-.4.1-.6,0l-3-1.6-3,1.6c0,0-.2,0-.2,0ZM1.8,4.9l1.8,1.7c.1.1.2.3.2.5l-.5,2.5,2.3-1.2c.2,0,.3,0,.5,0l2.3,1.2-.5-2.4c0-.2,0-.4.2-.5l1.9-1.8-2.4-.3c-.2,0-.3-.1-.4-.3l-1.2-2.5-1.1,2.4c0,.2-.2.3-.4.3l-2.5.2Z"/>
</svg>