<?xml version="1.0" encoding="UTF-8"?>
<svg id="_レイヤー_1" data-name="レイヤー_1" xmlns="http://www.w3.org/2000/svg" version="1.1" viewBox="0 0 34.6 34.6">
  <!-- Generator: Adobe Illustrator 29.1.0, SVG Export Plug-In . SVG Version: 2.1.0 Build 142)  -->
  <defs>
    <style>
      .st0 {
        fill: #040000;
      }
    </style>
  </defs>
  <path class="st0" d="M15.4,7.7l.2.3h2.4l-1.4-2.9-1.2-1.1s0,0-.1.1l-2.7,3.9h2.7l.2-.3ZM29.2,27s0,0,0,0l-1.9-3.3h-2.7l1.6,2.8-5.1,1-2.3.7-1.5-1.6h.3c0-.1-5.2-.1-5.2-.1l3.3-4.5h3.9l2.7-1.4.6,1.3h0s.7,0,.7,0l.8,1.4h2.7l-1.7-3c0-.1-.1-.2-.2-.3l-1.2-2h-.5c0,.1-1.4-2.5-1.4-2.5l.3-.2-.8-1.4-.7.5-1.5-1.6,1.2-.6-1.6-3.8h-3.2l2.7,3.4-1.8,2.3.3.6-2.3,1.6-1.4-1.4,1.9-.9-1.8-3.2,1.4-2.5h-2.7l-2.4,4.2.8,1.1-1.7.5-1.7,3,2.8-.2,1.8-4,4,6.4-7.2.6,1.1-2.5h-2.7l-1.5,2.5c-.2.4-.2.8,0,1.2.2.4,4.3.6,4.7.6h.6s0,0,0,0h1.6l-1,1.8.5,1.6-1.4.4v-.2c-.1,0-1.2,1.9-1.2,1.9-.2.4,0,.4.2.8.2.4.6.6,1,.6h3.5l.6-1.7,1.4,1.7h12.3c0,0,.2,0,.3,0l-.5-1,1.2-.8ZM19.3,13.8l3,5.9-3.7-.4-1.2-1.3,1.9-4.1Z"/>
</svg>