<?xml version="1.0" encoding="UTF-8"?>
<svg id="_レイヤー_1" data-name="レイヤー_1" xmlns="http://www.w3.org/2000/svg" version="1.1" viewBox="0 0 34.6 34.6">
  <!-- Generator: Adobe Illustrator 29.1.0, SVG Export Plug-In . SVG Version: 2.1.0 Build 142)  -->
  <defs>
    <style>
      .st0 {
        fill: #040000;
      }
    </style>
  </defs>
  <path class="st0" d="M29,10.5l1.7-1.7h-3.4l-3.6,3.6-4.9-4.9s0,0,0,0l-2.1.8v-.3s-5.1,5.3-5.1,5.3l-6.5-7.9c-.4-.4-1.1-.5-1.6,0l1.1,1.3-1.4.2c0,0,0,.1.2.2l6.5,7.8-3.6,3.6c-.5.5-.2.8.2,1.3l3.1,3.7h6.5l1.9-1.9,2.4,2.4,2.2,1.9-2.8,1h0s-1.7,1.7-1.7,1.7l-3.5-3.5,1.3-1.3h-5.9l3.1,3.1v-.8c.1,0,2.5,1.9,2.5,1.9l-1,.4,2.8,2.8c0,0,.2.1.2.2l2.2-1.1h0c0,.1,4.3-4.2,4.3-4.2,0,0,0,0,0,0,0,0,0,0,0,0l.7-.7-1-1.1,3.3-1.7v.3c.1,0,2.7-2.6,2.7-2.6.1-.1.2-.3.3-.4h-3.3l-3.7,3.7-3.5-3.5.2-.2,1.2-3.4.6,1.6,2-2,3.3,3.3h3.1c0-.2-.1-.5-.3-.7l-4.4-4.4,3-3h-2.3v-.6h2.9ZM12.8,23.4l-2.9-2.9-.6.4-1.6-1.7,2.1-1,2.4-2.4,2.8,3.9-2.3,3.6ZM17.8,17.3l-3.9-3.1.4-.4-1.4-1.4,3.3-1.7.4.7,1.4-1.4,4,4-4.2,3.1ZM32.6,5.3c-.5-.5-.9.4-1.4.9l-3.6,2.3h3.4l1.5-1.5c.5-.5.5-1.2,0-1.7Z"/>
</svg>