<?xml version="1.0" encoding="UTF-8"?>
<svg id="_レイヤー_1" xmlns="http://www.w3.org/2000/svg" version="1.1" viewBox="0 0 36.4 36.4">
  <!-- Generator: Adobe Illustrator 29.1.0, SVG Export Plug-In . SVG Version: 2.1.0 Build 142)  -->
  <defs>
    <style>
      .st0 {
        fill: #fff;
      }
    </style>
  </defs>
  <path class="st0" d="M18.1,2.6c-.5,0-1,0-1.5,0,0,0-.1,0-.2,0-.5,0-.9.1-1.4.2,0,0,0,0,0,0-.5.1-1,.2-1.5.4,0,0,0,0,0,0-6.3,2-10.9,7.9-10.9,14.8s7,15.5,15.5,15.5,15.5-7,15.5-15.5S26.7,2.6,18.2,2.6s0,0,0,0,0,0,0,0ZM4.1,18.2c0-7,5.1-12.8,11.8-13.9,5.1,2.5,8.6,7.8,8.6,13.8s-3.6,11.4-8.7,13.9c-6.6-1.1-11.7-6.9-11.7-13.8Z"/>
</svg>