<?xml version="1.0" encoding="UTF-8"?>
<svg id="_レイヤー_1" data-name="レイヤー_1" xmlns="http://www.w3.org/2000/svg" version="1.1" viewBox="0 0 34.6 34.6">
  <!-- Generator: Adobe Illustrator 29.1.0, SVG Export Plug-In . SVG Version: 2.1.0 Build 142)  -->
  <defs>
    <style>
      .st0 {
        fill: #040000;
      }
    </style>
  </defs>
  <path class="st0" d="M9.8,22h2.6l-.8-4.9-2,.2.8-2.3.8.9,2.9-2.4-3-.5-3.1,2.2c-.4.3-.2.6,0,1.1l1.8,5.7ZM18.5,9.4v-2.8c0-.7-.6-3.8-1.2-3.8s-.3,0-.5,0l.5,1.4-1.2,1v4.1l-1.3.9,4.6-.3-.8-.6ZM28,29.7l-3.5-5.5-2.2.9,1.6-2.8.5.6,2-6.1-1.1-1.1,1-.5c0,0-.2-1-.3-1l-2.9-1.3-1.3,1-1.6-1.7,1.2-.6-.7-.5h-6.8l-2.4,1.7h4.2l.3-.2v.2l1.1.2h.1c0,.1-1.2.1-1.2.1v5.9c0,.7.6,1.2,1.2,1.2s.3,0,.4,0l-1.1-1.2,1.9-1,.4-4.5,5.4,2.7-3.4,7-7.9,1.6-.6-2.4h-2.6l1.7,2.9-5.1,4.5c-.4.4-.4,1-.2,1.4l2.1-1,.4.8,3.9-4.2h1.4l-.3-1,3.6.3v.7s4.2,0,4.2,0l1.1,1.2.2-.5,1.5,1.8h-.4c0,0,2,2.2,2,2.2.2.3.6.4.9.4s.6-.1.8-.3c.5-.5.5-1.3,0-1.8Z"/>
</svg>