<?xml version="1.0" encoding="UTF-8"?>
<svg id="_レイヤー_1" data-name="レイヤー_1" xmlns="http://www.w3.org/2000/svg" version="1.1" viewBox="0 0 34.6 34.6">
  <!-- Generator: Adobe Illustrator 29.1.0, SVG Export Plug-In . SVG Version: 2.1.0 Build 142)  -->
  <defs>
    <style>
      .st0 {
        fill: #040000;
      }
    </style>
  </defs>
  <path class="st0" d="M15.5,21c-.7,0-.6,1-.6,1.6l-.5,4.7c0,.2,0,.5.2.6l.4-1.3,1.5,1.8h4.2c.7,0,1.2-.5,1.2-1.2v-5.5q0-.7-1.2-.7h-.3l.5.6-3.3.6.4-1.2h-2.4ZM19.4,23.4l-.9,2.1-1.9.6v-2.7h2.7ZM26.3,19.2l-7.3-4.2-.2-2.6,2.3.8h4l-1.8-1.3-1.7-.4.5-.5-3.4-1.8.6-3.7h-1.7v-.3h1.7v-1.9c0-.6-.5-1.2-1.1-1.2l.3.3-1.5.6c0,.1,0,.2,0,.3v5.7l-3.4,2.5h.7v.3h-1.1l-5,3.6.8.9-1.4.3c0,.2,0,.4.2.6.2.3.6.5,1,.5s.5,0,.7-.2l1.1-.8h-.1c0-.1.8-.5.8-.5l5.7-4.2v2.3l-2.7,1.9h0c0,.1-2.4,2-2.4,2l-.2-.2-1.8,1.3c-.3.2-.5.6-.5,1v3.2l.7.8h-.7v7.1c0,.7.5,1.2,1.2,1.2h12.3l2.6-1.2.6,1.1c.4-.2.7-.6.7-1.1v-3.7l-1.2.9-1.1-1.1v2.8h-7.9l-2.2,1.6-1.5-1.5h.2c0-.1-.9-.1-.9-.1l-1.2-9.9,7-3,6.3,3.5v1.5h2.4v-2.1c0-.4-.2-.7-.5-1ZM28.2,15.5l-2.2-1.6h-4l4.9,3.5c.2.2.5.2.7.2.4,0,.7-.2,1-.5.4-.5.3-1.3-.3-1.7ZM24.4,26.9l2.4-1.1v-3.2h-2.4v4.3Z"/>
</svg>