<?xml version="1.0" encoding="UTF-8"?>
<svg id="_レイヤー_1" data-name="レイヤー_1" xmlns="http://www.w3.org/2000/svg" version="1.1" viewBox="0 0 34.6 34.6">
  <!-- Generator: Adobe Illustrator 29.1.0, SVG Export Plug-In . SVG Version: 2.1.0 Build 142)  -->
  <defs>
    <style>
      .st0 {
        fill: #040000;
      }
    </style>
  </defs>
  <path class="st0" d="M18.2,3.2l-.5.4-1.4-1.5c-.3.2-.5.6-.5,1v1.7h2.5v-1.6ZM7.5,24.7c-.5.5-.5,1.3,0,1.8.2.2.5.3.8.4l-.4-.3,1.6-.8.4-1.1.5.6,2-2h-3.5l-1.5,1.5ZM30.2,16.4c-.2-.4-.6-.7-1.1-.7h-3.5l-2.1,1.6-1.6-1.7,1.5-.8c-.2-.6-.5-1.2-.9-1.7l1.5-1.5-1.2-1.2,3.3-1.5.2.4h0c.5-.5.5-1.3,0-1.8-.5-.5-1.3-.5-1.8,0l-3.9,3c-.8-.5-2.9.8-3.8.6l1.2-6h-2.5v5.2s0,0,0,0c0,0,0,0,0,0-.9.2-3.1.7-3.8,1.2l-2.6-4c-.5-.5-2.3-.8-2.8-.3-.5.5.6,1.6,1,2.1l.4.4,1-1.1,1,3h-.2s1.7,1.6,1.7,1.6c-.5.8-.9,1.6-1.1,2.6h-5.5c-.7,0-1.2.6-1.2,1.2s.6,1.2,1.2,1.2h.7l.3-1.8,1.3,1.1h2.7v.7h.3c.1.7.4,1.4.7,2.1,0,0,0,0,0,0,0,0,0,0,0,0,0,.2.2.3.3.4l-1.7,1.7h7v.6h-2.7c0,0,.2,0,.3.1,0,0,0,0,0,0,.2.1.5.2.8.3,0,0,.1,0,.2,0,.1,0,.3,0,.4,0v7c0,.7.6,1.2,1.2,1.2s1.2-1.7,1.2-2.4v-1.6l-1.2.2.8-2.3.4.4v-2.7c1-.2,1.9-.6,2.6-1.1l3.8,3.8c.2.2.5.3.7.4l.8-2.3-3.6-3.6c.5-.8.9-1.7,1.1-2.6h5.4c.4,0,.7-.2.9-.4l-.9-.9,1.1-.5ZM12.6,17.3c0-.1,0-.2,0-.4s0-.2,0-.3c0-1,.5-1.9,1.2-2.5,0,0,0,0,.1,0,0,0,0,0,0,0,.4-.4.9-.7,1.5-.9.5.6.8,1.4.8,2.1,0,1.9-1.5,3.4-3.4,3.4-.1-.4-.2-.8-.3-1.2ZM21.4,20c-.1,0-1.3-.2-1.4,0-.1.1-.2.3-.3.4-.5.4-1.2.7-1.9.9l-.7.5-.5-.5s0,0-.1,0c0,0,0,0,0,0,0,0,0,0-.1,0-.1,0-.3,0-.4,0,0,0,0,0-.1,0-.2,0-.3-.1-.5-.2,0,0,0,0,0,0-.1,0-.3-.1-.4-.2,0,0,0,0,0,0,.3-.1.6-.2.9-.4h-.1c0-.1.9-.5.9-.5,1.3-1,2.2-2.5,2.3-4.2l-.7.3.4-2.6c0-.1,0-.2-.1-.4,0,0,0,0,0,0,0,0,0,0,.1,0v-.2s.8.6.8.6c0,0,0,0,.1,0,0,0,0,0,.1,0,.1,0,.2.2.3.3,0,0,0,0,0,0h0c0,0,0,0,0,.1,0,0,0,0,0,0l.9.8h-.3c0,.1,0,.2,0,.2,0,0,0,0,0,.1,0,.2.1.3.2.5,0,0,0,0,0,0,0,.2.1.4.1.6,0,0,0,0,0,.1,0,0,0,.1,0,.2,0,.1,0,.2,0,.3s0,.3,0,.4c0,.9.7,2,.1,2.7Z"/>
</svg>