<?xml version="1.0" encoding="UTF-8"?>
<svg id="_レイヤー_1" data-name="レイヤー_1" xmlns="http://www.w3.org/2000/svg" version="1.1" viewBox="0 0 34.6 34.6">
  <!-- Generator: Adobe Illustrator 29.1.0, SVG Export Plug-In . SVG Version: 2.1.0 Build 142)  -->
  <defs>
    <style>
      .st0 {
        fill: #040000;
      }
    </style>
  </defs>
  <path class="st0" d="M22.8,28.1l-1.4-.5.8,1.9c.2.4.5.6.9.6s.3,0,.4,0c.5-.2.7-.8.5-1.3l-1.3-.6ZM6.7,21.6s0,0,0,0h-.3c0,.1.4,0,.3,0ZM29.5,9.9l-1.3.2.6-1.6c-.3,0-.5,0-.7.2l-4,3.8-1.7-1.6-1.8.7.2-1.4-1.7-.8v-3.2l-1.3.2.8-2.3.5.6v-1.2c0-.5-.4-1-1-1s-1,2.1-1,2.7v3.5h.2c0-.1.5.9.5.9l-1.9,1.4-.8-.8-3,1.5-1.7-1.3c-.4-.3-4-2.4-4.3-2-.3.4.4,1.5.8,1.8l2,1.5.4-1.1,1.6,1.9h-.7c0,.1.5.5.5.5l-1.3,5.7-1.9.5h3.9l2.2-5.6h0s-1.6-.8-1.6-.8l2.6-1.2.4.7,2.9-.7,4.3,1.3s-5.9,3.3-6.4,3.8c-.5.5,0,1.5,0,1.5l4.1,5.6-4.9-.5-3.3-3.6h-6c-.5.2-.7.7-.6,1.2.1.4,1.1.6,1.5.6l.8-.2.6-1.5.9,1.1.9-.3,3.5,4.4-1.6,3.5c-.2.5,0,1.1.5,1.3.1,0,.3,0,.4,0,.4,0,.7-.2.9-.6l.5-1.1-1.2.2,1.3-4.3.4,2.9.6-1.3h5.5l.5,1.1,3.6.5-2.3-2.4,1-1.3-1.1-1,2.6-1.2v.2c0,0,2.3-1.2,2.3-1.2.2-.2-.8-.9-.8-1.2h0c0,0-.9.6-.9.6l-1.6-1.6,2.1-1-1-4.2,3.9-3c.1-.1.2-.3.3-.4ZM21.6,23.1l-1.8-4.1,3.3,1.3-1.5,2.8ZM21.3,17.3l-1.4.3.8-2.3.7.9,2.1-2.8.8,4.8-3-.8Z"/>
</svg>