<?xml version="1.0" encoding="UTF-8"?>
<svg id="_レイヤー_1" data-name="レイヤー_1" xmlns="http://www.w3.org/2000/svg" version="1.1" viewBox="0 0 281.8 47.2">
  <!-- Generator: Adobe Illustrator 29.1.0, SVG Export Plug-In . SVG Version: 2.1.0 Build 142)  -->
  <defs>
    <style>
      .st0 {
        fill: #040000;
      }
    </style>
  </defs>
  <path class="st0" d="M271,15.8c-2.2-3.5-1.1-5.4-2.6-8.1-.4-.8-1.3-1.8-2.2-2.2-2.2-.9-4.3-1-6.5-1.1-6.6-.2-13.1.4-19.6.7-2.7.2-5.2-.2-7.7-.2-6.5-.2-.3-1.3-6.8-1.8-5.2-.4-10.4-1-15.6-2.1l-1.3.2s-6.9,4.3-8.6,5.4C190.7,2.8,181,1,171.1,0c-9.5-.3-17.2,5.4-26,7-4.5.6-8.5-.3-13.1-1.5-3.2-.8-7-2.1-10.3-2.6-3.8-.4-7,0-10.6,0-6.9.3-13.6.8-20.4,1.9-1.8.4-3.2.6-4.8.7-5.1.3-9.8-.9-15.1-.9-3.4-.1-6.8,1.3-10.1,1.8-6.4,1-13,0-19.4-1.7L0,7.2c6.8.9,54.2,3.3,61.1,2.1,3.3-.5,6.3-2,9.7-1.8,5.8,0,11.9,1.9,17.8,1.2,7.4-1.1,15-.9,22.4-.4,3.1.2,6.7.5,9.6,1.1,2.2.6,6.6,2.7,8.9,3.6,15.4,6.7,22.2,2.9,36.9-1.3,1.8-.4,2.8-.6,4.1-.5,9.8,1,19.7,1.4,29.4-.4,0,0,.8,0,.8,0,0,0,9.3-.7,10.2-.7,13.8-3,15.2-2.7,29.2-2,3.7,0,8-.2,11.7-.1,4.2.1,8.7-.1,12.6,1.3,2.8,4.3,16,18.8,11.6,22.1-.4.3-.8.4-1.2.5,0,0-.1,0-.3,0h-.4s-1.8.2-1.8.2c0,0-1.9,0-1.9,0-21.9.6-38.4-4.8-60.4-4.2-4.7.1-16.4,10.6-21.1,10.9-3.9.3-20.2-.2-24,.4.1,0,12.5-4.8,12.6-4.9,4.1-3.2,8.2-6.5,12.1-10l7.5-3.8c-5.1,1.6-18,6.3-22.8,8.4-5.3,2.4-10.4,4.7-15.3,8.1-1,.7-2.3,2-2.7,3.3-1,2.5-13.8,4.3-11.1,5,.8.3,15.6,1.8,16.3,1.9,1.7,0,3.5,0,5-.1,7.7-.5,15.3-1.3,22.9-1.6,9.1-.3,22-.6,31-1.2,16.9-1,33.9-2.3,50.8-4.7,1.1-.1,3-.5,4.1-.7,1.9-.3,3.7-1.2,5.1-2.5,5.5-5.6-5-13.6-9.3-20.5ZM164.9,44.6c0,0,0,0,0,0,0,0,.1-.1.2-.2,0,0,0,0,0,0h0Z"/>
  <path class="st0" d="M211.4,9.8s-.4,0-.4,0c-.3,0-.6.1-.9.2,0,0,1.4-.2,1.3-.2Z"/>
</svg>