<?xml version="1.0" encoding="UTF-8"?>
<svg id="_レイヤー_1" data-name="レイヤー_1" xmlns="http://www.w3.org/2000/svg" version="1.1" viewBox="0 0 73 68.3">
  <!-- Generator: Adobe Illustrator 29.1.0, SVG Export Plug-In . SVG Version: 2.1.0 Build 142)  -->
  <defs>
    <style>
      .st0 {
        fill: #040000;
      }
    </style>
  </defs>
  <path class="st0" d="M18.1,7.6s24.9-24.4,20.1,36.5c-5.4,0,1.2-3.5-12.8-18.7S-19.7-11.8,18.1,7.6Z"/>
  <path class="st0" d="M71.2,63.7l-7.9,4.6s-54.7-1.7-60.5-5.3-.6-19.8-.6-19.8c0,0,4-12.1,6.2-11.8s4.7,9.6,4.7,9.6c0,0,.9,5.9.8,9.2s49.5,18,51.4,12-.8-11.9-.8-11.9c2,1.5,3.8,2.4,3.8,2.4l-2.2-7-2-2.1-2.8-16.2s8.6,4.9,10.1,9.4,3.3,20.4,0,26.8Z"/>
  <path class="st0" d="M48.9,25.6s2.7,11.3,0,15.5-6.2,5.4-3.9,0,3.9-15.5,3.9-15.5Z"/>
</svg>