<?xml version="1.0" encoding="UTF-8"?>
<svg id="_レイヤー_1" xmlns="http://www.w3.org/2000/svg" version="1.1" viewBox="0 0 59.9 32.7">
  <!-- Generator: Adobe Illustrator 29.3.1, SVG Export Plug-In . SVG Version: 2.1.0 Build 151)  -->
  <defs>
    <style>
      .st0 {
        fill: #274926;
      }
    </style>
  </defs>
  <path class="st0" d="M44.7,26.2v6.2c.1,0,1.5-5.4,1.5-5.4,0,0,0-2.9,3.2-1.7s11,.8,10.5-.3-15-16.1-15-16.1c0,0-.1,13.4-1.1,14.5s-15.1,1.2-23.2-3.1S1.7,1.3,1.7,1.3c0,0,12.9,20.6,20,22.5s23,2.4,23,2.4ZM45.2,9.8s12.1,12.1,11.8,13.6-6.6,0-9.1-1.7c-2.7-1.7-2.7-11.9-2.7-11.9Z"/>
</svg>