<?xml version="1.0" encoding="UTF-8"?>
<svg id="_レイヤー_1" data-name="レイヤー_1" xmlns="http://www.w3.org/2000/svg" version="1.1" viewBox="0 0 147 23.5">
  <!-- Generator: Adobe Illustrator 29.3.1, SVG Export Plug-In . SVG Version: 2.1.0 Build 151)  -->
  <defs>
    <style>
      .st0 {
        fill: #274926;
      }
    </style>
  </defs>
  <path class="st0" d="M130.9,0v15.8l-50.4-7.8v.4c0,0,48.3,7.5,48.3,7.5H4.2c0-1.1-1-2-2.1-2s-2.1,1-2.1,2.1,1,2.1,2.1,2.1,2-.8,2.1-1.9h126.6v7.3h.4v-7.3h15.8L130.9,0ZM2.1,17.7c-1,0-1.8-.8-1.8-1.8s.8-1.8,1.8-1.8,1.8.8,1.8,1.8-.8,1.8-1.8,1.8ZM131.2.9l14.9,14.9h-14.9V.9Z"/>
</svg>