<?xml version="1.0" encoding="UTF-8"?>
<svg id="_レイヤー_1" data-name="レイヤー_1" xmlns="http://www.w3.org/2000/svg" version="1.1" viewBox="0 0 517.6 56.8">
  <!-- Generator: Adobe Illustrator 29.1.0, SVG Export Plug-In . SVG Version: 2.1.0 Build 142)  -->
  <defs>
    <style>
      .st0 {
        fill: #dbded1;
      }
    </style>
  </defs>
  <path class="st0" d="M180.5,23.9c-2.7,0-5,2.2-5,5s2.2,5,5,5,5-2.2,5-5-2.2-5-5-5ZM147.2,24.2c-.6-.2-1.2-.3-1.8-.3-2.7,0-5,2.2-5,5s2.2,5,5,5,1.2-.1,1.8-.3c-1.8-.7-3.2-2.5-3.2-4.6s1.3-3.9,3.2-4.6ZM110.3,23.9c-2.7,0-5,2.2-5,5s2.2,5,5,5,5-2.2,5-5-2.2-5-5-5ZM110.3,31.8c-1.6,0-2.9-1.3-2.9-2.9s1.3-2.9,2.9-2.9,2.9,1.3,2.9,2.9-1.3,2.9-2.9,2.9ZM75.2,23.9c-2.7,0-5,2.2-5,5s2.2,5,5,5,5-2.2,5-5-2.2-5-5-5ZM5,23.9C2.2,23.9,0,26.1,0,28.9s2.2,5,5,5,5-2.2,5-5-2.2-5-5-5ZM5,31.8c-1.6,0-2.9-1.3-2.9-2.9s1.3-2.9,2.9-2.9,2.9,1.3,2.9,2.9-1.3,2.9-2.9,2.9ZM41.6,24.2c-.6-.2-1.2-.3-1.8-.3-2.7,0-5,2.2-5,5s2.2,5,5,5,1.2-.1,1.8-.3c-1.8-.7-3.2-2.5-3.2-4.6s1.3-3.9,3.2-4.6ZM337.1,23.9c-2.7,0-5,2.2-5,5s2.2,5,5,5,5-2.2,5-5-2.2-5-5-5ZM372.2,23.9c-.6,0-1.2.1-1.8.3,1.8.7,3.2,2.5,3.2,4.6s-1.3,3.9-3.2,4.6c.6.2,1.2.3,1.8.3,2.7,0,5-2.2,5-5s-2.2-5-5-5ZM407.3,23.9c-2.7,0-5,2.2-5,5s2.2,5,5,5,5-2.2,5-5-2.2-5-5-5ZM407.3,31.8c-1.6,0-2.9-1.3-2.9-2.9s1.3-2.9,2.9-2.9,2.9,1.3,2.9,2.9-1.3,2.9-2.9,2.9ZM442.4,23.9c-2.7,0-5,2.2-5,5s2.2,5,5,5,5-2.2,5-5-2.2-5-5-5ZM512.7,23.9c-2.7,0-5,2.2-5,5s2.2,5,5,5,5-2.2,5-5-2.2-5-5-5ZM512.7,31.8c-1.6,0-2.9-1.3-2.9-2.9s1.3-2.9,2.9-2.9,2.9,1.3,2.9,2.9-1.3,2.9-2.9,2.9ZM477.9,23.9c-.6,0-1.2.1-1.8.3,1.8.7,3.2,2.5,3.2,4.6s-1.3,3.9-3.2,4.6c.6.2,1.2.3,1.8.3,2.7,0,5-2.2,5-5s-2.2-5-5-5ZM272.7,14.2l-13.4,13.4V8.6c0-.3-.2-.5-.5-.5s-.5.2-.5.5v18.9l-8.3-8.3c-.2-.2-.5-.2-.7,0-.2.2-.2.5,0,.7l8.8,8.8-13.9,13.9c-.2.2-.2.5,0,.7,0,0,.2.1.4.1s.3,0,.4-.1l13.4-13.4v18.9c0,.3.2.5.5.5s.5-.2.5-.5v-18.9l6.8,6.8c0,0,.2.1.4.1s.3,0,.4-.1c.2-.2.2-.5,0-.7l-7.3-7.3,13.9-13.9c.2-.2.2-.5,0-.7-.2-.2-.5-.2-.7,0ZM258.8,3.5c1,0,1.7-.8,1.7-1.7S259.7,0,258.8,0s-1.7.8-1.7,1.7.8,1.7,1.7,1.7ZM277.5,8.8c-1,0-1.7.8-1.7,1.7s.8,1.7,1.7,1.7,1.7-.8,1.7-1.7-.8-1.7-1.7-1.7ZM245.5,17c1,0,1.7-.8,1.7-1.7s-.8-1.7-1.7-1.7-1.7.8-1.7,1.7.8,1.7,1.7,1.7ZM269.7,38.1c-1,0-1.7.8-1.7,1.7s.8,1.7,1.7,1.7,1.7-.8,1.7-1.7-.8-1.7-1.7-1.7ZM258.8,53.3c-1,0-1.7.8-1.7,1.7s.8,1.7,1.7,1.7,1.7-.8,1.7-1.7-.8-1.7-1.7-1.7ZM241,45c-1,0-1.7.8-1.7,1.7s.8,1.7,1.7,1.7,1.7-.8,1.7-1.7-.8-1.7-1.7-1.7Z"/>
</svg>