<?xml version="1.0" encoding="UTF-8"?>
<svg id="_レイヤー_1" data-name="レイヤー_1" xmlns="http://www.w3.org/2000/svg" version="1.1" viewBox="0 0 670.7 670.7">
  <!-- Generator: Adobe Illustrator 29.3.1, SVG Export Plug-In . SVG Version: 2.1.0 Build 151)  -->
  <defs>
    <style>
      .st0 {
        fill: #4d4d4d;
      }
    </style>
  </defs>
  <path class="st0" d="M202.5,23.5v1.5h468.2s0-1.5,0-1.5H202.5ZM187.5,18.2h483.2v-1.5H187.5v1.5ZM172.5,10v1.5h498.2v-1.5H172.5ZM33.4,34.4l185.5,185.5,1.1-1.1L34.4,33.4l-1.1,1.1ZM198.9,118.7L39.9,26.7l-.8,1.3,159,92,.8-1.3ZM54.4,172.4L20.4,44l-1.5.4,34,128.4,1.5-.4ZM11.5,135.7V47.7h-1.5v88h1.5ZM135.7,10H47.7v1.5h88v-1.5ZM172.6,53.8L44.3,19l-.4,1.4,128.3,34.8.4-1.4ZM33.3,34.6l-1.2.9c11.5,14.4,24,33.6,29.6,62.1L28,39.1l-1.3.8,35.8,62.1c2.1,12.5,2.9,26.8,1.7,43.1-3.9,38.3-21.3,66.9-36.7,92-.9,1.4-1.7,2.8-2.6,4.2v-42.7h-1.5v45.1c-1.3,2.1-2.5,4.1-3.7,6.2-.5.9-1,1.8-1.5,2.7v-69h-1.5v71.6c-1.9,3.3-3.6,6.5-5.2,9.8v-96.4h-1.5v99.5C3.8,281.1-.2,294.1,0,308.4c.2,11.6,3.1,23.9,10,37.7v142.5c-6.5,14.2-10.9,31.9-9.2,57.1,1.5,22,5,42,9.2,59.2v65.9h1.5v-59.9c1.7,6.5,3.5,12.6,5.2,18.1v41.8h1.5v-37.2c1.8,5.4,3.6,10.3,5.3,14.6v22.6h1.5v-18.8c4.4,10.8,7.6,16.9,7.7,17.1l1.3-.7s0-.2-.2-.4c-.9-1.7-4.4-8.7-8.8-20v-181.9c.3-.5.6-.9.9-1.4,9.2-13.7,17.8-26.6,17.8-45.6-.3-15.4-7.7-28.1-16.3-42.7-.8-1.4-1.6-2.8-2.5-4.2v-127.8c1.3-2.1,2.5-4.2,3.8-6.3,1-1.6,1.9-3.2,2.9-4.8,1.6-2.6,3.2-5.3,4.8-8,12.1-20.6,24-43.8,28.3-72.7.3-2.3.6-4.7.9-7.1,1.1-14.8.5-27.9-1.1-39.6l53.8,93.4,1.3-.8-55.8-96.8c-5.2-31.1-18.4-51.6-30.6-66.9ZM10,598.2c-2.7-12-5-25.2-6.5-39.4-.5-4.3-.9-8.7-1.2-13.2-1.6-23.1,2-39.8,7.7-53.3v106ZM10,342.6c-12.8-27.5-9.5-49.5,0-70.8v70.8ZM16.7,623.9c-1.8-5.9-3.6-12.3-5.2-19.2v-115.8c1.6-3.6,3.4-6.9,5.2-10.1v145ZM16.7,475.9c-1.8,3-3.6,6.2-5.2,9.5v-136c1.7,3.8,3.5,7.4,5.2,10.8v115.7ZM16.7,356.9c-1.8-3.5-3.6-7.2-5.2-11.1,0,0,0,0,0,0v-77.2c1.6-3.4,3.4-6.8,5.2-10.2v98.6ZM23.5,643.9c-1.7-4.5-3.5-9.6-5.3-15.2v-152.4c1.7-2.8,3.5-5.6,5.3-8.2v175.8ZM23.5,465.4c-1.7,2.6-3.5,5.3-5.3,8.1v-110.4c1.8,3.3,3.5,6.4,5.3,9.3v93.1ZM23.5,369.4c-1.7-3-3.5-6.2-5.3-9.5v-104.2c1.7-3,3.4-6,5.3-9v122.7ZM26.1,376.9c8.5,14.4,15.8,26.9,16.1,41.9,0,18.4-8,30.5-17.2,44.3v-88.2c.4.7.8,1.3,1.2,2Z"/>
</svg>