<?xml version="1.0" encoding="UTF-8"?>
<svg id="_レイヤー_1" data-name="レイヤー_1" xmlns="http://www.w3.org/2000/svg" version="1.1" viewBox="0 0 670.7 670.7">
  <!-- Generator: Adobe Illustrator 29.3.1, SVG Export Plug-In . SVG Version: 2.1.0 Build 151)  -->
  <defs>
    <style>
      .st0 {
        fill: #4d4d4d;
      }
    </style>
  </defs>
  <path class="st0" d="M202.5,647.2h468.2s0-1.5,0-1.5H202.5s0,1.5,0,1.5ZM187.5,652.5v1.5h483.2s0-1.5,0-1.5H187.5ZM172.5,660.7h498.2s0-1.5,0-1.5H172.5s0,1.5,0,1.5ZM218.9,450.8l-185.5,185.5,1.1,1.1,185.5-185.5-1.1-1.1ZM198.1,550.7l-159,92,.8,1.3,159-92-.8-1.3ZM10,623h1.5v-88s-1.5,0-1.5,0v88ZM47.7,660.7h88s0-1.5,0-1.5H47.7s0,1.5,0,1.5ZM172.2,615.4l-128.3,34.8.4,1.4,128.3-34.8-.4-1.4ZM118.4,471.7l-91.7,159.1,1.3.8,91.7-159.1-1.3-.8ZM52.9,497.9l-34,128.4,1.5.4,34-128.4-1.5-.4ZM25,0h-1.5v472.1h1.5V0ZM11.5,0h-1.5v502.1h1.5V0ZM16.7,487.1h1.5V0h-1.5v487.1Z"/>
</svg>