<?xml version="1.0" encoding="UTF-8"?>
<svg id="_レイヤー_1" data-name="レイヤー_1" xmlns="http://www.w3.org/2000/svg" version="1.1" viewBox="0 0 501.8 121.3">
  <!-- Generator: Adobe Illustrator 29.3.1, SVG Export Plug-In . SVG Version: 2.1.0 Build 151)  -->
  <defs>
    <style>
      .st0 {
        fill: #fff;
      }
    </style>
  </defs>
  <path class="st0" d="M62.5,48.9c4.5,4.7,7.2,8,8.2,9.7,1.3,2.6.8,3.9-1.3,4.1l-2.5.3c-6.6,9.2-12.8,16.7-18.6,22.5-7.2,7.2-14.8,12.6-22.7,16.2-3.6,1.6-8.6,3.4-15,5.2-4.4,1.2-7.3,2-8.5,2.3-1,.3-1.3,0-.9-.8,1.3-.8,3-1.6,5-2.5,5.1-2.3,10.1-5.2,15.2-8.8,6.1-4.3,10.5-7.8,13.3-10.5-1.8-.5-3.2-1.9-4-4.2-2.4-6.5-5-11.1-7.9-13.6-6.5,5.4-13.3,9.5-20.3,12.3-2.8,1-2.9.6-.5-1.1,9.5-6.6,17.5-15.9,24-27.7,1.3-2.6,2.7-5.2,4-7.6,2.1-3.2,2.1-5.4-.1-6.4l-1.9-1.7c1.4-1.7,3.3-2.2,5.6-1.7,1.4.4,3.3,1.7,5.8,3.7,3,2.3,4.6,4.1,4.9,5.3.3,1.2,0,2.1-.8,2.7-.5.4-1.4.9-2.7,1.4-.6.9-1.5,2-2.7,3.5,12.1.1,19.2.1,21.3,0l3.2-2.7ZM25.3,67.2c4.3,1.1,7.7,2.6,10,4.3,3.8,3.2,5.3,6.5,4.6,9.9,5.9-6.5,11.6-14.3,17-23.4-6.3-.5-12.3-.4-17.8.2-1.8.9-3.5.5-5.2-1.1-1.4,1.7-2.7,3.3-3.9,4.7-1.4,1.7-3,3.5-4.7,5.3Z"/>
  <path class="st0" d="M85.9,65c1,1.7,2.6,2.6,4.8,2.6s3.9-.4,9.2-1.1l5.9-.8c2.9-.4,4.4-.6,4.5-.7.9-.2,2-.6,3.1-1.4.6-.4,1.1-.5,1.7-.5,1.1,0,2.3,1.2,3.6,3.5.7,1.2,1,2.3,1,3.3s-.5,1.6-1.6,2.1c-1.3.7-2.6,1.7-3.7,3-1.9,2.3-4.1,4.6-6.5,6.9v3c.3,13.7.5,22,.7,24.9,0,1,.1,1.9.1,2.6,0,3.8-.9,5.7-2.6,5.7s-2.5-.7-3.3-2c-.4-.8-.7-1.5-.7-2.2s0-1.2.3-2.4c.4-2.6.7-10.3,1-23.3v-2c-8.9,8.3-19,14.9-30.3,19.7l-1.9-2.3c9.9-5,18.9-11.1,26.9-18.5,5.7-5.3,10.4-10.9,14.2-17-10.2,1.8-16.7,3.4-19.6,4.6-.9.4-1.7.6-2.5.6-2.8,0-5-2.1-6.6-6.3l2.1-1.9ZM93.7,49.1c4.1.2,7.7.9,10.9,2.1,4.1,1.5,6.2,3.5,6.2,5.9s-.3,2-.8,2.7c-.6.7-1.2,1-2,1-1.1,0-2.1-.7-3.1-2-1.3-1.8-3.3-3.4-6-4.9-1.5-.8-3.7-1.6-6.7-2.5l1.5-2.4ZM112.6,82.9c5.9,1.7,10.7,3.9,14.6,6.5,3.8,2.6,5.7,5.1,5.7,7.7s-.3,2-1,2.9c-.6.7-1.3,1.1-2.1,1.1s-1.5-.4-2.1-1.1c-.2-.2-.7-.9-1.5-2.1-2.6-3.9-5.5-6.9-8.7-9.1-1.6-1.1-3.8-2.3-6.4-3.5l1.6-2.4Z"/>
  <path class="st0" d="M171.3,58.4c1,1.1,1,2.1,0,2.9-.8.8-1.4,1.8-1.8,3-3,8.1-5.3,15.9-6.9,23.3,1.2,0,2.2-.3,3-.6.9-.5,1.7-.3,2.4.4.6.8,1.1,1.6,1.4,2.5.6,1.5.2,2.3-1.2,2.6-2.2.6-4.3.8-6.4.6-.8,5.9-.2,10,1.8,12.3,2,2.3,4.7,3.5,8.2,3.7,6.8.5,10.5-2.1,10.9-7.7.3-4.7-3.1-10.5-10.4-17.4-.5-.6-.4-.8.3-.8,5.4,3.2,9.5,6.4,12.3,9.6,2.8,3.2,4,6.6,3.8,10.3-.2,3-1.3,5.4-3.4,7.2-3,2.6-7.7,3.7-14,3.3-5.6-.4-9.7-2-12.1-4.8-2.5-2.8-3.1-8.1-1.8-16-5.9-1.3-8.7-4.3-8.4-9.1.2-3.3,2.4-6.5,6.5-9.6.2-.3,0-.5-.5-.6-4.9-.7-7.4-4-7.5-10,.4-.9.8-.8,1.1,0,1.2,3.1,3,4.7,5.5,4.9,2.5.2,4.2,0,5.3-.4.7-.5,1.4-.4,1.8.1l1.5,2c.7-2.8,1.5-5.7,2.2-8.8.3-1.9.1-3.3-.5-4-.8-.9-1.7-1.6-2.8-2-.7-.2-.7-.6,0-1.1.7-.5,1.5-.8,2.4-.9,2.1.1,4.5,1.8,7.3,5ZM151.7,82.4c-.2,3.2,2,4.9,6.5,5.2,1.2-5.2,2.4-9.8,3.6-13.8-2.1.2-3.7.6-4.6,1.3-3.5,2.8-5.4,5.2-5.5,7.3Z"/>
  <path class="st0" d="M215.5,78.9c-1.1,1.5-2.7,3.6-4.9,6.2-2.8,3.5-4.5,5.1-5.2,4.9-.9.2-.9-.4,0-2,4.1-7.4,7.4-14.8,9.7-22.4,2.2-6.9,4.1-15.1,5.8-24.4l10.4,4.2c1.5,1.3,1.6,2.5.3,3.6l-2.6,1.3c-1.7,5-3.5,9.9-5.2,14.6l1,.7c1.1,1.1,1.2,2.3.3,3.6l-1.3,1v43.2c0,1.3-1.2,2.4-3.6,3.2-3.2,1.1-4.9.3-4.9-2.3v-35.4ZM247.7,71.1h-19.5l-1-2.3h20.5v-25.7l12,1.3c1.7.4,1.8,1.5.3,3.2l-2.6,1.6v19.5h11.7l5.2-6.8,8.1,6.5c1.5,1.3,1.3,2.2-.7,2.6h-24.4v37h8.4l5.8-7.5,7.5,6.8c1.5,1.5,1.3,2.5-.7,2.9h-49.1l-1-2.3h19.2v-37Z"/>
  <path class="st0" d="M312.3,65.1l1.2.6h9.5v-13.8l4.9.9c1.5,1,1.2,1.7-1.2,2.1v10.7h5.5l3.2-3.4,4,3.1c1.2,1,1.2,1.7,0,2.1h-12.7v12.6h6.1l3.2-3.4,4,3.1c1.2,1,1.2,1.7,0,2.1h-29.7v-1.8h12.7v-12.6h-7.2l1.2,1.2c1.2,1,1.2,1.7,0,2.1h-11.3v17.5l9.5-4c1.7,0,1.9.5.6,1.5l-10.1,5.2v23.6c0,2.3-.7,4-2,5.2-.8.8-1.7,1.2-2.9,1.2s-1.2-.5-1.2-1.5-.6-1.7-1.7-2.1l-3.8-.6c-.8-.4-.8-.8,0-1.2h5.8c1.3,0,2-.7,2-2.1v-20.9l-5.5,2.8c-.4,3.1-1.2,3.8-2.3,2.1l-2.6-4.9,10.4-3.1v-18.7h-10.1v-1.8h10.1v-17.5l4.9.9c1.5,1,1.2,1.7-1.2,2.1v14.4h2.9l3.7-4ZM326.7,95.2h4.6l3.7-4,4.6,3.7c1.2,1,1.2,1.7,0,2.1h-13v12l10.7-3.4c1.7,0,1.9.5.6,1.5l-20.8,8.9c-1,3.5-1.9,4.1-2.9,1.8l-3.2-4.6,11.8-3.7v-12.6h-11.3v-1.8h11.3v-10.7l4.9.9c1.5,1,1.2,1.7-1.2,2.1v7.7ZM346,80.7v38.1c-2.5,2.5-3.7,2.6-3.7.3V51.3l4.9.9c1.5,1,1.2,1.7-1.2,2.1v25.2l3.5.9c6.7,2.5,10.1,6,10.1,10.7s-.6,2.5-1.7,2.5-2-1.5-3.2-4.6c-1.5-3.7-3.9-6.2-6.9-7.7l-1.7-.6Z"/>
  <path class="st0" d="M389.9,78.1c-1.4,5.4-3.6,12.4-4.4,15.9-.4,2.1-.6,4.4-.5,5.9,0,.5.4,2.7.4,3.2,0,1.4-.3,2.6-2.3,2.7-3.9.2-9.8-6.2-10.7-20.1-.8-13.2,3.5-22.8,3-29.9-.2-2.4-1.2-5.8-3.6-5.8v-.3c.7-.8,1.6-1.1,2.5-1.2,3.4-.2,7.8,3.6,8.1,8.8,0,1.5-.5,2.8-1.4,4.3-2,3.5-4.7,14.7-4.2,23.5.3,4.9,1.5,9.3,3.4,9.2,1,0,5.9-11.8,8-16.9l1.6.6ZM406,46.5c.6-1.9,2.4-3.1,4.4-3.3,2.8-.2,9.3,1.1,9.5,4.7.1,1.6-.5,2.6-.3,5.3.2,2.7.5,6.5.9,10.3,3.6-1,7.6-2.4,8.1-4.5,3.5.4,7.3.3,7.4,2.8.1,1.8-1.6,2.6-4.4,3.7-2.3.8-6.3,2-10.4,2.8.4,4.3.9,9.2,1.2,13.5.8,13.3-2.8,22.9-22,30.1l-1-1.4c14-7.7,18.2-16.2,17.2-30.9-.2-3-.5-6.9-.7-10.3-3.5.6-7.5,1.1-10,1.2-4.7.3-8.9-2-11-5.4l.7-1.1c2.7,2,5.8,2.6,9.4,2.4,3.2-.2,7.8-.9,10.5-1.6-1.3-14.6-2.1-18.7-7.5-18.3-.5,0-1,.1-1.6.3l-.2-.3Z"/>
  <path class="st0" d="M481.4,76.6c12.8,3.7,18.9,10.2,20.2,18.8,1.1,7.5-3.8,17.3-17.6,19.4-10.8,1.6-17.2-3.9-18.6-13.3-.3-1.8-.5-4.1-.5-6.6-7.3-.5-12-3.7-12.6-8.1-.6-4.2,3-9.2,8.2-13-2-.3-3.7-.7-5.8-1.6-2.9-1.4-4.7-3.4-6.2-7.4l1.1-.9c2.3,2.3,4.5,4.3,7.9,5.1,3.1.7,6,.7,8.7.5.6-5.1,1.2-9.3,1.1-11.3-.2-1.8-.9-2.4-2.4-2.8-1.2-.4-2.7-.5-4-.6v-1.5c1.2-.5,2.6-.9,4.3-1.2,3.9-.6,9.3,2.7,9.6,4.9.2,1.5-.8,2.4-1.5,4.3-.6,2-1.2,4.3-1.9,7.7.7,0,1.3-.1,1.9-.1,2.9-.1,4.2,1.2,4.5,2.8.2,1.5-.8,2.3-2.8,2.7-1,.2-2.8.4-4.6.6-.7,3.9-1.3,9.1-1.7,14.2,3.7-.4,6.6-1.1,8.3-1.2,2.1-.2,3.6.5,3.9,2.4.2,1.6-.8,2.8-3.7,3.6-2,.4-5.1.9-8.7,1,0,2.2,0,4.2.3,5.8,1.1,7.5,6.4,10.1,13.5,9.1,9.7-1.5,13.8-8.5,12.8-15.2-1.3-8.4-6.9-12.5-14.6-16.7l.8-1.4ZM464.9,89.3c0-4.9.4-9.9.7-13.8-5,1.1-10.9,6.2-10.4,9.7.4,2.4,2.9,4.1,9.7,4.1Z"/>
  <path class="st0" d="M174.1,7.4h-.7c0-.6,0-1.1,0-1.6s0-.9,0-1.2c0-.3.1-.6.3-.8.1-.2.3-.4.6-.5.3-.1.6-.2,1.1-.2s.6,0,1,0c.4,0,.7,0,1.1,0,.4,0,.8,0,1.2,0,.4,0,.8,0,1.2,0h1.8c.5,0,1,0,1.4,0,.4,0,.7,0,1,0,.3,0,.6,0,.8,0,.2,0,.5,0,.7,0,.2,0,.4,0,.7-.1,0,.2.1.4.1.6,0,.3-.1.6-.4.7-.3.2-.7.3-1.2.3s-1.1,0-1.8,0c-.7,0-1.4-.1-2.3-.2,0,.7,0,1.5,0,2.3,0,.8,0,1.7,0,2.5,0,.9,0,1.8,0,2.7,0,.9,0,1.8,0,2.7,0,.9,0,1.8,0,2.7,0,.9,0,1.8,0,2.6l-1.7.2h-.1c0-.9,0-1.8.1-2.7,0-.9,0-1.7,0-2.5,0-.8,0-1.6,0-2.5,0-.8,0-1.7,0-2.5,0-.9,0-1.8,0-2.7,0-.9,0-1.9,0-3-.3,0-.6,0-.8,0-.3,0-.6,0-.9,0s-.6,0-.8,0c-.3,0-.5,0-.7.1-.2,0-.4.2-.6.3-.2.1-.3.3-.4.5-.1.2-.2.5-.3.9,0,.4,0,.8,0,1.3v.2Z"/>
  <path class="st0" d="M188.7,16c.4-1.2.8-2.3,1.2-3.1.4-.9.9-1.5,1.3-2.1.4-.5.9-.9,1.3-1.2.4-.2.8-.4,1.2-.4s.5,0,.8.2c.3.1.5.3.7.5.2.2.4.5.5.8.1.3.2.8.2,1.2s0,.3,0,.6c0,.2,0,.5,0,.8,0,.3,0,.6,0,1,0,.3,0,.7,0,1,0,.3,0,.6,0,.9,0,.3,0,.6,0,.8,0,.4,0,.7,0,.9,0,.2,0,.4.2.6,0,.1.2.2.3.3.1,0,.3,0,.4,0,.3,0,.5,0,.8-.1.3,0,.5-.2.8-.3v.4c0,.1-.3.3-.5.4-.3.1-.6.3-.8.4-.3.1-.6.2-.9.3-.3,0-.6.1-.8.1s-.5,0-.6-.2c-.2-.1-.3-.3-.3-.6,0-.2-.1-.5-.1-.9,0-.3,0-.7,0-1.1s0-.9,0-1.4c0-.5,0-.9.1-1.4,0-.4,0-.8.1-1.2,0-.4,0-.7,0-.9,0-.5-.1-.9-.3-1.2-.2-.3-.5-.4-.8-.4s-.6.1-.9.4c-.3.2-.6.6-.9,1-.3.4-.6.9-.9,1.5-.3.6-.5,1.2-.8,1.8-.2.7-.4,1.3-.6,2.1-.2.7-.2,1.4-.3,2.2l-1.6.2h-.1c0-.6,0-1.2,0-1.9,0-.7,0-1.4.1-2.2,0-.8,0-1.6.1-2.4,0-.8,0-1.7.1-2.6,0-.9,0-1.8.1-2.7,0-.9,0-1.8.1-2.6,0-.9,0-1.7.1-2.6,0-.8,0-1.6.1-2.4,0-.1,0-.2.1-.3,0,0,.1-.2.2-.2.1,0,.2,0,.3-.1.1,0,.3,0,.4,0,.3,0,.6,0,.9.2-.1,1-.2,1.9-.3,2.7,0,.8-.2,1.6-.2,2.3,0,.7-.1,1.4-.2,2,0,.6-.1,1.2-.2,1.8,0,.6,0,1.1-.1,1.6,0,.5,0,1.1-.1,1.6,0,.6,0,1.1-.1,1.7,0,.6,0,1.2-.1,1.9h0Z"/>
  <path class="st0" d="M206.3,17.6s0,0,.1,0c0,0,0,0,.1,0,0,0,0,0,.1.1,0,0,0,0,0,.1s0,0,0,0c-.3.4-.6.7-.9,1-.3.3-.6.5-1,.7-.3.2-.7.3-1,.4-.4,0-.7.1-1,.1-.6,0-1.1-.1-1.6-.4-.5-.2-.9-.6-1.3-1-.4-.4-.6-.9-.8-1.5-.2-.6-.3-1.2-.3-1.8s0-1,.2-1.6c.1-.5.3-1,.5-1.5.2-.5.5-.9.8-1.3.3-.4.7-.8,1.1-1.1.4-.3.8-.5,1.3-.7.5-.2,1-.3,1.5-.3s.7,0,1,.1c.3,0,.6.2.9.4.2.2.4.4.6.7.1.3.2.6.2.9,0,.5-.2.9-.5,1.3-.3.4-.8.7-1.3.9-.6.3-1.2.5-2,.6-.8.2-1.6.3-2.5.4h0c0,.7,0,1.3.2,1.8.2.5.4,1,.7,1.3.3.4.6.7,1,.9.4.2.8.3,1.2.3s.9-.1,1.3-.3c.5-.2.9-.6,1.4-1.1ZM204.9,11.7c0-.2,0-.4-.1-.6,0-.2-.2-.4-.3-.5-.1-.1-.3-.3-.5-.3-.2,0-.4-.1-.6-.1-.3,0-.6,0-.9.2-.3.1-.5.3-.7.5-.2.2-.4.4-.5.7-.2.3-.3.5-.4.8-.1.3-.2.6-.3.9,0,.3-.1.6-.1.9.7,0,1.3-.1,1.9-.2.5-.1,1-.3,1.4-.5.4-.2.7-.4.9-.7.2-.3.3-.6.3-.9Z"/>
  <path class="st0" d="M215.3,15.9c-.2.5-.3.9-.5,1.3-.1.4-.2.7-.3,1,0,.3-.2.5-.3.7,0,.2-.1.4-.2.5,0,.2-.2.3-.3.4,0,.1-.2.2-.3.2-.1,0-.2,0-.4,0-.1,0-.3,0-.4,0h-.3c-.1,0-.2,0-.3,0h-.1c.6-1.3,1.1-2.6,1.7-3.7.5-1.2,1-2.3,1.5-3.3-.1-.2-.2-.3-.2-.4,0-.2.2-.3.5-.3.9-2,1.7-3.7,2.4-5.2.7-1.5,1.3-2.7,1.8-3.7,0,0,.1-.2.2-.2,0,0,.2-.1.3-.1,0,0,.2,0,.3,0,.1,0,.2,0,.3,0s.3,0,.4,0c.1,0,.3,0,.4.1.3,1.7.6,3.2.8,4.6.3,1.4.5,2.6.7,3.6.2,1.1.4,2,.6,2.8.2.8.4,1.5.6,2,.2.6.4,1,.5,1.4.2.4.4.7.6.9.2.2.4.4.6.4.2,0,.4.1.7.1s.3,0,.5,0c.2,0,.4,0,.6-.2l.2.6c-.6.3-1.1.5-1.6.6-.5.1-1,.2-1.4.2s-.4,0-.6-.1c-.2,0-.4-.2-.6-.4-.2-.2-.4-.5-.5-.8-.2-.3-.3-.8-.5-1.3-.2-.5-.4-1.1-.5-1.8-.2-.7-.4-1.5-.6-2.5-.9,0-1.8,0-2.7,0-.9,0-1.8,0-2.7.1-.2.5-.4,1-.5,1.4-.2.4-.3.8-.4,1.1ZM221.5,12.3c-.1-.5-.2-1-.3-1.6-.1-.6-.2-1.2-.4-1.9-.1-.7-.2-1.3-.4-2.1-.1-.7-.3-1.4-.4-2.2h0c-.7,1.5-1.3,2.8-1.9,4.1-.6,1.3-1,2.5-1.5,3.6.8,0,1.6,0,2.4,0,.8,0,1.6,0,2.4,0Z"/>
  <path class="st0" d="M229.3,20h-.1c0-.5,0-1,.1-1.5,0-.5,0-1.1,0-1.7,0-.6,0-1.1,0-1.7,0-.6,0-1.1,0-1.5,0-.5,0-.9,0-1.3,0-.4,0-.7,0-.9s0-.3,0-.5c0-.1,0-.2-.1-.3,0,0-.1-.1-.2-.2,0,0-.2,0-.4,0s-.2,0-.3,0c0,0-.2,0-.3,0-.1,0-.2,0-.4,0-.1,0-.3,0-.5.1v-.5c.7-.3,1.4-.5,1.9-.6.5-.1.8-.2,1-.2.3,0,.5,0,.7.3.1.2.2.5.2.8s0,.1,0,.3c0,.2,0,.4,0,.7,0,.3,0,.6,0,.9,0,.4,0,.7,0,1.1,0,.4,0,.8-.1,1.3,0,.4,0,.9-.1,1.3h0c.2-.9.5-1.8.8-2.7.3-.8.6-1.5,1-2.2.4-.6.8-1.1,1.2-1.4.4-.4.9-.5,1.5-.5s.4,0,.5,0c.2,0,.3.1.4.2.1.1.2.2.3.4,0,.1.1.3.1.5s0,.4-.1.6c0,.2-.2.4-.4.5h0c-.2-.2-.4-.3-.6-.4-.2,0-.4-.1-.6-.1s-.4,0-.6.1c-.2,0-.4.2-.6.4-.3.3-.5.6-.8,1-.2.4-.5.9-.7,1.4-.2.5-.4,1-.5,1.6-.2.6-.3,1.1-.4,1.6-.1.5-.2,1-.3,1.5,0,.5-.1.9-.1,1.2l-1.5.2Z"/>
  <path class="st0" d="M243.1,12.3c.1-.3.2-.5.2-.8s0-.4-.1-.5c0-.2-.2-.3-.3-.4-.1-.1-.3-.2-.5-.3-.2,0-.4-.1-.7-.1-.4,0-.7,0-1,.2-.3.1-.6.3-.8.5-.2.2-.4.5-.6.8-.2.3-.3.6-.4,1-.1.4-.2.7-.2,1.1,0,.4,0,.7,0,1.1,0,.6,0,1.2.2,1.7.2.5.4.9.7,1.3.3.4.6.6,1,.8.4.2.8.3,1.2.3s.9-.1,1.3-.3c.5-.2.9-.6,1.3-1.1,0,0,0,0,.1,0,0,0,0,0,.1,0,0,0,0,0,.1.1,0,0,0,0,0,0s0,0,0,0h0c-.5.8-1,1.4-1.7,1.7-.7.4-1.4.6-2.2.6s-.8,0-1.2-.2c-.4-.1-.7-.3-1-.5-.3-.2-.6-.5-.8-.8-.2-.3-.4-.6-.6-.9-.1-.3-.3-.7-.3-1.1,0-.4-.1-.8-.1-1.1s0-1,.2-1.5c.1-.5.3-1,.5-1.5.2-.5.5-.9.8-1.3.3-.4.7-.8,1.1-1.1.4-.3.8-.5,1.3-.7.5-.2,1-.3,1.5-.3s.8,0,1.1.1c.3,0,.6.2.9.4.3.2.4.4.6.6.1.2.2.5.2.8s0,.4,0,.5c0,.2-.1.3-.3.4-.1.1-.2.2-.4.2-.1,0-.3,0-.5,0s-.2,0-.3,0c-.1,0-.2,0-.3-.1h0Z"/>
  <path class="st0" d="M248.4,16c.4-1.2.8-2.3,1.2-3.1.4-.9.9-1.5,1.3-2.1.4-.5.9-.9,1.3-1.2.4-.2.8-.4,1.2-.4s.5,0,.8.2c.3.1.5.3.7.5.2.2.4.5.5.8.1.3.2.8.2,1.2s0,.3,0,.6c0,.2,0,.5,0,.8,0,.3,0,.6,0,1,0,.3,0,.7,0,1,0,.3,0,.6,0,.9,0,.3,0,.6,0,.8,0,.4,0,.7,0,.9,0,.2,0,.4.2.6,0,.1.2.2.3.3.1,0,.3,0,.4,0,.3,0,.5,0,.8-.1.3,0,.5-.2.8-.3v.4c0,.1-.3.3-.5.4-.3.1-.6.3-.8.4-.3.1-.6.2-.9.3-.3,0-.6.1-.8.1s-.5,0-.6-.2c-.2-.1-.3-.3-.3-.6,0-.2-.1-.5-.1-.9,0-.3,0-.7,0-1.1s0-.9,0-1.4c0-.5,0-.9.1-1.4,0-.4,0-.8.1-1.2,0-.4,0-.7,0-.9,0-.5-.1-.9-.3-1.2-.2-.3-.5-.4-.8-.4s-.6.1-.9.4c-.3.2-.6.6-.9,1-.3.4-.6.9-.9,1.5-.3.6-.5,1.2-.8,1.8-.2.7-.4,1.3-.6,2.1-.2.7-.2,1.4-.3,2.2l-1.6.2h-.1c0-.6,0-1.2,0-1.9,0-.7,0-1.4.1-2.2,0-.8,0-1.6.1-2.4,0-.8,0-1.7.1-2.6,0-.9,0-1.8.1-2.7,0-.9,0-1.8.1-2.6,0-.9,0-1.7.1-2.6,0-.8,0-1.6.1-2.4,0-.1,0-.2.1-.3,0,0,.1-.2.2-.2.1,0,.2,0,.3-.1.1,0,.3,0,.4,0,.3,0,.6,0,.9.2-.1,1-.2,1.9-.3,2.7,0,.8-.2,1.6-.2,2.3,0,.7-.1,1.4-.2,2,0,.6-.1,1.2-.2,1.8,0,.6,0,1.1-.1,1.6,0,.5,0,1.1-.1,1.6,0,.6,0,1.1-.1,1.7,0,.6,0,1.2-.1,1.9h0Z"/>
  <path class="st0" d="M261.4,9.6c0,.6-.2,1.1-.2,1.7,0,.6-.1,1.1-.1,1.6,0,.5,0,1,0,1.5,0,.5,0,.9,0,1.3s0,.9,0,1.3c0,.4,0,.7,0,.9,0,.2,0,.4.1.6,0,.1.1.3.2.3,0,0,.2.1.3.2.1,0,.2,0,.3,0,.2,0,.5,0,.8-.1.3,0,.5-.2.8-.3v.4c0,.1-.3.3-.5.4-.3.1-.5.3-.8.4-.3.1-.6.2-.9.3-.3,0-.5.1-.7.1s-.3,0-.4,0c-.1,0-.2,0-.3-.2,0,0-.2-.2-.2-.4,0-.2-.1-.4-.2-.7,0-.3,0-.7-.1-1.1,0-.4,0-1,0-1.6s0-.8,0-1.2c0-.5,0-1,0-1.5,0-.5,0-1.1,0-1.7,0-.6,0-1.2,0-1.8,0-.1,0-.2.1-.3,0,0,.1-.2.2-.2,0,0,.2,0,.3,0,.1,0,.2,0,.3,0,.3,0,.6,0,.9.2ZM260.8,6.3c-.2,0-.3,0-.5-.1-.1,0-.2-.2-.3-.3,0-.1-.2-.2-.2-.4,0-.2,0-.3,0-.5s0-.4.1-.6c0-.2.2-.3.3-.4.1-.1.2-.2.4-.3.1,0,.3,0,.4,0s.3,0,.4,0c.1,0,.2.1.3.2,0,.1.2.2.2.4,0,.1,0,.3,0,.4s0,.3,0,.5c0,.2-.1.3-.2.5-.1.1-.2.2-.4.3-.1,0-.3.1-.5.1Z"/>
  <path class="st0" d="M266.9,20.1c0-.5-.1-1-.2-1.5,0-.5-.2-1-.3-1.6,0-.5-.2-1-.3-1.6-.1-.5-.2-1-.3-1.5-.1-.5-.2-.9-.3-1.3-.1-.4-.2-.7-.3-1,0-.3-.2-.5-.3-.7,0-.2-.2-.3-.3-.4,0-.1-.2-.2-.3-.2-.1,0-.2,0-.4,0s-.3,0-.5,0c-.2,0-.4,0-.6.1v-.5c.2-.1.5-.2.7-.3.3,0,.5-.2.8-.2.2,0,.4-.1.6-.1.2,0,.3,0,.4,0s.2,0,.4,0c.1,0,.2.1.3.2.1.1.2.3.3.5,0,.2.2.4.3.7,0,.2.1.4.2.8,0,.3.2.7.3,1.1,0,.4.2.8.3,1.3.1.5.2.9.3,1.4,0,.5.2,1,.3,1.5,0,.5.2,1,.2,1.5.2-.4.5-.7.7-1.1.2-.4.5-.8.7-1.2.2-.4.4-.8.6-1.2.2-.4.4-.8.5-1.2.1-.4.3-.8.3-1.1,0-.4.1-.7.1-1.1s0-.8-.2-1.2c-.2-.4-.4-.7-.8-1v-.2c.2,0,.3,0,.3,0,0,0,.2,0,.2,0,.7,0,1.1.2,1.5.5.3.3.5.7.5,1.3s0,.9-.3,1.4c-.2.5-.4,1.1-.7,1.7-.3.6-.6,1.2-1,1.8-.4.6-.7,1.2-1.1,1.7-.4.6-.8,1.1-1.1,1.6-.4.5-.7.9-1,1.3h-.8Z"/>
  <path class="st0" d="M281.4,17.6s0,0,.1,0c0,0,0,0,.1,0,0,0,0,0,.1.1,0,0,0,0,0,.1s0,0,0,0c-.3.4-.6.7-.9,1-.3.3-.6.5-1,.7-.3.2-.7.3-1,.4-.4,0-.7.1-1,.1-.6,0-1.1-.1-1.6-.4-.5-.2-.9-.6-1.3-1-.4-.4-.6-.9-.8-1.5-.2-.6-.3-1.2-.3-1.8s0-1,.2-1.6c.1-.5.3-1,.5-1.5.2-.5.5-.9.8-1.3.3-.4.7-.8,1.1-1.1.4-.3.8-.5,1.3-.7.5-.2,1-.3,1.5-.3s.7,0,1,.1c.3,0,.6.2.9.4.2.2.4.4.6.7.1.3.2.6.2.9,0,.5-.2.9-.5,1.3-.3.4-.8.7-1.3.9-.6.3-1.2.5-2,.6-.8.2-1.6.3-2.5.4h0c0,.7,0,1.3.2,1.8.2.5.4,1,.7,1.3.3.4.6.7,1,.9.4.2.8.3,1.2.3s.9-.1,1.3-.3c.5-.2.9-.6,1.4-1.1ZM280,11.7c0-.2,0-.4-.1-.6,0-.2-.2-.4-.3-.5-.1-.1-.3-.3-.5-.3-.2,0-.4-.1-.6-.1-.3,0-.6,0-.9.2-.3.1-.5.3-.7.5-.2.2-.4.4-.5.7-.2.3-.3.5-.4.8-.1.3-.2.6-.3.9,0,.3-.1.6-.1.9.7,0,1.3-.1,1.9-.2.5-.1,1-.3,1.4-.5.4-.2.7-.4.9-.7.2-.3.3-.6.3-.9Z"/>
  <path class="st0" d="M288.4,15.6c0-.5,0-1,.2-1.5.1-.5.3-1,.5-1.5.2-.5.4-.9.7-1.3.3-.4.6-.8,1-1.1.4-.3.8-.6,1.3-.7.5-.2,1-.3,1.5-.3s1.2.1,1.7.4c.5.3.9.6,1.2,1,.3.4.6.9.7,1.5.2.6.3,1.1.3,1.7s0,1-.2,1.5c-.1.5-.3,1-.5,1.5-.2.5-.4.9-.7,1.3-.3.4-.6.8-1,1.1-.4.3-.8.6-1.3.7-.5.2-1,.3-1.5.3s-1.2-.1-1.7-.4c-.5-.3-.9-.6-1.2-1-.3-.4-.6-.9-.7-1.5-.2-.5-.2-1.1-.2-1.7ZM290.1,15c0,.3,0,.7,0,1,0,.3.1.7.2,1,.1.3.2.6.4.9.2.3.3.5.6.7.2.2.5.4.7.5.3.1.6.2.9.2s.7,0,.9-.2c.3-.2.5-.4.7-.6.2-.3.4-.5.5-.9.1-.3.2-.7.3-1,0-.4.1-.7.2-1,0-.3,0-.7,0-.9s0-.7,0-1c0-.3-.1-.7-.2-1-.1-.3-.2-.6-.4-.9-.2-.3-.3-.5-.6-.7-.2-.2-.5-.4-.7-.5-.3-.1-.6-.2-.9-.2s-.7,0-.9.2c-.3.2-.5.4-.7.6-.2.3-.4.5-.5.9-.1.3-.2.7-.3,1,0,.3-.1.7-.2,1,0,.3,0,.7,0,.9Z"/>
  <path class="st0" d="M302.3,9.8c.2,0,.5,0,.7,0,.2,0,.4,0,.6,0,.2,0,.4,0,.5,0h.4c.2,0,.4,0,.6,0,.2,0,.4,0,.5,0,0,.2,0,.3,0,.4,0,.2,0,.4-.3.4-.2,0-.4.1-.8.1s-.7,0-1.1,0c-.4,0-.9,0-1.4-.1,0,.6,0,1.2,0,1.9,0,.7,0,1.4-.1,2.1,0,.7-.1,1.5-.2,2.2,0,.8-.2,1.5-.3,2.2,0,.7-.2,1.4-.4,2.1-.1.7-.3,1.2-.5,1.8-.3.8-.6,1.5-1,2.1-.4.6-.7,1-1.2,1.3-.4.3-.8.6-1.3.7-.4.1-.9.2-1.3.2s-.7,0-1-.1c-.3,0-.6-.2-.8-.3-.2-.1-.4-.3-.6-.5-.1-.2-.2-.4-.2-.6s0-.2,0-.3c0-.1.1-.2.2-.3,0,0,.2-.2.3-.2.1,0,.3,0,.4,0,.1.3.3.5.5.7.2.2.4.3.5.4.2.1.4.2.6.2.2,0,.4,0,.6,0,.6,0,1-.2,1.4-.5.4-.4.7-.9,1-1.5.3-.7.5-1.5.6-2.4.2-.9.3-2,.3-3.1,0-1.2.1-2.4.2-3.7,0-1.3,0-2.7,0-4.2-.5,0-.9,0-1.3,0-.4,0-.7,0-1,.2,0,0,0,0,0-.1,0-.1,0-.2.2-.3.1-.1.3-.2.5-.3.2,0,.4-.1.7-.2.3,0,.6,0,.9,0,0-.5,0-.9,0-1.3,0-.4,0-.8.1-1.2,0-.4.1-.8.2-1.2,0-.4.2-.8.3-1.3.1-.6.3-1.1.5-1.5.2-.5.4-.9.7-1.2.3-.4.6-.7.9-.9.3-.3.6-.5,1-.6.3-.2.7-.3,1-.4.3,0,.7-.1,1-.1.5,0,.9,0,1.3.2.4.1.7.3.9.5.3.2.5.4.6.7.1.3.2.5.2.8s0,.4-.1.5c0,.2-.2.3-.3.4-.1.1-.2.2-.4.2-.2,0-.3,0-.5,0s-.5,0-.7-.2h0c0-.3.2-.5.2-.6,0-.2,0-.3,0-.5s0-.4-.1-.6c0-.2-.2-.3-.4-.4-.2-.1-.3-.2-.5-.2-.2,0-.4,0-.6,0-.5,0-1,.1-1.4.4-.4.2-.7.6-.9,1-.2.4-.4.9-.6,1.5-.1.6-.3,1.2-.3,1.9,0,.7-.1,1.4-.2,2.1,0,.7,0,1.5,0,2.2Z"/>
  <path class="st0" d="M310.6,3.6c.5,0,1-.2,1.6-.3.5,0,1.1-.2,1.7-.2.6,0,1.1-.1,1.7-.2.6,0,1.1,0,1.7,0s1.5,0,2.2.1c.7,0,1.4.3,2,.5.6.2,1.2.5,1.7.9.5.4,1,.8,1.4,1.4.4.6.7,1.2.9,2,.2.8.3,1.7.3,2.7s0,1.8-.3,2.6c-.2.8-.4,1.6-.8,2.3-.3.7-.8,1.4-1.3,2-.5.6-1.1,1.1-1.7,1.5-.6.4-1.3.7-2.1,1-.8.2-1.6.3-2.5.3s-.9,0-1.4,0c-.5,0-1-.2-1.5-.3l-1.4.2h-.1c0-.3,0-.7.1-1.2,0-.5,0-1.1.1-1.8,0-.7,0-1.4.1-2.3,0-.8,0-1.7,0-2.7,0-1,0-2,0-3,0-1.1,0-2.2,0-3.3s0-.4,0-.6c0-.2,0-.3-.2-.4,0-.1-.2-.2-.4-.3-.2,0-.4,0-.6,0s-.7,0-1.2.1v-.7ZM315,3.9c0,.2,0,.6,0,1.1,0,.5,0,1,0,1.7,0,.6,0,1.3,0,2.1,0,.8,0,1.5,0,2.3,0,.8,0,1.6,0,2.4,0,.8,0,1.5,0,2.2,0,.7,0,1.3,0,1.9,0,.6,0,1,0,1.4.5.1.9.2,1.3.3.4,0,.8,0,1.2,0,.8,0,1.5-.1,2.2-.3.6-.2,1.2-.5,1.7-.9.5-.4.9-.8,1.2-1.3.3-.5.6-1.1.8-1.7.2-.6.4-1.2.5-1.9.1-.7.2-1.4.2-2.1,0-1.1-.1-2.1-.4-2.9-.2-.9-.6-1.7-1.2-2.3-.5-.6-1.2-1.1-2.1-1.5-.9-.4-1.9-.5-3.1-.5s-.6,0-.9,0c-.3,0-.6,0-.9,0Z"/>
  <path class="st0" d="M330.4,9.6c0,.6-.2,1.1-.2,1.7,0,.6-.1,1.1-.1,1.6,0,.5,0,1,0,1.5,0,.5,0,.9,0,1.3s0,.9,0,1.3c0,.4,0,.7,0,.9,0,.2,0,.4.1.6,0,.1.1.3.2.3,0,0,.2.1.3.2.1,0,.2,0,.3,0,.2,0,.5,0,.8-.1.3,0,.5-.2.8-.3v.4c0,.1-.3.3-.5.4-.3.1-.5.3-.8.4-.3.1-.6.2-.9.3-.3,0-.5.1-.7.1s-.3,0-.4,0c-.1,0-.2,0-.3-.2,0,0-.2-.2-.2-.4,0-.2-.1-.4-.2-.7,0-.3,0-.7-.1-1.1,0-.4,0-1,0-1.6s0-.8,0-1.2c0-.5,0-1,0-1.5,0-.5,0-1.1,0-1.7,0-.6,0-1.2,0-1.8,0-.1,0-.2.1-.3,0,0,.1-.2.2-.2,0,0,.2,0,.3,0,.1,0,.2,0,.3,0,.3,0,.6,0,.9.2ZM329.7,6.3c-.2,0-.3,0-.5-.1-.1,0-.2-.2-.3-.3,0-.1-.2-.2-.2-.4,0-.2,0-.3,0-.5s0-.4.1-.6c0-.2.2-.3.3-.4.1-.1.2-.2.4-.3.1,0,.3,0,.4,0s.3,0,.4,0c.1,0,.2.1.3.2,0,.1.2.2.2.4,0,.1,0,.3,0,.4s0,.3,0,.5c0,.2-.1.3-.2.5-.1.1-.2.2-.4.3-.1,0-.3.1-.5.1Z"/>
  <path class="st0" d="M334.3,17.2c0,.4.1.7.3,1,.2.3.4.5.6.7.2.2.5.3.8.4.3,0,.6.1.9.1s.5,0,.8-.1c.2,0,.5-.2.7-.3.2-.1.3-.3.5-.5.1-.2.2-.4.2-.7s0-.5-.2-.7c-.1-.2-.3-.4-.5-.5s-.4-.3-.7-.4c-.3-.1-.5-.3-.8-.4-.3-.1-.5-.2-.8-.4-.3-.1-.5-.3-.8-.4-.2-.1-.5-.3-.7-.5-.2-.2-.4-.4-.6-.6-.2-.2-.3-.4-.4-.7,0-.3-.1-.5-.1-.9s0-.6.2-.9c.1-.3.3-.5.5-.8.2-.2.4-.4.7-.6.3-.2.6-.3.9-.4.3-.1.6-.2.9-.3.3,0,.6,0,.9,0s.8,0,1.1.1c.4,0,.7.2.9.4.3.2.5.4.6.6.2.2.2.5.2.8s0,.2,0,.4c0,.1-.1.3-.2.4,0,.1-.2.2-.4.3-.2,0-.3.1-.6.1-.2,0-.4,0-.6,0h0c0-.2.1-.4.1-.5,0-.1,0-.3,0-.4,0-.2,0-.4-.2-.6-.1-.2-.2-.3-.4-.4-.2,0-.4-.2-.6-.2-.2,0-.4,0-.6,0-.3,0-.7,0-.9.1-.3,0-.5.2-.7.4-.2.2-.3.3-.4.5,0,.2-.1.4-.1.6s0,.5.2.7c.1.2.3.4.6.6.2.2.5.3.8.5.3.2.6.3,1,.5.4.2.7.4,1.1.5.4.2.7.4,1,.6.3.2.5.5.7.8.2.3.3.7.3,1.1s-.1.9-.3,1.3c-.2.4-.5.7-.9,1-.4.3-.8.5-1.3.6-.5.1-1,.2-1.5.2s-.5,0-.8,0c-.3,0-.5,0-.8-.2-.3,0-.5-.2-.7-.3-.2-.1-.4-.2-.6-.4-.2-.1-.3-.3-.4-.5,0-.2-.1-.4-.1-.6s0-.4.1-.5c0-.1.2-.2.3-.3.1,0,.3-.1.4-.2.2,0,.3,0,.5,0h0Z"/>
  <path class="st0" d="M345.7,4c-.2.9-.4,1.9-.5,2.9-.1,1-.3,2-.4,2.9.2,0,.4,0,.7,0,.2,0,.4,0,.6,0,.2,0,.4,0,.5,0h.4c.4,0,.8,0,1.1,0,0,0,0,.2,0,.2,0,0,0,.1,0,.2,0,.2,0,.4-.3.4-.2,0-.4,0-.8,0s-.7,0-1.1,0c-.4,0-.8,0-1.3-.1,0,.5-.1,1-.1,1.5,0,.5,0,1,0,1.4,0,.4,0,.8,0,1.2,0,.4,0,.7,0,1,0,.5,0,1,0,1.4,0,.4.1.8.3,1,.1.3.3.5.6.7.2.2.5.2.9.2s.6,0,.9-.1c.3,0,.7-.2,1.1-.4.1.1.2.3.2.5-.3.2-.6.4-.9.5-.3.2-.6.3-.9.4-.3.1-.6.2-.9.3-.3,0-.5,0-.8,0s-.6,0-.9-.2c-.3-.1-.5-.3-.7-.6-.2-.3-.4-.7-.5-1.2-.1-.5-.2-1.2-.2-2s0-.9,0-1.4c0-.5,0-.9,0-1.4,0-.5,0-1,0-1.4,0-.5,0-1,.1-1.4-.4,0-.7,0-1.1,0-.3,0-.6,0-.8.1,0,0,0,0,0-.1,0-.1,0-.2.1-.3.1,0,.2-.2.4-.2.2,0,.4-.1.6-.2.2,0,.5,0,.8-.1.1-1,.2-2,.4-2.9.1-.9.3-1.7.4-2.4,0-.1,0-.2.1-.3,0,0,.1-.1.2-.2,0,0,.2,0,.3-.1.1,0,.2,0,.3,0,.2,0,.3,0,.4,0,.1,0,.3,0,.4.1Z"/>
  <path class="st0" d="M349.1,15.6c0-.5,0-1,.2-1.5.1-.5.3-1,.5-1.5.2-.5.4-.9.7-1.3.3-.4.6-.8,1-1.1.4-.3.8-.6,1.3-.7.5-.2,1-.3,1.5-.3s1.2.1,1.7.4c.5.3.9.6,1.2,1,.3.4.6.9.7,1.5.2.6.3,1.1.3,1.7s0,1-.2,1.5c-.1.5-.3,1-.5,1.5-.2.5-.4.9-.7,1.3-.3.4-.6.8-1,1.1-.4.3-.8.6-1.3.7-.5.2-1,.3-1.5.3s-1.2-.1-1.7-.4c-.5-.3-.9-.6-1.2-1-.3-.4-.6-.9-.7-1.5-.2-.5-.2-1.1-.2-1.7ZM350.8,15c0,.3,0,.7,0,1,0,.3.1.7.2,1,.1.3.2.6.4.9.2.3.3.5.6.7.2.2.5.4.7.5s.6.2.9.2.7,0,.9-.2c.3-.2.5-.4.7-.6.2-.3.4-.5.5-.9.1-.3.2-.7.3-1,0-.4.1-.7.2-1,0-.3,0-.7,0-.9s0-.7,0-1c0-.3-.1-.7-.2-1-.1-.3-.2-.6-.4-.9-.2-.3-.3-.5-.6-.7-.2-.2-.5-.4-.7-.5-.3-.1-.6-.2-.9-.2s-.7,0-.9.2c-.3.2-.5.4-.7.6-.2.3-.4.5-.5.9-.1.3-.2.7-.3,1,0,.3-.1.7-.2,1,0,.3,0,.7,0,.9Z"/>
  <path class="st0" d="M360.9,20h-.1c0-.5,0-1,.1-1.5,0-.5,0-1.1,0-1.7,0-.6,0-1.1,0-1.7,0-.6,0-1.1,0-1.5,0-.5,0-.9,0-1.3,0-.4,0-.7,0-.9s0-.3,0-.5c0-.1,0-.2-.1-.3,0,0-.1-.1-.2-.2,0,0-.2,0-.4,0s-.2,0-.3,0c0,0-.2,0-.3,0-.1,0-.2,0-.4,0-.1,0-.3,0-.5.1v-.5c.7-.3,1.4-.5,1.9-.6.5-.1.8-.2,1-.2.3,0,.5,0,.7.3.1.2.2.5.2.8s0,.1,0,.3c0,.2,0,.4,0,.7,0,.3,0,.6,0,.9,0,.4,0,.7,0,1.1,0,.4,0,.8-.1,1.3,0,.4,0,.9-.1,1.3h0c.2-.9.5-1.8.8-2.7.3-.8.6-1.5,1-2.2.4-.6.8-1.1,1.2-1.4.4-.4.9-.5,1.5-.5s.4,0,.5,0c.2,0,.3.1.4.2.1.1.2.2.3.4,0,.1.1.3.1.5s0,.4-.1.6c0,.2-.2.4-.4.5h0c-.2-.2-.4-.3-.6-.4-.2,0-.4-.1-.6-.1s-.4,0-.6.1c-.2,0-.4.2-.6.4-.3.3-.5.6-.8,1-.2.4-.5.9-.7,1.4-.2.5-.4,1-.5,1.6-.2.6-.3,1.1-.4,1.6-.1.5-.2,1-.3,1.5,0,.5-.1.9-.1,1.2l-1.5.2Z"/>
  <path class="st0" d="M371.2,9.8c.2,0,.4,0,.7,0,.2,0,.4,0,.6,0,.2,0,.4,0,.5,0h.4c.4,0,.8,0,1.1,0,0,0,0,.2,0,.2,0,0,0,.1,0,.2,0,.2,0,.4-.3.4-.2,0-.4,0-.8,0s-.7,0-1.1,0c-.4,0-.8,0-1.3-.1,0,.5-.1,1-.1,1.5,0,.5,0,1,0,1.4,0,.4,0,.8,0,1.2,0,.4,0,.7,0,1,0,.5,0,1,0,1.4,0,.4.1.8.3,1,.1.3.3.5.6.7.2.2.5.2.9.2s.6,0,.9-.1c.3,0,.7-.2,1.1-.4.1.1.2.3.2.5-.3.2-.6.4-.9.5-.3.2-.6.3-.9.4-.3.1-.6.2-.9.3-.3,0-.5,0-.8,0s-.6,0-.9-.2c-.3-.1-.5-.3-.7-.6-.2-.3-.4-.7-.5-1.2-.1-.5-.2-1.2-.2-2s0-2,0-2.9c0-1,.1-1.9.2-2.8-.2,0-.4,0-.6,0-.2,0-.3,0-.5,0,0,0,0,0,0,0h0c0-.2,0-.4.3-.5.2-.1.5-.2.8-.2,0-.6.1-1.1.2-1.7,0-.5.1-1,.2-1.5,0-.5.1-.9.2-1.2,0-.4.1-.7.2-1,0-.1,0-.2.1-.3,0,0,.1-.1.2-.2,0,0,.2,0,.3-.1.1,0,.2,0,.3,0,.2,0,.3,0,.4,0,.1,0,.3,0,.4.1-.2.9-.4,1.9-.5,2.9-.1,1-.3,2-.4,2.9Z"/>
  <path class="st0" d="M383.1,17.6s0,0,.1,0c0,0,0,0,.1,0,0,0,0,0,.1.1,0,0,0,0,0,.1s0,0,0,0c-.3.4-.6.7-.9,1-.3.3-.6.5-1,.7-.3.2-.7.3-1,.4-.4,0-.7.1-1,.1-.6,0-1.1-.1-1.6-.4-.5-.2-.9-.6-1.3-1-.4-.4-.6-.9-.8-1.5-.2-.6-.3-1.2-.3-1.8s0-1,.2-1.6c.1-.5.3-1,.5-1.5.2-.5.5-.9.8-1.3.3-.4.7-.8,1.1-1.1.4-.3.8-.5,1.3-.7.5-.2,1-.3,1.5-.3s.7,0,1,.1c.3,0,.6.2.9.4.2.2.4.4.6.7.1.3.2.6.2.9,0,.5-.2.9-.5,1.3-.3.4-.8.7-1.3.9-.6.3-1.2.5-2,.6-.8.2-1.6.3-2.5.4h0c0,.7,0,1.3.2,1.8.2.5.4,1,.7,1.3.3.4.6.7,1,.9.4.2.8.3,1.2.3s.9-.1,1.3-.3c.5-.2.9-.6,1.4-1.1ZM381.7,11.7c0-.2,0-.4-.1-.6,0-.2-.2-.4-.3-.5-.1-.1-.3-.3-.5-.3-.2,0-.4-.1-.6-.1-.3,0-.6,0-.9.2-.3.1-.5.3-.7.5-.2.2-.4.4-.5.7-.2.3-.3.5-.4.8-.1.3-.2.6-.3.9,0,.3-.1.6-.1.9.7,0,1.3-.1,1.9-.2.5-.1,1-.3,1.4-.5.4-.2.7-.4.9-.7.2-.3.3-.6.3-.9Z"/>
  <path class="st0" d="M395.5.2c-.2,1.2-.3,2.5-.5,3.8-.2,1.3-.3,2.6-.4,3.9-.1,1.3-.2,2.6-.3,3.8,0,1.2-.1,2.4-.1,3.6s0,1,0,1.4c0,.4,0,.7,0,1,0,.3,0,.5.1.7,0,.2.1.3.2.4,0,0,.2.1.2.2,0,0,.2,0,.3,0,.2,0,.5,0,.8-.1.3,0,.5-.2.8-.3v.4c0,.1-.3.3-.5.4-.3.1-.5.3-.8.4-.3.1-.6.2-.9.3-.3,0-.5.1-.7.1s-.3,0-.4,0c-.1,0-.2,0-.3-.2,0,0-.1-.2-.2-.3,0-.1,0-.3-.1-.5,0-.3,0-.6-.1-1,0-.4,0-.8,0-1.3s0-1,0-1.5c0-.5,0-1,.2-1.5h0c-.4,1-.8,1.9-1.2,2.7-.4.8-.9,1.5-1.4,2-.5.6-.9,1-1.4,1.3-.5.3-.9.5-1.4.5s-.8-.1-1.1-.3c-.3-.2-.6-.5-.8-.9-.2-.4-.4-.8-.4-1.2,0-.5-.1-1-.1-1.5s0-1.2.2-1.8c.1-.6.3-1.1.6-1.7.2-.5.5-1,.9-1.4.3-.4.7-.8,1.2-1.2.4-.3.9-.6,1.4-.8.5-.2,1-.3,1.6-.3s.8,0,1.1.1c.4,0,.8.3,1.1.5,0-.8,0-1.7,0-2.5,0-.9,0-1.7.1-2.5,0-.8.1-1.6.2-2.3,0-.7.1-1.4.2-1.9,0-.1,0-.2.1-.3,0,0,.1-.2.2-.2,0,0,.2,0,.3-.1.1,0,.2,0,.4,0,.3,0,.6,0,.9.2ZM392.9,10.5c-.7-.3-1.3-.5-2-.5s-.9,0-1.3.2c-.4.2-.8.4-1.1.6-.3.3-.6.6-.8.9-.2.4-.4.7-.6,1.2-.2.4-.3.8-.4,1.3,0,.4-.1.9-.1,1.3s0,.3,0,.5c0,.2,0,.4,0,.6,0,.2,0,.4.2.6,0,.2.2.4.3.6.1.2.2.3.4.4.1,0,.3.1.5.1.4,0,.7-.1,1.1-.4.4-.3.7-.6,1.1-1,.4-.4.7-.9,1-1.5.3-.6.6-1.1.8-1.7.2-.6.4-1.2.6-1.8.2-.6.2-1.1.3-1.6Z"/>
  <path class="st0" d="M402.7,15.6c0-.5,0-1,.2-1.5.1-.5.3-1,.5-1.5.2-.5.4-.9.7-1.3.3-.4.6-.8,1-1.1.4-.3.8-.6,1.3-.7.5-.2,1-.3,1.5-.3s1.2.1,1.7.4c.5.3.9.6,1.2,1,.3.4.6.9.7,1.5.2.6.3,1.1.3,1.7s0,1-.2,1.5c-.1.5-.3,1-.5,1.5-.2.5-.4.9-.7,1.3-.3.4-.6.8-1,1.1-.4.3-.8.6-1.3.7-.5.2-1,.3-1.5.3s-1.2-.1-1.7-.4c-.5-.3-.9-.6-1.2-1-.3-.4-.6-.9-.7-1.5-.2-.5-.2-1.1-.2-1.7ZM404.4,15c0,.3,0,.7,0,1,0,.3.1.7.2,1,.1.3.2.6.4.9.2.3.3.5.6.7.2.2.5.4.7.5.3.1.6.2.9.2s.7,0,.9-.2c.3-.2.5-.4.7-.6.2-.3.4-.5.5-.9.1-.3.2-.7.3-1,0-.4.1-.7.2-1,0-.3,0-.7,0-.9s0-.7,0-1c0-.3-.1-.7-.2-1-.1-.3-.2-.6-.4-.9-.2-.3-.3-.5-.6-.7-.2-.2-.5-.4-.7-.5-.3-.1-.6-.2-.9-.2s-.7,0-.9.2c-.3.2-.5.4-.7.6-.2.3-.4.5-.5.9-.1.3-.2.7-.3,1,0,.3-.1.7-.2,1,0,.3,0,.7,0,.9Z"/>
  <path class="st0" d="M412.2,10.1c.5-.2,1-.3,1.4-.4.4-.1.7-.2,1-.2.3,0,.5,0,.6-.1.1,0,.3,0,.3,0,.1,0,.2,0,.3,0,.1,0,.2,0,.3.2,0,0,.1.2.2.4,0,.1,0,.3,0,.5s0,.2,0,.4c0,.2,0,.5,0,.9,0,.4,0,.8,0,1.4,0,.5,0,1.2-.1,1.9h0c.4-.9.8-1.8,1.2-2.5.4-.7.9-1.3,1.3-1.8.5-.5.9-.9,1.4-1.1.5-.3.9-.4,1.3-.4s.6,0,.9.2c.3.1.5.3.7.5.2.2.3.4.5.7.1.3.2.6.3.8,0,.3.1.6.2.9,0,.3,0,.6,0,.8,0,.7,0,1.4-.2,2-.1.6-.3,1.2-.6,1.7-.3.5-.6,1-.9,1.4-.3.4-.7.8-1.1,1-.4.3-.8.5-1.3.6-.4.1-.9.2-1.3.2s-.9,0-1.4-.3c-.4-.2-.9-.5-1.3-.8,0,1.2-.1,2.5-.2,3.8,0,1.3,0,2.7,0,4.1l-1.5.2h-.2c0-.9.1-1.9.2-2.9,0-1,.1-2,.2-3,0-1,.1-2,.1-3,0-1,0-1.9.1-2.8,0-.9,0-1.6,0-2.3,0-.7,0-1.3,0-1.7s0-.3,0-.5c0-.1,0-.3-.1-.4,0,0-.1-.2-.2-.2-.1,0-.2,0-.4,0s-.4,0-.7,0c-.3,0-.6.1-.9.2v-.5ZM416,18.3c.4.4.8.6,1.2.8.4.2.8.2,1.2.2s1-.1,1.5-.3c.5-.2.9-.6,1.2-1,.3-.5.6-1,.8-1.7.2-.7.3-1.5.3-2.4s0-.7,0-1c0-.4-.1-.7-.2-.9-.1-.3-.3-.5-.4-.7-.2-.2-.4-.3-.6-.3s-.6,0-.9.2c-.3.2-.6.4-.9.6-.3.3-.5.6-.8.9-.3.4-.5.7-.7,1.1-.2.4-.4.8-.6,1.2-.2.4-.4.8-.5,1.2-.1.4-.2.8-.3,1.1,0,.4-.1.7-.2.9Z"/>
  <path class="st0" d="M429.5,4c-.2.9-.4,1.9-.5,2.9-.1,1-.3,2-.4,2.9.2,0,.4,0,.7,0,.2,0,.4,0,.6,0,.2,0,.4,0,.5,0h.4c.4,0,.8,0,1.1,0,0,0,0,.2,0,.2,0,0,0,.1,0,.2,0,.2,0,.4-.3.4-.2,0-.4,0-.8,0s-.7,0-1.1,0c-.4,0-.8,0-1.3-.1,0,.5-.1,1-.1,1.5,0,.5,0,1,0,1.4,0,.4,0,.8,0,1.2,0,.4,0,.7,0,1,0,.5,0,1,0,1.4,0,.4.1.8.3,1,.1.3.3.5.6.7.2.2.5.2.9.2s.6,0,.9-.1c.3,0,.7-.2,1.1-.4.1.1.2.3.2.5-.3.2-.6.4-.9.5-.3.2-.6.3-.9.4-.3.1-.6.2-.9.3-.3,0-.5,0-.8,0s-.6,0-.9-.2c-.3-.1-.5-.3-.7-.6-.2-.3-.4-.7-.5-1.2-.1-.5-.2-1.2-.2-2s0-.9,0-1.4c0-.5,0-.9,0-1.4,0-.5,0-1,0-1.4,0-.5,0-1,.1-1.4-.4,0-.7,0-1.1,0-.3,0-.6,0-.8.1,0,0,0,0,0-.1,0-.1,0-.2.1-.3.1,0,.2-.2.4-.2.2,0,.4-.1.6-.2.2,0,.5,0,.8-.1.1-1,.2-2,.4-2.9.1-.9.3-1.7.4-2.4,0-.1,0-.2.1-.3,0,0,.1-.1.2-.2,0,0,.2,0,.3-.1.1,0,.2,0,.3,0,.2,0,.3,0,.4,0,.1,0,.3,0,.4.1Z"/>
  <path class="st0" d="M435.9,9.6c0,.6-.2,1.1-.2,1.7,0,.6-.1,1.1-.1,1.6,0,.5,0,1,0,1.5,0,.5,0,.9,0,1.3s0,.9,0,1.3c0,.4,0,.7,0,.9,0,.2,0,.4.1.6,0,.1.1.3.2.3,0,0,.2.1.3.2.1,0,.2,0,.3,0,.2,0,.5,0,.8-.1.3,0,.5-.2.8-.3v.4c0,.1-.3.3-.5.4-.3.1-.5.3-.8.4-.3.1-.6.2-.9.3-.3,0-.5.1-.7.1s-.3,0-.4,0c-.1,0-.2,0-.3-.2,0,0-.2-.2-.2-.4,0-.2-.1-.4-.2-.7,0-.3,0-.7-.1-1.1,0-.4,0-1,0-1.6s0-.8,0-1.2c0-.5,0-1,0-1.5,0-.5,0-1.1,0-1.7,0-.6,0-1.2,0-1.8,0-.1,0-.2.1-.3,0,0,.1-.2.2-.2,0,0,.2,0,.3,0,.1,0,.2,0,.3,0,.3,0,.6,0,.9.2ZM435.3,6.3c-.2,0-.3,0-.5-.1-.1,0-.2-.2-.3-.3,0-.1-.2-.2-.2-.4,0-.2,0-.3,0-.5s0-.4.1-.6c0-.2.2-.3.3-.4.1-.1.2-.2.4-.3.1,0,.3,0,.4,0s.3,0,.4,0c.1,0,.2.1.3.2,0,.1.2.2.2.4,0,.1,0,.3,0,.4s0,.3,0,.5c0,.2-.1.3-.2.5-.1.1-.2.2-.4.3-.1,0-.3.1-.5.1Z"/>
  <path class="st0" d="M444.8,12.3c.1-.3.2-.5.2-.8s0-.4-.1-.5c0-.2-.2-.3-.3-.4-.1-.1-.3-.2-.5-.3-.2,0-.4-.1-.7-.1-.4,0-.7,0-1,.2-.3.1-.6.3-.8.5-.2.2-.4.5-.6.8-.2.3-.3.6-.4,1-.1.4-.2.7-.2,1.1,0,.4,0,.7,0,1.1,0,.6,0,1.2.2,1.7.2.5.4.9.7,1.3.3.4.6.6,1,.8.4.2.8.3,1.2.3s.9-.1,1.3-.3c.5-.2.9-.6,1.3-1.1,0,0,0,0,.1,0,0,0,0,0,.1,0,0,0,0,0,.1.1,0,0,0,0,0,0s0,0,0,0h0c-.5.8-1,1.4-1.7,1.7-.7.4-1.4.6-2.2.6s-.8,0-1.2-.2c-.4-.1-.7-.3-1-.5-.3-.2-.6-.5-.8-.8-.2-.3-.4-.6-.6-.9-.1-.3-.3-.7-.3-1.1,0-.4-.1-.8-.1-1.1s0-1,.2-1.5c.1-.5.3-1,.5-1.5.2-.5.5-.9.8-1.3.3-.4.7-.8,1.1-1.1.4-.3.8-.5,1.3-.7.5-.2,1-.3,1.5-.3s.8,0,1.1.1c.3,0,.6.2.9.4.3.2.4.4.6.6.1.2.2.5.2.8s0,.4,0,.5c0,.2-.1.3-.3.4-.1.1-.2.2-.4.2-.1,0-.3,0-.5,0s-.2,0-.3,0c-.1,0-.2,0-.3-.1h0Z"/>
  <path class="st0" d="M454.5,11.4c0-.2,0-.4,0-.5,0-.1,0-.2-.1-.3,0,0-.1-.1-.2-.2,0,0-.2,0-.3,0s-.4,0-.6,0c-.2,0-.5.1-.8.2v-.5c.2-.1.6-.2.9-.3.3-.1.6-.2.9-.3.3,0,.5-.1.7-.2.2,0,.4,0,.5,0,.3,0,.5,0,.7.3.2.2.2.5.2.9s0,.2,0,.3c0,.2,0,.4,0,.7,0,.3,0,.6,0,.9,0,.4,0,.7,0,1.1,0,.4,0,.8-.1,1.2,0,.4,0,.8-.1,1.3h0c.4-1.2.8-2.3,1.2-3.2.4-.9.9-1.6,1.3-2.1.4-.5.9-.9,1.3-1.2.4-.2.8-.4,1.2-.4s.5,0,.8.2c.3.1.5.3.7.5.2.2.4.5.5.9.1.4.2.8.2,1.3s0,.3,0,.6c0,.2,0,.5,0,.8,0,.3,0,.6,0,1,0,.3,0,.7,0,1,0,.3,0,.6,0,.9,0,.3,0,.5,0,.8,0,.4,0,.7,0,.9,0,.2,0,.4.2.6,0,.1.2.2.3.3.1,0,.3,0,.4,0,.3,0,.5,0,.8-.1.3,0,.5-.2.8-.3v.4c0,.1-.3.3-.5.4-.3.1-.6.3-.8.4-.3.1-.6.2-.9.3-.3,0-.6.1-.8.1s-.5,0-.6-.2c-.2-.1-.3-.3-.3-.6,0-.2-.1-.5-.1-.9,0-.3,0-.7,0-1.1s0-.9,0-1.4c0-.5,0-.9.1-1.4,0-.4,0-.8.1-1.2,0-.4,0-.6,0-.9,0-.6-.1-1-.3-1.3-.2-.3-.5-.4-.9-.4s-.6.1-.9.4c-.3.2-.6.6-.9,1-.3.4-.6.9-.9,1.5-.3.6-.5,1.2-.8,1.8-.2.7-.4,1.3-.6,2.1-.2.7-.2,1.4-.3,2.2l-1.5.2h-.1c0-.5,0-1,.1-1.5,0-.5,0-1.1,0-1.7,0-.6,0-1.1,0-1.7,0-.6,0-1.1,0-1.5,0-.5,0-.9,0-1.3,0-.4,0-.7,0-.9Z"/>
  <path class="st0" d="M473.4,17.6s0,0,.1,0c0,0,0,0,.1,0,0,0,0,0,.1.1,0,0,0,0,0,.1s0,0,0,0c-.3.4-.6.7-.9,1-.3.3-.6.5-1,.7-.3.2-.7.3-1,.4-.4,0-.7.1-1,.1-.6,0-1.1-.1-1.6-.4-.5-.2-.9-.6-1.3-1-.4-.4-.6-.9-.8-1.5-.2-.6-.3-1.2-.3-1.8s0-1,.2-1.6c.1-.5.3-1,.5-1.5.2-.5.5-.9.8-1.3.3-.4.7-.8,1.1-1.1.4-.3.8-.5,1.3-.7.5-.2,1-.3,1.5-.3s.7,0,1,.1c.3,0,.6.2.9.4.2.2.4.4.6.7.1.3.2.6.2.9,0,.5-.2.9-.5,1.3-.3.4-.8.7-1.3.9-.6.3-1.2.5-2,.6-.8.2-1.6.3-2.5.4h0c0,.7,0,1.3.2,1.8.2.5.4,1,.7,1.3.3.4.6.7,1,.9.4.2.8.3,1.2.3s.9-.1,1.3-.3c.5-.2.9-.6,1.4-1.1ZM472,11.7c0-.2,0-.4-.1-.6,0-.2-.2-.4-.3-.5-.1-.1-.3-.3-.5-.3-.2,0-.4-.1-.6-.1-.3,0-.6,0-.9.2-.3.1-.5.3-.7.5-.2.2-.4.4-.5.7-.2.3-.3.5-.4.8-.1.3-.2.6-.3.9,0,.3-.1.6-.1.9.7,0,1.3-.1,1.9-.2.5-.1,1-.3,1.4-.5.4-.2.7-.4.9-.7.2-.3.3-.6.3-.9Z"/>
  <path class="st0" d="M476.3,20h-.1c0-.5,0-1,.1-1.5,0-.5,0-1.1,0-1.7,0-.6,0-1.1,0-1.7,0-.6,0-1.1,0-1.5,0-.5,0-.9,0-1.3,0-.4,0-.7,0-.9s0-.3,0-.5c0-.1,0-.2-.1-.3,0,0-.1-.1-.2-.2,0,0-.2,0-.4,0s-.2,0-.3,0c0,0-.2,0-.3,0-.1,0-.2,0-.4,0-.1,0-.3,0-.5.1v-.5c.7-.3,1.4-.5,1.9-.6.5-.1.8-.2,1-.2.3,0,.5,0,.7.3.1.2.2.5.2.8s0,.1,0,.3c0,.2,0,.4,0,.7,0,.3,0,.6,0,.9,0,.4,0,.7,0,1.1,0,.4,0,.8-.1,1.3,0,.4,0,.9-.1,1.3h0c.2-.9.5-1.8.8-2.7.3-.8.6-1.5,1-2.2.4-.6.8-1.1,1.2-1.4.4-.4.9-.5,1.5-.5s.4,0,.5,0c.2,0,.3.1.4.2.1.1.2.2.3.4,0,.1.1.3.1.5s0,.4-.1.6c0,.2-.2.4-.4.5h0c-.2-.2-.4-.3-.6-.4-.2,0-.4-.1-.6-.1s-.4,0-.6.1c-.2,0-.4.2-.6.4-.3.3-.5.6-.8,1-.2.4-.5.9-.7,1.4-.2.5-.4,1-.5,1.6-.2.6-.3,1.1-.4,1.6-.1.5-.2,1-.3,1.5,0,.5-.1.9-.1,1.2l-1.5.2Z"/>
  <path class="st0" d="M486.3,20.1c-.2-1.1-.3-2-.5-3-.2-.9-.3-1.8-.5-2.6-.2-.8-.4-1.6-.6-2.3-.2-.7-.4-1.4-.6-2,0-.1,0-.2,0-.3,0-.1,0-.3.2-.4.1-.1.3-.2.6-.2s.3,0,.4,0c.2,0,.3,0,.5.2.1.3.2.6.3,1,.1.4.2.8.4,1.3.1.5.2,1,.4,1.5.1.5.2,1.1.3,1.6.1.6.2,1.1.3,1.6,0,.5.2,1.1.2,1.5.4-.5.7-1.1,1.1-1.7.4-.6.7-1.2,1-1.8.3-.6.5-1.2.7-1.8.2-.6.3-1.1.3-1.7s0-.8-.2-1.2c-.2-.4-.4-.7-.8-1v-.2c.2,0,.3,0,.3,0,0,0,.2,0,.2,0,.7,0,1.1.2,1.5.5.3.3.5.7.5,1.3s0,.9-.3,1.4c-.2.5-.4,1.1-.7,1.7-.3.6-.6,1.2-1,1.8-.4.6-.7,1.2-1.1,1.7-.4.6-.8,1.1-1.1,1.6-.4.5-.7.9-1,1.3h-.8Z"/>
  <path class="st0" d="M500.9,17.6s0,0,.1,0c0,0,0,0,.1,0,0,0,0,0,.1.1,0,0,0,0,0,.1s0,0,0,0c-.3.4-.6.7-.9,1-.3.3-.6.5-1,.7-.3.2-.7.3-1,.4-.4,0-.7.1-1,.1-.6,0-1.1-.1-1.6-.4-.5-.2-.9-.6-1.3-1-.4-.4-.6-.9-.8-1.5-.2-.6-.3-1.2-.3-1.8s0-1,.2-1.6c.1-.5.3-1,.5-1.5.2-.5.5-.9.8-1.3.3-.4.7-.8,1.1-1.1.4-.3.8-.5,1.3-.7.5-.2,1-.3,1.5-.3s.7,0,1,.1c.3,0,.6.2.9.4.2.2.4.4.6.7.1.3.2.6.2.9,0,.5-.2.9-.5,1.3-.3.4-.8.7-1.3.9-.6.3-1.2.5-2,.6-.8.2-1.6.3-2.5.4h0c0,.7,0,1.3.2,1.8.2.5.4,1,.7,1.3.3.4.6.7,1,.9.4.2.8.3,1.2.3s.9-.1,1.3-.3c.5-.2.9-.6,1.4-1.1ZM499.5,11.7c0-.2,0-.4-.1-.6,0-.2-.2-.4-.3-.5-.1-.1-.3-.3-.5-.3-.2,0-.4-.1-.6-.1-.3,0-.6,0-.9.2-.3.1-.5.3-.7.5-.2.2-.4.4-.5.7-.2.3-.3.5-.4.8-.1.3-.2.6-.3.9,0,.3-.1.6-.1.9.7,0,1.3-.1,1.9-.2.5-.1,1-.3,1.4-.5.4-.2.7-.4.9-.7.2-.3.3-.6.3-.9Z"/>
</svg>